Hubballi-Regular-Robofont-Glyphsnames.ufo
<glyph name="z" format="1">
  <advance width="444"/>
  <unicode hex="007A"/>
  <outline>
    <contour>
      <point x="71" y="0" type="curve" smooth="yes"/>
      <point x="372" y="0" type="line" smooth="yes"/>
      <point x="386" y="0"/>
      <point x="397" y="12"/>
      <point x="397" y="25" type="curve" smooth="yes"/>
      <point x="397" y="39"/>
      <point x="386" y="50"/>
      <point x="372" y="50" type="curve" smooth="yes"/>
      <point x="124" y="50" type="line"/>
      <point x="380" y="351" type="line" smooth="yes"/>
      <point x="384" y="355"/>
      <point x="386" y="361"/>
      <point x="386" y="366" type="curve" smooth="yes"/>
      <point x="386" y="381"/>
      <point x="374" y="392"/>
      <point x="361" y="392" type="curve" smooth="yes"/>
      <point x="86" y="392" type="line" smooth="yes"/>
      <point x="73" y="392"/>
      <point x="61" y="381"/>
      <point x="61" y="367" type="curve" smooth="yes"/>
      <point x="61" y="354"/>
      <point x="73" y="342"/>
      <point x="86" y="342" type="curve" smooth="yes"/>
      <point x="307" y="342" type="line"/>
      <point x="58" y="49" type="line" smooth="yes"/>
      <point x="49" y="39"/>
      <point x="46" y="33"/>
      <point x="46" y="25" type="curve" smooth="yes"/>
      <point x="46" y="12"/>
      <point x="58" y="0"/>
    </contour>
  </outline>
</glyph>
<glyph name="partialdiff" format="1">
  <advance width="566"/>
  <unicode hex="2202"/>
  <outline>
    <contour>
      <point x="262" y="-3" type="curve" smooth="yes"/>
      <point x="311" y="-3"/>
      <point x="360" y="17"/>
      <point x="398" y="55" type="curve" smooth="yes"/>
      <point x="442" y="99"/>
      <point x="479" y="205"/>
      <point x="479" y="311" type="curve" smooth="yes"/>
      <point x="479" y="387"/>
      <point x="461" y="461"/>
      <point x="427" y="496" type="curve" smooth="yes"/>
      <point x="399" y="523"/>
      <point x="361" y="539"/>
      <point x="322" y="539" type="curve" smooth="yes"/>
      <point x="279" y="539"/>
      <point x="233" y="519"/>
      <point x="201" y="487" type="curve" smooth="yes"/>
      <point x="196" y="482"/>
      <point x="193" y="476"/>
      <point x="193" y="469" type="curve" smooth="yes"/>
      <point x="193" y="456"/>
      <point x="205" y="444"/>
      <point x="218" y="444" type="curve" smooth="yes"/>
      <point x="224" y="444"/>
      <point x="231" y="447"/>
      <point x="235" y="451" type="curve" smooth="yes"/>
      <point x="259" y="473"/>
      <point x="291" y="489"/>
      <point x="322" y="489" type="curve" smooth="yes"/>
      <point x="347" y="489"/>
      <point x="373" y="479"/>
      <point x="391" y="460" type="curve" smooth="yes"/>
      <point x="418" y="434"/>
      <point x="428" y="377"/>
      <point x="429" y="319" type="curve"/>
      <point x="384" y="328"/>
      <point x="343" y="334"/>
      <point x="307" y="334" type="curve" smooth="yes"/>
      <point x="173" y="334"/>
      <point x="100" y="249"/>
      <point x="100" y="151" type="curve" smooth="yes"/>
      <point x="100" y="67"/>
      <point x="165" y="-3"/>
    </contour>
    <contour>
      <point x="262" y="47" type="curve" smooth="yes"/>
      <point x="197" y="47"/>
      <point x="150" y="93"/>
      <point x="150" y="151" type="curve" smooth="yes"/>
      <point x="150" y="225"/>
      <point x="209" y="284"/>
      <point x="307" y="284" type="curve" smooth="yes"/>
      <point x="341" y="284"/>
      <point x="383" y="278"/>
      <point x="427" y="269" type="curve"/>
      <point x="420" y="194"/>
      <point x="394" y="123"/>
      <point x="362" y="91" type="curve" smooth="yes"/>
      <point x="334" y="63"/>
      <point x="299" y="47"/>
    </contour>
  </outline>
</glyph>
<glyph name="aiMatra-kannada" format="1">
  <advance width="192"/>
  <outline>
    <contour>
      <point x="-188" y="410" type="line" smooth="yes"/>
      <point x="-47" y="410"/>
      <point x="-14" y="471"/>
      <point x="-14" y="532" type="curve" smooth="yes"/>
      <point x="-14" y="590"/>
      <point x="-57" y="635"/>
      <point x="-123" y="635" type="curve" smooth="yes"/>
      <point x="-190" y="635"/>
      <point x="-240" y="583"/>
      <point x="-240" y="508" type="curve" smooth="yes"/>
      <point x="-240" y="490"/>
      <point x="-237" y="471"/>
      <point x="-234" y="456" type="curve"/>
      <point x="-269" y="456" type="line" smooth="yes"/>
      <point x="-281" y="456"/>
      <point x="-292" y="445"/>
      <point x="-292" y="433" type="curve" smooth="yes"/>
      <point x="-292" y="421"/>
      <point x="-281" y="410"/>
      <point x="-269" y="410" type="curve" smooth="yes"/>
    </contour>
    <contour>
      <point x="-194" y="508" type="curve" smooth="yes"/>
      <point x="-194" y="553"/>
      <point x="-166" y="589"/>
      <point x="-123" y="589" type="curve" smooth="yes"/>
      <point x="-87" y="589"/>
      <point x="-60" y="566"/>
      <point x="-60" y="532" type="curve" smooth="yes"/>
      <point x="-60" y="487"/>
      <point x="-98" y="456"/>
      <point x="-187" y="456" type="curve"/>
      <point x="-190" y="470"/>
      <point x="-194" y="489"/>
    </contour>
    <contour>
      <point x="-135" y="-223" type="curve" smooth="yes"/>
      <point x="-154" y="-223"/>
      <point x="-172" y="-218"/>
      <point x="-187" y="-209" type="curve"/>
      <point x="-183" y="-177"/>
      <point x="-163" y="-152"/>
      <point x="-131" y="-152" type="curve" smooth="yes"/>
      <point x="-105" y="-152"/>
      <point x="-90" y="-167"/>
      <point x="-90" y="-186" type="curve" smooth="yes"/>
      <point x="-90" y="-213"/>
      <point x="-112" y="-223"/>
    </contour>
    <contour>
      <point x="85" y="-327" type="curve" smooth="yes"/>
      <point x="113" y="-299"/>
      <point x="126" y="-264"/>
      <point x="126" y="-223" type="curve" smooth="yes"/>
      <point x="126" y="-178"/>
      <point x="104" y="-133"/>
      <point x="73" y="-102" type="curve"/>
      <point x="111" y="-81"/>
      <point x="124" y="-55"/>
      <point x="124" y="-22" type="curve" smooth="yes"/>
      <point x="124" y="10"/>
      <point x="104" y="41"/>
      <point x="77" y="61" type="curve" smooth="yes"/>
      <point x="74" y="64"/>
      <point x="70" y="65"/>
      <point x="66" y="65" type="curve" smooth="yes"/>
      <point x="54" y="65"/>
      <point x="44" y="56"/>
      <point x="44" y="45" type="curve" smooth="yes"/>
      <point x="44" y="38"/>
      <point x="47" y="31"/>
      <point x="53" y="27" type="curve" smooth="yes"/>
      <point x="68" y="16"/>
      <point x="82" y="-2"/>
      <point x="82" y="-22" type="curve" smooth="yes"/>
      <point x="82" y="-48"/>
      <point x="65" y="-64"/>
      <point x="23" y="-77" type="curve" smooth="yes"/>
      <point x="14" y="-80"/>
      <point x="9" y="-86"/>
      <point x="9" y="-95" type="curve" smooth="yes"/>
      <point x="9" y="-103"/>
      <point x="13" y="-111"/>
      <point x="20" y="-115" type="curve" smooth="yes"/>
      <point x="56" y="-133"/>
      <point x="84" y="-180"/>
      <point x="84" y="-223" type="curve" smooth="yes"/>
      <point x="84" y="-252"/>
      <point x="75" y="-277"/>
      <point x="55" y="-297" type="curve" smooth="yes"/>
      <point x="32" y="-320"/>
      <point x="-4" y="-330"/>
      <point x="-49" y="-330" type="curve" smooth="yes"/>
      <point x="-100" y="-330"/>
      <point x="-136" y="-316"/>
      <point x="-157" y="-295" type="curve" smooth="yes"/>
      <point x="-168" y="-284"/>
      <point x="-176" y="-272"/>
      <point x="-182" y="-258" type="curve"/>
      <point x="-167" y="-262"/>
      <point x="-151" y="-265"/>
      <point x="-135" y="-265" type="curve" smooth="yes"/>
      <point x="-86" y="-265"/>
      <point x="-48" y="-237"/>
      <point x="-48" y="-186" type="curve" smooth="yes"/>
      <point x="-48" y="-149"/>
      <point x="-73" y="-110"/>
      <point x="-131" y="-110" type="curve" smooth="yes"/>
      <point x="-188" y="-110"/>
      <point x="-230" y="-156"/>
      <point x="-230" y="-223" type="curve" smooth="yes"/>
      <point x="-230" y="-263"/>
      <point x="-214" y="-298"/>
      <point x="-187" y="-325" type="curve" smooth="yes"/>
      <point x="-160" y="-352"/>
      <point x="-114" y="-372"/>
      <point x="-49" y="-372" type="curve" smooth="yes"/>
      <point x="10" y="-372"/>
      <point x="56" y="-356"/>
    </contour>
  </outline>
</glyph>
<glyph name="bhe-kannada" format="1">
  <advance width="738"/>
  <outline>
    <contour>
      <point x="524" y="508" type="curve" smooth="yes"/>
      <point x="524" y="553"/>
      <point x="552" y="589"/>
      <point x="595" y="589" type="curve" smooth="yes"/>
      <point x="631" y="589"/>
      <point x="658" y="566"/>
      <point x="658" y="532" type="curve" smooth="yes"/>
      <point x="658" y="487"/>
      <point x="620" y="456"/>
      <point x="531" y="456" type="curve"/>
      <point x="528" y="470"/>
      <point x="524" y="489"/>
    </contour>
    <contour>
      <point x="536" y="0" type="curve" smooth="yes"/>
      <point x="615" y="0"/>
      <point x="680" y="59"/>
      <point x="680" y="168" type="curve" smooth="yes"/>
      <point x="680" y="253"/>
      <point x="635" y="343"/>
      <point x="562" y="411" type="curve"/>
      <point x="676" y="420"/>
      <point x="704" y="476"/>
      <point x="704" y="532" type="curve" smooth="yes"/>
      <point x="704" y="590"/>
      <point x="661" y="635"/>
      <point x="595" y="635" type="curve" smooth="yes"/>
      <point x="528" y="635"/>
      <point x="478" y="583"/>
      <point x="478" y="508" type="curve" smooth="yes"/>
      <point x="478" y="490"/>
      <point x="481" y="471"/>
      <point x="484" y="456" type="curve"/>
      <point x="439" y="456" type="line" smooth="yes"/>
      <point x="427" y="456"/>
      <point x="416" y="445"/>
      <point x="416" y="433" type="curve" smooth="yes"/>
      <point x="416" y="421"/>
      <point x="427" y="410"/>
      <point x="439" y="410" type="curve" smooth="yes"/>
      <point x="491" y="410" type="line"/>
      <point x="576" y="351"/>
      <point x="634" y="256"/>
      <point x="634" y="168" type="curve" smooth="yes"/>
      <point x="634" y="93"/>
      <point x="593" y="46"/>
      <point x="536" y="46" type="curve" smooth="yes"/>
      <point x="478" y="46"/>
      <point x="438" y="76"/>
      <point x="404" y="135" type="curve" smooth="yes"/>
      <point x="400" y="142"/>
      <point x="391" y="147"/>
      <point x="384" y="147" type="curve" smooth="yes"/>
      <point x="379" y="147" type="line" smooth="yes"/>
      <point x="372" y="147"/>
      <point x="363" y="142"/>
      <point x="359" y="136" type="curve" smooth="yes"/>
      <point x="323" y="77"/>
      <point x="281" y="46"/>
      <point x="222" y="46" type="curve" smooth="yes"/>
      <point x="165" y="46"/>
      <point x="133" y="81"/>
      <point x="133" y="125" type="curve" smooth="yes"/>
      <point x="133" y="167"/>
      <point x="162" y="202"/>
      <point x="203" y="235" type="curve" smooth="yes"/>
      <point x="269" y="288"/>
      <point x="291" y="327"/>
      <point x="291" y="371" type="curve" smooth="yes"/>
      <point x="291" y="426"/>
      <point x="251" y="471"/>
      <point x="183" y="471" type="curve" smooth="yes"/>
      <point x="140" y="471"/>
      <point x="105" y="451"/>
      <point x="75" y="417" type="curve" smooth="yes"/>
      <point x="71" y="413"/>
      <point x="69" y="407"/>
      <point x="69" y="402" type="curve" smooth="yes"/>
      <point x="69" y="389"/>
      <point x="81" y="379"/>
      <point x="92" y="379" type="curve" smooth="yes"/>
      <point x="99" y="379"/>
      <point x="105" y="382"/>
      <point x="109" y="387" type="curve" smooth="yes"/>
      <point x="129" y="409"/>
      <point x="154" y="425"/>
      <point x="183" y="425" type="curve" smooth="yes"/>
      <point x="219" y="425"/>
      <point x="245" y="402"/>
      <point x="245" y="371" type="curve" smooth="yes"/>
      <point x="245" y="337"/>
      <point x="223" y="310"/>
      <point x="175" y="271" type="curve" smooth="yes"/>
      <point x="120" y="226"/>
      <point x="87" y="179"/>
      <point x="87" y="125" type="curve" smooth="yes"/>
      <point x="87" y="59"/>
      <point x="133" y="0"/>
      <point x="222" y="0" type="curve" smooth="yes"/>
      <point x="288" y="0"/>
      <point x="338" y="27"/>
      <point x="381" y="86" type="curve"/>
      <point x="422" y="27"/>
      <point x="471" y="0"/>
    </contour>
    <contour>
      <point x="406" y="-93" type="line" smooth="yes"/>
      <point x="406" y="-81"/>
      <point x="395" y="-70"/>
      <point x="383" y="-70" type="curve" smooth="yes"/>
      <point x="371" y="-70"/>
      <point x="360" y="-81"/>
      <point x="360" y="-93" type="curve" smooth="yes"/>
      <point x="360" y="-196" type="line" smooth="yes"/>
      <point x="360" y="-208"/>
      <point x="371" y="-219"/>
      <point x="383" y="-219" type="curve" smooth="yes"/>
      <point x="395" y="-219"/>
      <point x="406" y="-208"/>
      <point x="406" y="-196" type="curve" smooth="yes"/>
    </contour>
  </outline>
</glyph>
<glyph name="chaa-kannada" format="1">
  <advance width="1111"/>
  <outline>
    <contour>
      <point x="234" y="305" type="curve" smooth="yes"/>
      <point x="201" y="305"/>
      <point x="176" y="325"/>
      <point x="154" y="356" type="curve"/>
      <point x="173" y="397"/>
      <point x="201" y="425"/>
      <point x="238" y="425" type="curve" smooth="yes"/>
      <point x="274" y="425"/>
      <point x="299" y="400"/>
      <point x="299" y="364" type="curve" smooth="yes"/>
      <point x="299" y="327"/>
      <point x="269" y="305"/>
    </contour>
    <contour>
      <point x="1044" y="167" type="curve" smooth="yes"/>
      <point x="1044" y="353"/>
      <point x="929" y="456"/>
      <point x="770" y="456" type="curve" smooth="yes"/>
      <point x="470" y="456" type="line" smooth="yes"/>
      <point x="458" y="456"/>
      <point x="447" y="445"/>
      <point x="447" y="433" type="curve" smooth="yes"/>
      <point x="447" y="421"/>
      <point x="458" y="410"/>
      <point x="470" y="410" type="curve" smooth="yes"/>
      <point x="537" y="410" type="line"/>
      <point x="627" y="344"/>
      <point x="664" y="266"/>
      <point x="664" y="179" type="curve" smooth="yes"/>
      <point x="664" y="102"/>
      <point x="619" y="46"/>
      <point x="557" y="46" type="curve" smooth="yes"/>
      <point x="501" y="46"/>
      <point x="461" y="77"/>
      <point x="428" y="135" type="curve" smooth="yes"/>
      <point x="424" y="142"/>
      <point x="415" y="147"/>
      <point x="408" y="147" type="curve" smooth="yes"/>
      <point x="403" y="147" type="line" smooth="yes"/>
      <point x="395" y="147"/>
      <point x="387" y="142"/>
      <point x="383" y="135" type="curve" smooth="yes"/>
      <point x="353" y="77"/>
      <point x="319.0" y="46.0"/>
      <point x="261" y="46" type="curve" smooth="yes"/>
      <point x="177" y="47"/>
      <point x="127" y="126"/>
      <point x="127" y="225" type="curve" smooth="yes"/>
      <point x="127" y="252"/>
      <point x="130" y="280"/>
      <point x="136" y="305" type="curve"/>
      <point x="164" y="276"/>
      <point x="197" y="259"/>
      <point x="234" y="259" type="curve" smooth="yes"/>
      <point x="295" y="259"/>
      <point x="345" y="301"/>
      <point x="345" y="364" type="curve" smooth="yes"/>
      <point x="345" y="426"/>
      <point x="304" y="471"/>
      <point x="239" y="471" type="curve" smooth="yes"/>
      <point x="158" y="471"/>
      <point x="81" y="370"/>
      <point x="81" y="225" type="curve" smooth="yes"/>
      <point x="81" y="92"/>
      <point x="154" y="0"/>
      <point x="263" y="0" type="curve" smooth="yes"/>
      <point x="325" y="0"/>
      <point x="369" y="26"/>
      <point x="406" y="84" type="curve"/>
      <point x="446" y="28"/>
      <point x="495" y="0"/>
      <point x="557" y="0" type="curve" smooth="yes"/>
      <point x="641" y="0"/>
      <point x="710" y="70"/>
      <point x="710" y="179" type="curve" smooth="yes"/>
      <point x="710" y="264"/>
      <point x="681" y="341"/>
      <point x="609" y="410" type="curve"/>
      <point x="770" y="410" type="line" smooth="yes"/>
      <point x="886" y="410"/>
      <point x="974" y="342"/>
      <point x="994" y="221" type="curve"/>
      <point x="974" y="226"/>
      <point x="952" y="229"/>
      <point x="932" y="229" type="curve" smooth="yes"/>
      <point x="841" y="229"/>
      <point x="799" y="171"/>
      <point x="799" y="106" type="curve" smooth="yes"/>
      <point x="799" y="48"/>
      <point x="840" y="-4"/>
      <point x="911" y="-4" type="curve" smooth="yes"/>
      <point x="984" y="-4"/>
      <point x="1044" y="55"/>
    </contour>
    <contour>
      <point x="911" y="42" type="curve" smooth="yes"/>
      <point x="870" y="42"/>
      <point x="845" y="72"/>
      <point x="845" y="106" type="curve" smooth="yes"/>
      <point x="845" y="149"/>
      <point x="875" y="183"/>
      <point x="932" y="183" type="curve" smooth="yes"/>
      <point x="955" y="183"/>
      <point x="978" y="178"/>
      <point x="998" y="172" type="curve"/>
      <point x="998" y="167" type="line" smooth="yes"/>
      <point x="998" y="93"/>
      <point x="964" y="42"/>
    </contour>
    <contour>
      <point x="429" y="-93" type="line" smooth="yes"/>
      <point x="429" y="-81"/>
      <point x="418" y="-70"/>
      <point x="406" y="-70" type="curve" smooth="yes"/>
      <point x="394" y="-70"/>
      <point x="383" y="-81"/>
      <point x="383" y="-93" type="curve" smooth="yes"/>
      <point x="383" y="-196" type="line" smooth="yes"/>
      <point x="383" y="-208"/>
      <point x="394" y="-219"/>
      <point x="406" y="-219" type="curve" smooth="yes"/>
      <point x="418" y="-219"/>
      <point x="429" y="-208"/>
      <point x="429" y="-196" type="curve" smooth="yes"/>
    </contour>
  </outline>
</glyph>
<glyph name="dieresiscmb.cap" format="1">
  <advance width="0"/>
  <outline>
    <contour>
      <point x="90" y="730" type="curve" smooth="yes"/>
      <point x="70" y="730"/>
      <point x="51" y="712"/>
      <point x="51" y="682" type="curve" smooth="yes"/>
      <point x="51" y="650"/>
      <point x="70" y="634"/>
      <point x="90" y="634" type="curve" smooth="yes"/>
      <point x="108" y="634"/>
      <point x="128" y="649"/>
      <point x="128" y="682" type="curve" smooth="yes"/>
      <point x="128" y="713"/>
      <point x="108" y="730"/>
    </contour>
    <contour>
      <point x="-103" y="730" type="curve" smooth="yes"/>
      <point x="-123" y="730"/>
      <point x="-143" y="711"/>
      <point x="-143" y="682" type="curve" smooth="yes"/>
      <point x="-143" y="651"/>
      <point x="-123" y="634"/>
      <point x="-103" y="634" type="curve" smooth="yes"/>
      <point x="-85" y="634"/>
      <point x="-65" y="649"/>
      <point x="-65" y="682" type="curve" smooth="yes"/>
      <point x="-65" y="713"/>
      <point x="-85" y="730"/>
    </contour>
  </outline>
</glyph>
<glyph name="f-kannada" format="1">
  <advance width="1059"/>
  <outline>
    <contour>
      <point x="547" y="292" type="curve" smooth="yes"/>
      <point x="512" y="292"/>
      <point x="482" y="314"/>
      <point x="482" y="351" type="curve" smooth="yes"/>
      <point x="482" y="387"/>
      <point x="507" y="412"/>
      <point x="547" y="412" type="curve" smooth="yes"/>
      <point x="582" y="412"/>
      <point x="612" y="383"/>
      <point x="632" y="339" type="curve"/>
      <point x="608" y="314"/>
      <point x="582" y="292"/>
    </contour>
    <contour>
      <point x="224" y="292" type="curve" smooth="yes"/>
      <point x="189" y="292"/>
      <point x="163" y="314"/>
      <point x="139" y="339" type="curve"/>
      <point x="159" y="383"/>
      <point x="189" y="412"/>
      <point x="224" y="412" type="curve" smooth="yes"/>
      <point x="264" y="412"/>
      <point x="289" y="387"/>
      <point x="289" y="351" type="curve" smooth="yes"/>
      <point x="289" y="314"/>
      <point x="259" y="292"/>
    </contour>
    <contour>
      <point x="909" y="269" type="curve" smooth="yes"/>
      <point x="871" y="269"/>
      <point x="838" y="300"/>
      <point x="838" y="345" type="curve" smooth="yes"/>
      <point x="838" y="365"/>
      <point x="841" y="387"/>
      <point x="851" y="410" type="curve"/>
      <point x="870" y="410" type="line" smooth="yes"/>
      <point x="938" y="410"/>
      <point x="972" y="372"/>
      <point x="972" y="333" type="curve" smooth="yes"/>
      <point x="972" y="293"/>
      <point x="947" y="269"/>
    </contour>
    <contour>
      <point x="700" y="225" type="curve" smooth="yes"/>
      <point x="700" y="307"/>
      <point x="676" y="370"/>
      <point x="641" y="410" type="curve"/>
      <point x="801" y="410" type="line"/>
      <point x="794" y="387"/>
      <point x="792" y="365"/>
      <point x="792" y="345" type="curve" smooth="yes"/>
      <point x="792" y="270"/>
      <point x="847" y="223"/>
      <point x="909" y="223" type="curve" smooth="yes"/>
      <point x="973" y="223"/>
      <point x="1018" y="265"/>
      <point x="1018" y="333" type="curve" smooth="yes"/>
      <point x="1018" y="389"/>
      <point x="980" y="453"/>
      <point x="878" y="456" type="curve"/>
      <point x="899" y="482"/>
      <point x="930" y="508"/>
      <point x="974" y="532" type="curve" smooth="yes"/>
      <point x="982" y="536"/>
      <point x="986" y="544"/>
      <point x="986" y="552" type="curve" smooth="yes"/>
      <point x="986" y="566"/>
      <point x="974" y="575"/>
      <point x="963" y="575" type="curve" smooth="yes"/>
      <point x="959" y="575"/>
      <point x="955" y="574"/>
      <point x="952" y="572" type="curve" smooth="yes"/>
      <point x="885" y="536"/>
      <point x="845" y="495"/>
      <point x="821" y="456" type="curve"/>
      <point x="568" y="456" type="line"/>
      <point x="562" y="457"/>
      <point x="554" y="458"/>
      <point x="547" y="458" type="curve" smooth="yes"/>
      <point x="477" y="458"/>
      <point x="436" y="413"/>
      <point x="436" y="351" type="curve" smooth="yes"/>
      <point x="436" y="288"/>
      <point x="486" y="246"/>
      <point x="547" y="246" type="curve" smooth="yes"/>
      <point x="585" y="246"/>
      <point x="619" y="264"/>
      <point x="647" y="291" type="curve"/>
      <point x="652" y="270"/>
      <point x="654" y="248"/>
      <point x="654" y="225" type="curve" smooth="yes"/>
      <point x="654" y="127"/>
      <point x="605" y="46"/>
      <point x="530" y="46" type="curve" smooth="yes"/>
      <point x="473" y="46"/>
      <point x="439" y="76"/>
      <point x="408" y="135" type="curve" smooth="yes"/>
      <point x="404" y="142"/>
      <point x="396" y="147"/>
      <point x="388" y="147" type="curve" smooth="yes"/>
      <point x="383" y="147" type="line" smooth="yes"/>
      <point x="375" y="147"/>
      <point x="367" y="142"/>
      <point x="363" y="135" type="curve" smooth="yes"/>
      <point x="332" y="76"/>
      <point x="298" y="46"/>
      <point x="241" y="46" type="curve" smooth="yes"/>
      <point x="166" y="46"/>
      <point x="117" y="127"/>
      <point x="117" y="225" type="curve" smooth="yes"/>
      <point x="117" y="248"/>
      <point x="119" y="270"/>
      <point x="124" y="291" type="curve"/>
      <point x="152" y="264"/>
      <point x="186" y="246"/>
      <point x="224" y="246" type="curve" smooth="yes"/>
      <point x="285" y="246"/>
      <point x="335" y="288"/>
      <point x="335" y="351" type="curve" smooth="yes"/>
      <point x="335" y="413"/>
      <point x="294" y="458"/>
      <point x="224" y="458" type="curve" smooth="yes"/>
      <point x="147" y="458"/>
      <point x="71" y="370"/>
      <point x="71" y="225" type="curve" smooth="yes"/>
      <point x="71" y="91"/>
      <point x="146" y="0"/>
      <point x="241" y="0" type="curve" smooth="yes"/>
      <point x="304" y="0"/>
      <point x="348" y="25"/>
      <point x="385" y="83" type="curve"/>
      <point x="423" y="25"/>
      <point x="467" y="0"/>
      <point x="530" y="0" type="curve" smooth="yes"/>
      <point x="625" y="0"/>
      <point x="700" y="91"/>
    </contour>
  </outline>
</glyph>
<glyph name="fa-kannada.base" format="1">
  <advance width="730"/>
  <outline>
    <contour>
      <point x="547" y="292" type="curve" smooth="yes"/>
      <point x="512" y="292"/>
      <point x="482" y="314"/>
      <point x="482" y="351" type="curve" smooth="yes"/>
      <point x="482" y="387"/>
      <point x="507" y="412"/>
      <point x="547" y="412" type="curve" smooth="yes"/>
      <point x="582" y="412"/>
      <point x="612" y="383"/>
      <point x="632" y="339" type="curve"/>
      <point x="608" y="314"/>
      <point x="582" y="292"/>
    </contour>
    <contour>
      <point x="224" y="292" type="curve" smooth="yes"/>
      <point x="189" y="292"/>
      <point x="163" y="314"/>
      <point x="139" y="339" type="curve"/>
      <point x="159" y="383"/>
      <point x="189" y="412"/>
      <point x="224" y="412" type="curve" smooth="yes"/>
      <point x="264" y="412"/>
      <point x="289" y="387"/>
      <point x="289" y="351" type="curve" smooth="yes"/>
      <point x="289" y="314"/>
      <point x="259" y="292"/>
    </contour>
    <contour>
      <point x="700" y="225" type="curve" smooth="yes"/>
      <point x="700" y="307"/>
      <point x="676" y="370"/>
      <point x="641" y="410" type="curve"/>
      <point x="680" y="410" type="line" smooth="yes"/>
      <point x="692" y="410"/>
      <point x="703" y="421"/>
      <point x="703" y="433" type="curve" smooth="yes"/>
      <point x="703" y="445"/>
      <point x="692" y="456"/>
      <point x="680" y="456" type="curve" smooth="yes"/>
      <point x="571" y="456" type="line"/>
      <point x="564" y="457"/>
      <point x="556.411764706" y="458.0"/>
      <point x="547" y="458" type="curve" smooth="yes"/>
      <point x="477" y="458"/>
      <point x="436" y="413"/>
      <point x="436" y="351" type="curve" smooth="yes"/>
      <point x="436" y="288"/>
      <point x="486" y="246"/>
      <point x="547" y="246" type="curve" smooth="yes"/>
      <point x="585" y="246"/>
      <point x="619" y="264"/>
      <point x="647" y="291" type="curve"/>
      <point x="652" y="270"/>
      <point x="654" y="248"/>
      <point x="654" y="225" type="curve" smooth="yes"/>
      <point x="654" y="127"/>
      <point x="605" y="46"/>
      <point x="530" y="46" type="curve" smooth="yes"/>
      <point x="473" y="46"/>
      <point x="439" y="76"/>
      <point x="408" y="135" type="curve" smooth="yes"/>
      <point x="404" y="142"/>
      <point x="396" y="147"/>
      <point x="388" y="147" type="curve" smooth="yes"/>
      <point x="383" y="147" type="line" smooth="yes"/>
      <point x="375" y="147"/>
      <point x="367" y="142"/>
      <point x="363" y="135" type="curve" smooth="yes"/>
      <point x="332" y="76"/>
      <point x="298" y="46"/>
      <point x="241" y="46" type="curve" smooth="yes"/>
      <point x="166" y="46"/>
      <point x="117" y="127"/>
      <point x="117" y="225" type="curve" smooth="yes"/>
      <point x="117" y="248"/>
      <point x="119" y="270"/>
      <point x="124" y="291" type="curve"/>
      <point x="152" y="264"/>
      <point x="186" y="246"/>
      <point x="224" y="246" type="curve" smooth="yes"/>
      <point x="285" y="246"/>
      <point x="335" y="288"/>
      <point x="335" y="351" type="curve" smooth="yes"/>
      <point x="335" y="413"/>
      <point x="294" y="458"/>
      <point x="224" y="458" type="curve" smooth="yes"/>
      <point x="147" y="458"/>
      <point x="71" y="370"/>
      <point x="71" y="225" type="curve" smooth="yes"/>
      <point x="71" y="91"/>
      <point x="146" y="0"/>
      <point x="241" y="0" type="curve" smooth="yes"/>
      <point x="304" y="0"/>
      <point x="348" y="25"/>
      <point x="385" y="83" type="curve"/>
      <point x="423" y="25"/>
      <point x="467" y="0"/>
      <point x="530" y="0" type="curve" smooth="yes"/>
      <point x="625" y="0"/>
      <point x="700" y="91"/>
    </contour>
  </outline>
</glyph>
<glyph name="four-kannada" format="1">
  <advance width="672"/>
  <outline>
    <contour>
      <point x="199" y="317" type="curve" smooth="yes"/>
      <point x="170" y="317"/>
      <point x="143" y="323"/>
      <point x="119" y="333" type="curve"/>
      <point x="119" y="379"/>
      <point x="155" y="425"/>
      <point x="205" y="425" type="curve" smooth="yes"/>
      <point x="244" y="425"/>
      <point x="270" y="402"/>
      <point x="270" y="371" type="curve" smooth="yes"/>
      <point x="270" y="338"/>
      <point x="241" y="317"/>
    </contour>
    <contour>
      <point x="482" y="84" type="curve" smooth="yes"/>
      <point x="482" y="108"/>
      <point x="476" y="133"/>
      <point x="457" y="152" type="curve"/>
      <point x="502" y="163"/>
      <point x="535" y="182"/>
      <point x="557" y="202" type="curve" smooth="yes"/>
      <point x="588" y="232"/>
      <point x="603" y="267"/>
      <point x="603" y="310" type="curve" smooth="yes"/>
      <point x="603" y="367"/>
      <point x="567" y="416"/>
      <point x="499" y="453" type="curve" smooth="yes"/>
      <point x="496" y="455"/>
      <point x="492" y="456"/>
      <point x="488" y="456" type="curve" smooth="yes"/>
      <point x="475" y="456"/>
      <point x="465" y="446"/>
      <point x="465" y="433" type="curve" smooth="yes"/>
      <point x="465" y="425"/>
      <point x="469" y="417"/>
      <point x="477" y="413" type="curve" smooth="yes"/>
      <point x="525" y="386"/>
      <point x="557" y="353"/>
      <point x="557" y="310" type="curve" smooth="yes"/>
      <point x="557" y="281"/>
      <point x="546" y="256"/>
      <point x="525" y="236" type="curve" smooth="yes"/>
      <point x="496" y="207"/>
      <point x="439" y="187"/>
      <point x="357" y="187" type="curve" smooth="yes"/>
      <point x="233" y="187"/>
      <point x="181" y="208"/>
      <point x="144" y="245" type="curve" smooth="yes"/>
      <point x="135" y="255"/>
      <point x="128" y="268"/>
      <point x="125" y="282" type="curve"/>
      <point x="148" y="275"/>
      <point x="172" y="271"/>
      <point x="199" y="271" type="curve" smooth="yes"/>
      <point x="277" y="271"/>
      <point x="316" y="316"/>
      <point x="316" y="371" type="curve" smooth="yes"/>
      <point x="316" y="424"/>
      <point x="276" y="471"/>
      <point x="205" y="471" type="curve" smooth="yes"/>
      <point x="131" y="471"/>
      <point x="73" y="407"/>
      <point x="73" y="329" type="curve" smooth="yes"/>
      <point x="73" y="286"/>
      <point x="85" y="239"/>
      <point x="112" y="213" type="curve" smooth="yes"/>
      <point x="141" y="184"/>
      <point x="177" y="161"/>
      <point x="242" y="150" type="curve"/>
      <point x="224" y="131"/>
      <point x="217" y="107"/>
      <point x="217" y="85" type="curve" smooth="yes"/>
      <point x="217" y="38"/>
      <point x="254" y="-16"/>
      <point x="349" y="-16" type="curve" smooth="yes"/>
      <point x="448" y="-16"/>
      <point x="482" y="38"/>
    </contour>
    <contour>
      <point x="349" y="139" type="curve" smooth="yes"/>
      <point x="353" y="139" type="line" smooth="yes"/>
      <point x="409" y="139"/>
      <point x="436" y="115"/>
      <point x="436" y="84" type="curve" smooth="yes"/>
      <point x="436" y="54"/>
      <point x="402" y="30"/>
      <point x="349" y="30" type="curve" smooth="yes"/>
      <point x="298" y="30"/>
      <point x="263" y="54"/>
      <point x="263" y="85" type="curve" smooth="yes"/>
      <point x="263" y="116"/>
      <point x="295" y="138"/>
    </contour>
  </outline>
</glyph>
<glyph name="ha-kannada" format="1">
  <advance width="790"/>
  <outline>
    <contour>
      <point x="553" y="-4" type="curve" smooth="yes"/>
      <point x="658" y="-4"/>
      <point x="716" y="69"/>
      <point x="716" y="150" type="curve" smooth="yes"/>
      <point x="716" y="229"/>
      <point x="657" y="303"/>
      <point x="553" y="303" type="curve" smooth="yes"/>
      <point x="494" y="303"/>
      <point x="447" y="275"/>
      <point x="418" y="239" type="curve"/>
      <point x="418" y="410" type="line"/>
      <point x="555" y="410" type="line" smooth="yes"/>
      <point x="638" y="410"/>
      <point x="686" y="440"/>
      <point x="723" y="499" type="curve" smooth="yes"/>
      <point x="725" y="503"/>
      <point x="726" y="507"/>
      <point x="726" y="511" type="curve" smooth="yes"/>
      <point x="726" y="523"/>
      <point x="716" y="534"/>
      <point x="703" y="534" type="curve" smooth="yes"/>
      <point x="695" y="534"/>
      <point x="688" y="530"/>
      <point x="683" y="523" type="curve" smooth="yes"/>
      <point x="655" y="478"/>
      <point x="618" y="456"/>
      <point x="555" y="456" type="curve" smooth="yes"/>
      <point x="114" y="456" type="line" smooth="yes"/>
      <point x="102" y="456"/>
      <point x="91" y="445"/>
      <point x="91" y="433" type="curve" smooth="yes"/>
      <point x="91" y="421"/>
      <point x="102" y="410"/>
      <point x="114" y="410" type="curve" smooth="yes"/>
      <point x="372" y="410" type="line"/>
      <point x="372" y="240" type="line"/>
      <point x="343" y="276"/>
      <point x="296" y="303"/>
      <point x="235" y="303" type="curve" smooth="yes"/>
      <point x="136" y="303"/>
      <point x="74" y="229"/>
      <point x="74" y="150" type="curve" smooth="yes"/>
      <point x="74" y="68"/>
      <point x="135" y="-4"/>
      <point x="235" y="-4" type="curve" smooth="yes"/>
      <point x="316" y="-4"/>
      <point x="374" y="40"/>
      <point x="395" y="98" type="curve"/>
      <point x="417" y="40"/>
      <point x="476" y="-4"/>
    </contour>
    <contour>
      <point x="670" y="150" type="curve" smooth="yes"/>
      <point x="670" y="92"/>
      <point x="626" y="42"/>
      <point x="553" y="42" type="curve" smooth="yes"/>
      <point x="483" y="42"/>
      <point x="431" y="91"/>
      <point x="431" y="150" type="curve" smooth="yes"/>
      <point x="431" y="207"/>
      <point x="482" y="257"/>
      <point x="553" y="257" type="curve" smooth="yes"/>
      <point x="625" y="257"/>
      <point x="670" y="207"/>
    </contour>
    <contour>
      <point x="359" y="150" type="curve" smooth="yes"/>
      <point x="359" y="91"/>
      <point x="308" y="42"/>
      <point x="235" y="42" type="curve" smooth="yes"/>
      <point x="165" y="42"/>
      <point x="120" y="92"/>
      <point x="120" y="150" type="curve" smooth="yes"/>
      <point x="120" y="207"/>
      <point x="166" y="257"/>
      <point x="235" y="257" type="curve" smooth="yes"/>
      <point x="310" y="257"/>
      <point x="359" y="207"/>
    </contour>
  </outline>
</glyph>
<glyph name="he-kannada" format="1">
  <advance width="780"/>
  <outline>
    <contour>
      <point x="567" y="508" type="curve" smooth="yes"/>
      <point x="567" y="553"/>
      <point x="595" y="589"/>
      <point x="638" y="589" type="curve" smooth="yes"/>
      <point x="674" y="589"/>
      <point x="701" y="566"/>
      <point x="701" y="532" type="curve" smooth="yes"/>
      <point x="701" y="487"/>
      <point x="663" y="456"/>
      <point x="574" y="456" type="curve"/>
      <point x="571" y="470"/>
      <point x="567" y="489"/>
    </contour>
    <contour>
      <point x="418" y="410" type="line"/>
      <point x="573" y="410" type="line" smooth="yes"/>
      <point x="714" y="410"/>
      <point x="747" y="471"/>
      <point x="747" y="532" type="curve" smooth="yes"/>
      <point x="747" y="590"/>
      <point x="704" y="635"/>
      <point x="638" y="635" type="curve" smooth="yes"/>
      <point x="571" y="635"/>
      <point x="521" y="583"/>
      <point x="521" y="508" type="curve" smooth="yes"/>
      <point x="521" y="490"/>
      <point x="524" y="471"/>
      <point x="527" y="456" type="curve"/>
      <point x="114" y="456" type="line" smooth="yes"/>
      <point x="102" y="456"/>
      <point x="91" y="445"/>
      <point x="91" y="433" type="curve" smooth="yes"/>
      <point x="91" y="421"/>
      <point x="102" y="410"/>
      <point x="114" y="410" type="curve" smooth="yes"/>
      <point x="372" y="410" type="line"/>
      <point x="372" y="240" type="line"/>
      <point x="343" y="276"/>
      <point x="296" y="303"/>
      <point x="235" y="303" type="curve" smooth="yes"/>
      <point x="136" y="303"/>
      <point x="74" y="229"/>
      <point x="74" y="150" type="curve" smooth="yes"/>
      <point x="74" y="68"/>
      <point x="135" y="-4"/>
      <point x="235" y="-4" type="curve" smooth="yes"/>
      <point x="316" y="-4"/>
      <point x="374" y="40"/>
      <point x="395" y="98" type="curve"/>
      <point x="417" y="40"/>
      <point x="476" y="-4"/>
      <point x="553" y="-4" type="curve" smooth="yes"/>
      <point x="658" y="-4"/>
      <point x="716" y="69"/>
      <point x="716" y="150" type="curve" smooth="yes"/>
      <point x="716" y="229"/>
      <point x="657" y="303"/>
      <point x="553" y="303" type="curve" smooth="yes"/>
      <point x="494" y="303"/>
      <point x="447" y="275"/>
      <point x="418" y="239" type="curve"/>
    </contour>
    <contour>
      <point x="670" y="150" type="curve" smooth="yes"/>
      <point x="670" y="92"/>
      <point x="626" y="42"/>
      <point x="553" y="42" type="curve" smooth="yes"/>
      <point x="483" y="42"/>
      <point x="431" y="91"/>
      <point x="431" y="150" type="curve" smooth="yes"/>
      <point x="431" y="207"/>
      <point x="482" y="257"/>
      <point x="553" y="257" type="curve" smooth="yes"/>
      <point x="625" y="257"/>
      <point x="670" y="207"/>
    </contour>
    <contour>
      <point x="359" y="150" type="curve" smooth="yes"/>
      <point x="359" y="91"/>
      <point x="308" y="42"/>
      <point x="235" y="42" type="curve" smooth="yes"/>
      <point x="165" y="42"/>
      <point x="120" y="92"/>
      <point x="120" y="150" type="curve" smooth="yes"/>
      <point x="120" y="207"/>
      <point x="166" y="257"/>
      <point x="235" y="257" type="curve" smooth="yes"/>
      <point x="310" y="257"/>
      <point x="359" y="207"/>
    </contour>
  </outline>
</glyph>
<glyph name="i-kannada" format="1">
  <advance width="709"/>
  <outline>
    <contour>
      <point x="571" y="-46" type="curve" smooth="yes"/>
      <point x="585" y="-46"/>
      <point x="594" y="-34"/>
      <point x="594" y="-23" type="curve" smooth="yes"/>
      <point x="594" y="-19"/>
      <point x="590" y="-6"/>
      <point x="583" y="12" type="curve" smooth="yes"/>
      <point x="570" y="45"/>
      <point x="555" y="74"/>
      <point x="537" y="100" type="curve"/>
      <point x="605" y="162"/>
      <point x="647" y="246"/>
      <point x="647" y="312" type="curve" smooth="yes"/>
      <point x="647" y="407"/>
      <point x="589" y="462"/>
      <point x="508" y="462" type="curve" smooth="yes"/>
      <point x="442" y="462"/>
      <point x="397" y="426"/>
      <point x="358" y="366" type="curve"/>
      <point x="318" y="425"/>
      <point x="268" y="463"/>
      <point x="199" y="463" type="curve" smooth="yes"/>
      <point x="116" y="463"/>
      <point x="65" y="402"/>
      <point x="65" y="328" type="curve" smooth="yes"/>
      <point x="65" y="300"/>
      <point x="73" y="272"/>
      <point x="91" y="242" type="curve" smooth="yes"/>
      <point x="96" y="235"/>
      <point x="103" y="231"/>
      <point x="111" y="231" type="curve" smooth="yes"/>
      <point x="125" y="231"/>
      <point x="134" y="242"/>
      <point x="134" y="254" type="curve" smooth="yes"/>
      <point x="134" y="258"/>
      <point x="133" y="262"/>
      <point x="131" y="266" type="curve" smooth="yes"/>
      <point x="117" y="288"/>
      <point x="111" y="308"/>
      <point x="111" y="328" type="curve" smooth="yes"/>
      <point x="111" y="376"/>
      <point x="144" y="417"/>
      <point x="199" y="417" type="curve" smooth="yes"/>
      <point x="263" y="417"/>
      <point x="304" y="373"/>
      <point x="335" y="315" type="curve" smooth="yes"/>
      <point x="339" y="308"/>
      <point x="348" y="303"/>
      <point x="355" y="303" type="curve" smooth="yes"/>
      <point x="360" y="303" type="line" smooth="yes"/>
      <point x="367" y="303"/>
      <point x="375" y="308"/>
      <point x="379" y="315" type="curve" smooth="yes"/>
      <point x="413" y="373"/>
      <point x="448" y="416"/>
      <point x="508" y="416" type="curve" smooth="yes"/>
      <point x="565" y="416"/>
      <point x="601" y="375"/>
      <point x="601" y="312" type="curve" smooth="yes"/>
      <point x="601" y="257"/>
      <point x="566" y="187"/>
      <point x="509" y="136" type="curve"/>
      <point x="460" y="192"/>
      <point x="398" y="225"/>
      <point x="335" y="225" type="curve" smooth="yes"/>
      <point x="242" y="225"/>
      <point x="207" y="167"/>
      <point x="207" y="122" type="curve" smooth="yes"/>
      <point x="207" y="76"/>
      <point x="242" y="20"/>
      <point x="336" y="20" type="curve" smooth="yes"/>
      <point x="398" y="20"/>
      <point x="454" y="41"/>
      <point x="500" y="72" type="curve"/>
      <point x="519" y="43"/>
      <point x="536" y="9"/>
      <point x="549" y="-30" type="curve" smooth="yes"/>
      <point x="552" y="-40"/>
      <point x="562" y="-46"/>
    </contour>
    <contour>
      <point x="336" y="66" type="curve" smooth="yes"/>
      <point x="284" y="66"/>
      <point x="253" y="92"/>
      <point x="253" y="122" type="curve" smooth="yes"/>
      <point x="253" y="151"/>
      <point x="284" y="179"/>
      <point x="335" y="179" type="curve" smooth="yes"/>
      <point x="385" y="179"/>
      <point x="433" y="154"/>
      <point x="473" y="108" type="curve"/>
      <point x="434" y="83"/>
      <point x="387" y="66"/>
    </contour>
  </outline>
</glyph>
<glyph name="jha-kannada.below" format="1">
  <advance width="5"/>
  <outline>
    <contour>
      <point x="-336" y="-246" type="curve" smooth="yes"/>
      <point x="-336" y="-197"/>
      <point x="-296" y="-153"/>
      <point x="-238" y="-153" type="curve" smooth="yes"/>
      <point x="-179" y="-153"/>
      <point x="-142" y="-198"/>
      <point x="-142" y="-246" type="curve" smooth="yes"/>
      <point x="-142" y="-295"/>
      <point x="-179" y="-335"/>
      <point x="-239" y="-335" type="curve" smooth="yes"/>
      <point x="-298" y="-335"/>
      <point x="-336" y="-296"/>
    </contour>
    <contour>
      <point x="-28" y="-375" type="curve" smooth="yes"/>
      <point x="7" y="-375"/>
      <point x="33" y="-363"/>
      <point x="51" y="-342" type="curve"/>
      <point x="80" y="-364"/>
      <point x="114" y="-375"/>
      <point x="148" y="-375" type="curve" smooth="yes"/>
      <point x="214" y="-375"/>
      <point x="249" y="-333"/>
      <point x="249" y="-271" type="curve" smooth="yes"/>
      <point x="249" y="-223"/>
      <point x="228" y="-177"/>
      <point x="192" y="-133" type="curve" smooth="yes"/>
      <point x="188" y="-128"/>
      <point x="182" y="-125"/>
      <point x="176" y="-125" type="curve" smooth="yes"/>
      <point x="165" y="-125"/>
      <point x="155" y="-135"/>
      <point x="155" y="-146" type="curve" smooth="yes"/>
      <point x="155" y="-150"/>
      <point x="157" y="-155"/>
      <point x="160" y="-159" type="curve" smooth="yes"/>
      <point x="188" y="-195"/>
      <point x="207" y="-231"/>
      <point x="207" y="-271" type="curve" smooth="yes"/>
      <point x="207" y="-307"/>
      <point x="188" y="-333"/>
      <point x="148" y="-333" type="curve" smooth="yes"/>
      <point x="120" y="-333"/>
      <point x="93" y="-324"/>
      <point x="69" y="-304" type="curve"/>
      <point x="72" y="-294"/>
      <point x="73" y="-283"/>
      <point x="73" y="-271" type="curve" smooth="yes"/>
      <point x="73" y="-223"/>
      <point x="52" y="-177"/>
      <point x="16" y="-133" type="curve" smooth="yes"/>
      <point x="12" y="-128"/>
      <point x="6" y="-125"/>
      <point x="0" y="-125" type="curve" smooth="yes"/>
      <point x="-11" y="-125"/>
      <point x="-21" y="-135"/>
      <point x="-21" y="-146" type="curve" smooth="yes"/>
      <point x="-21" y="-150"/>
      <point x="-19" y="-155"/>
      <point x="-16" y="-159" type="curve" smooth="yes"/>
      <point x="12" y="-195"/>
      <point x="31" y="-231"/>
      <point x="31" y="-271" type="curve" smooth="yes"/>
      <point x="31" y="-307"/>
      <point x="11" y="-333"/>
      <point x="-28" y="-333" type="curve" smooth="yes"/>
      <point x="-57" y="-333"/>
      <point x="-86" y="-323"/>
      <point x="-111" y="-301" type="curve"/>
      <point x="-104" y="-284"/>
      <point x="-100" y="-265"/>
      <point x="-100" y="-246" type="curve" smooth="yes"/>
      <point x="-100" y="-176"/>
      <point x="-153" y="-111"/>
      <point x="-238" y="-111" type="curve" smooth="yes"/>
      <point x="-322" y="-111"/>
      <point x="-378" y="-175"/>
      <point x="-378" y="-246" type="curve" smooth="yes"/>
      <point x="-378" y="-318"/>
      <point x="-326" y="-377"/>
      <point x="-239" y="-377" type="curve" smooth="yes"/>
      <point x="-193" y="-377"/>
      <point x="-158" y="-361"/>
      <point x="-134" y="-335" type="curve"/>
      <point x="-102" y="-362"/>
      <point x="-65" y="-375"/>
    </contour>
    <contour>
      <point x="78" y="-433" type="line" smooth="yes"/>
      <point x="78" y="-422"/>
      <point x="68" y="-412"/>
      <point x="57" y="-412" type="curve" smooth="yes"/>
      <point x="46" y="-412"/>
      <point x="36" y="-422"/>
      <point x="36" y="-433" type="curve" smooth="yes"/>
      <point x="36" y="-495" type="line" smooth="yes"/>
      <point x="36" y="-506"/>
      <point x="46" y="-516"/>
      <point x="57" y="-516" type="curve" smooth="yes"/>
      <point x="68" y="-516"/>
      <point x="78" y="-506"/>
      <point x="78" y="-495" type="curve" smooth="yes"/>
    </contour>
  </outline>
</glyph>
<glyph name="jhau-kannada" format="1">
  <advance width="1557"/>
  <outline>
    <contour>
      <point x="146" y="223" type="curve" smooth="yes"/>
      <point x="146" y="322"/>
      <point x="227" y="410"/>
      <point x="333" y="410" type="curve" smooth="yes"/>
      <point x="441" y="410"/>
      <point x="516" y="320"/>
      <point x="516" y="223" type="curve" smooth="yes"/>
      <point x="516" y="121"/>
      <point x="444" y="42"/>
      <point x="331" y="42" type="curve" smooth="yes"/>
      <point x="220" y="42"/>
      <point x="146" y="119"/>
    </contour>
    <contour>
      <point x="1354" y="247" type="curve" smooth="yes"/>
      <point x="1315" y="247"/>
      <point x="1288" y="274"/>
      <point x="1288" y="308" type="curve" smooth="yes"/>
      <point x="1288" y="351"/>
      <point x="1318" y="385"/>
      <point x="1375" y="385" type="curve" smooth="yes"/>
      <point x="1398" y="385"/>
      <point x="1421" y="380"/>
      <point x="1441" y="374" type="curve"/>
      <point x="1441" y="367"/>
      <point x="1441" y="367"/>
      <point x="1441" y="367" type="curve"/>
      <point x="1441" y="297"/>
      <point x="1407" y="247"/>
    </contour>
    <contour>
      <point x="865" y="-93" type="line" smooth="yes"/>
      <point x="865" y="-81"/>
      <point x="854" y="-70"/>
      <point x="842" y="-70" type="curve" smooth="yes"/>
      <point x="830" y="-70"/>
      <point x="819" y="-81"/>
      <point x="819" y="-93" type="curve" smooth="yes"/>
      <point x="819" y="-196" type="line" smooth="yes"/>
      <point x="819" y="-208"/>
      <point x="830" y="-219"/>
      <point x="842" y="-219" type="curve" smooth="yes"/>
      <point x="854" y="-219"/>
      <point x="865" y="-208"/>
      <point x="865" y="-196" type="curve" smooth="yes"/>
    </contour>
    <contour>
      <point x="866" y="169" type="curve" smooth="yes"/>
      <point x="866" y="258"/>
      <point x="814" y="363"/>
      <point x="754" y="427" type="curve" smooth="yes"/>
      <point x="749" y="432"/>
      <point x="744" y="435"/>
      <point x="737" y="435" type="curve" smooth="yes"/>
      <point x="725" y="435"/>
      <point x="714" y="425"/>
      <point x="714" y="412" type="curve" smooth="yes"/>
      <point x="714" y="407"/>
      <point x="716" y="401"/>
      <point x="720" y="397" type="curve" smooth="yes"/>
      <point x="775" y="337"/>
      <point x="820" y="245"/>
      <point x="820" y="169" type="curve" smooth="yes"/>
      <point x="820" y="97"/>
      <point x="782" y="46"/>
      <point x="704" y="46" type="curve" smooth="yes"/>
      <point x="652" y="46"/>
      <point x="600" y="77"/>
      <point x="549" y="144" type="curve"/>
      <point x="558" y="168"/>
      <point x="562" y="195"/>
      <point x="562" y="223" type="curve" smooth="yes"/>
      <point x="562" y="297"/>
      <point x="527" y="367"/>
      <point x="469" y="410" type="curve"/>
      <point x="542" y="414"/>
      <point x="586" y="444"/>
      <point x="620" y="499" type="curve" smooth="yes"/>
      <point x="622" y="503"/>
      <point x="623" y="507"/>
      <point x="623" y="511" type="curve" smooth="yes"/>
      <point x="623" y="523"/>
      <point x="613" y="534"/>
      <point x="600" y="534" type="curve" smooth="yes"/>
      <point x="592" y="534"/>
      <point x="585" y="530"/>
      <point x="580" y="523" type="curve" smooth="yes"/>
      <point x="552" y="478"/>
      <point x="515" y="456"/>
      <point x="452" y="456" type="curve" smooth="yes"/>
      <point x="94" y="456" type="line" smooth="yes"/>
      <point x="82" y="456"/>
      <point x="71" y="445"/>
      <point x="71" y="433" type="curve" smooth="yes"/>
      <point x="71" y="421"/>
      <point x="82" y="410"/>
      <point x="94" y="410" type="curve" smooth="yes"/>
      <point x="195" y="410" type="line"/>
      <point x="137" y="367"/>
      <point x="100" y="297"/>
      <point x="100" y="223" type="curve" smooth="yes"/>
      <point x="100" y="93"/>
      <point x="192" y="-4"/>
      <point x="331" y="-4" type="curve" smooth="yes"/>
      <point x="420" y="-4"/>
      <point x="489" y="36"/>
      <point x="528" y="97" type="curve"/>
      <point x="585" y="28"/>
      <point x="645" y="0"/>
      <point x="704" y="0" type="curve" smooth="yes"/>
      <point x="777" y="0"/>
      <point x="826" y="33"/>
      <point x="850" y="85" type="curve"/>
      <point x="905" y="22"/>
      <point x="957" y="0"/>
      <point x="1015" y="0" type="curve" smooth="yes"/>
      <point x="1121" y="0"/>
      <point x="1177" y="69"/>
      <point x="1177" y="169" type="curve" smooth="yes"/>
      <point x="1177" y="250"/>
      <point x="1134" y="346"/>
      <point x="1076" y="415" type="curve"/>
      <point x="1154" y="431"/>
      <point x="1202" y="486"/>
      <point x="1207" y="581" type="curve"/>
      <point x="1213" y="581" type="line" smooth="yes"/>
      <point x="1327" y="581"/>
      <point x="1414" y="532"/>
      <point x="1436" y="424" type="curve"/>
      <point x="1416" y="428"/>
      <point x="1395" y="431"/>
      <point x="1375" y="431" type="curve" smooth="yes"/>
      <point x="1284" y="431"/>
      <point x="1242" y="373"/>
      <point x="1242" y="308" type="curve" smooth="yes"/>
      <point x="1242" y="250"/>
      <point x="1285" y="201"/>
      <point x="1354" y="201" type="curve" smooth="yes"/>
      <point x="1427" y="201"/>
      <point x="1487" y="259"/>
      <point x="1487" y="367" type="curve" smooth="yes"/>
      <point x="1487" y="545"/>
      <point x="1373" y="627"/>
      <point x="1213" y="627" type="curve" smooth="yes"/>
      <point x="989" y="627" type="line" smooth="yes"/>
      <point x="977" y="627"/>
      <point x="966" y="616"/>
      <point x="966" y="604" type="curve" smooth="yes"/>
      <point x="966" y="592"/>
      <point x="977" y="581"/>
      <point x="989" y="581" type="curve" smooth="yes"/>
      <point x="1161" y="581" type="line"/>
      <point x="1155" y="499"/>
      <point x="1104" y="456"/>
      <point x="1025" y="456" type="curve" smooth="yes"/>
      <point x="964" y="456" type="line" smooth="yes"/>
      <point x="952" y="456"/>
      <point x="941" y="445"/>
      <point x="941" y="433" type="curve" smooth="yes"/>
      <point x="941" y="421"/>
      <point x="952" y="410"/>
      <point x="964" y="410" type="curve" smooth="yes"/>
      <point x="1017" y="410" type="line"/>
      <point x="1023" y="404"/>
      <point x="1029" y="399"/>
      <point x="1031" y="397" type="curve" smooth="yes"/>
      <point x="1087" y="335"/>
      <point x="1131" y="245"/>
      <point x="1131" y="169" type="curve" smooth="yes"/>
      <point x="1131" y="97"/>
      <point x="1093" y="46"/>
      <point x="1015" y="46" type="curve" smooth="yes"/>
      <point x="961" y="46"/>
      <point x="916" y="72"/>
      <point x="864" y="139" type="curve"/>
      <point x="865" y="149"/>
      <point x="866" y="159"/>
    </contour>
  </outline>
</glyph>
<glyph name="jhu-kannada" format="1">
  <advance width="1560"/>
  <outline>
    <contour>
      <point x="146" y="223" type="curve" smooth="yes"/>
      <point x="146" y="322"/>
      <point x="227" y="410"/>
      <point x="333" y="410" type="curve" smooth="yes"/>
      <point x="441" y="410"/>
      <point x="516" y="320"/>
      <point x="516" y="223" type="curve" smooth="yes"/>
      <point x="516" y="121"/>
      <point x="444" y="42"/>
      <point x="331" y="42" type="curve" smooth="yes"/>
      <point x="220" y="42"/>
      <point x="146" y="119"/>
    </contour>
    <contour>
      <point x="865" y="-93" type="line" smooth="yes"/>
      <point x="865" y="-81"/>
      <point x="854" y="-70"/>
      <point x="842" y="-70" type="curve" smooth="yes"/>
      <point x="830" y="-70"/>
      <point x="819" y="-81"/>
      <point x="819" y="-93" type="curve" smooth="yes"/>
      <point x="819" y="-196" type="line" smooth="yes"/>
      <point x="819" y="-208"/>
      <point x="830" y="-219"/>
      <point x="842" y="-219" type="curve" smooth="yes"/>
      <point x="854" y="-219"/>
      <point x="865" y="-208"/>
      <point x="865" y="-196" type="curve" smooth="yes"/>
    </contour>
    <contour>
      <point x="820" y="169" type="curve" smooth="yes"/>
      <point x="820" y="97"/>
      <point x="782" y="46"/>
      <point x="704" y="46" type="curve" smooth="yes"/>
      <point x="652" y="46"/>
      <point x="600" y="77"/>
      <point x="549" y="144" type="curve"/>
      <point x="558" y="168"/>
      <point x="562" y="195"/>
      <point x="562" y="223" type="curve" smooth="yes"/>
      <point x="562" y="297"/>
      <point x="527" y="367"/>
      <point x="469" y="410" type="curve"/>
      <point x="542" y="414"/>
      <point x="586" y="444"/>
      <point x="620" y="499" type="curve" smooth="yes"/>
      <point x="622" y="503"/>
      <point x="623" y="507"/>
      <point x="623" y="511" type="curve" smooth="yes"/>
      <point x="623" y="524"/>
      <point x="614" y="534"/>
      <point x="600" y="534" type="curve" smooth="yes"/>
      <point x="592" y="534"/>
      <point x="585" y="530"/>
      <point x="580" y="523" type="curve" smooth="yes"/>
      <point x="552" y="478"/>
      <point x="515" y="456"/>
      <point x="452" y="456" type="curve" smooth="yes"/>
      <point x="94" y="456" type="line" smooth="yes"/>
      <point x="82" y="456"/>
      <point x="71" y="445"/>
      <point x="71" y="433" type="curve" smooth="yes"/>
      <point x="71" y="421"/>
      <point x="82" y="410"/>
      <point x="94" y="410" type="curve" smooth="yes"/>
      <point x="195" y="410" type="line"/>
      <point x="137" y="367"/>
      <point x="100" y="297"/>
      <point x="100" y="223" type="curve" smooth="yes"/>
      <point x="100" y="93"/>
      <point x="192" y="-4"/>
      <point x="331" y="-4" type="curve" smooth="yes"/>
      <point x="420" y="-4"/>
      <point x="489" y="36"/>
      <point x="528" y="97" type="curve"/>
      <point x="585" y="28"/>
      <point x="645" y="0"/>
      <point x="704" y="0" type="curve" smooth="yes"/>
      <point x="777" y="0"/>
      <point x="826" y="33"/>
      <point x="850" y="85" type="curve"/>
      <point x="905" y="22"/>
      <point x="957" y="0"/>
      <point x="1015" y="0" type="curve" smooth="yes"/>
      <point x="1091" y="0"/>
      <point x="1141" y="35"/>
      <point x="1163" y="92" type="curve"/>
      <point x="1212" y="27"/>
      <point x="1265" y="0"/>
      <point x="1331" y="0" type="curve" smooth="yes"/>
      <point x="1437" y="0"/>
      <point x="1493" y="69"/>
      <point x="1493" y="169" type="curve" smooth="yes"/>
      <point x="1493" y="255"/>
      <point x="1445" y="357"/>
      <point x="1381" y="427" type="curve" smooth="yes"/>
      <point x="1377" y="432"/>
      <point x="1371" y="435"/>
      <point x="1364" y="435" type="curve" smooth="yes"/>
      <point x="1351" y="435"/>
      <point x="1341" y="425"/>
      <point x="1341" y="412" type="curve" smooth="yes"/>
      <point x="1341" y="407"/>
      <point x="1343" y="401"/>
      <point x="1347" y="397" type="curve" smooth="yes"/>
      <point x="1403" y="335"/>
      <point x="1447" y="245"/>
      <point x="1447" y="169" type="curve" smooth="yes"/>
      <point x="1447" y="97"/>
      <point x="1409" y="46"/>
      <point x="1331" y="46" type="curve" smooth="yes"/>
      <point x="1268" y="46"/>
      <point x="1231" y="73"/>
      <point x="1181" y="148" type="curve" smooth="yes"/>
      <point x="1177" y="154" type="line"/>
      <point x="1177" y="159"/>
      <point x="1177" y="164"/>
      <point x="1177" y="169" type="curve" smooth="yes"/>
      <point x="1177" y="255"/>
      <point x="1129" y="357"/>
      <point x="1065" y="427" type="curve" smooth="yes"/>
      <point x="1061" y="432"/>
      <point x="1055" y="435"/>
      <point x="1048" y="435" type="curve" smooth="yes"/>
      <point x="1035" y="435"/>
      <point x="1025" y="425"/>
      <point x="1025" y="412" type="curve" smooth="yes"/>
      <point x="1025" y="407"/>
      <point x="1027" y="401"/>
      <point x="1031" y="397" type="curve" smooth="yes"/>
      <point x="1087" y="335"/>
      <point x="1131" y="245"/>
      <point x="1131" y="169" type="curve" smooth="yes"/>
      <point x="1131" y="97"/>
      <point x="1093" y="46"/>
      <point x="1015" y="46" type="curve" smooth="yes"/>
      <point x="961" y="46"/>
      <point x="916" y="72"/>
      <point x="864" y="139" type="curve"/>
      <point x="865" y="149"/>
      <point x="866" y="159"/>
      <point x="866" y="169" type="curve" smooth="yes"/>
      <point x="866" y="258"/>
      <point x="814" y="363"/>
      <point x="754" y="427" type="curve" smooth="yes"/>
      <point x="749" y="432"/>
      <point x="744" y="435"/>
      <point x="737" y="435" type="curve" smooth="yes"/>
      <point x="725" y="435"/>
      <point x="714" y="425"/>
      <point x="714" y="412" type="curve" smooth="yes"/>
      <point x="714" y="407"/>
      <point x="716" y="401"/>
      <point x="720" y="397" type="curve" smooth="yes"/>
      <point x="775" y="337"/>
      <point x="820" y="245"/>
    </contour>
  </outline>
</glyph>
<glyph name="ka-kannada.below.following" format="1">
  <advance width="481"/>
  <outline>
    <contour>
      <point x="403" y="-357" type="curve" smooth="yes"/>
      <point x="508" y="-357"/>
      <point x="538" y="-298"/>
      <point x="538" y="-248" type="curve" smooth="yes"/>
      <point x="538" y="-223"/>
      <point x="529" y="-199"/>
      <point x="512" y="-180" type="curve"/>
      <point x="578" y="-180" type="line" smooth="yes"/>
      <point x="589" y="-180"/>
      <point x="599" y="-170"/>
      <point x="599" y="-159" type="curve" smooth="yes"/>
      <point x="599" y="-148"/>
      <point x="589" y="-138"/>
      <point x="578" y="-138" type="curve" smooth="yes"/>
      <point x="427" y="-138" type="line"/>
      <point x="448" y="-100"/>
      <point x="455" y="-69"/>
      <point x="455" y="-30" type="curve" smooth="yes"/>
      <point x="455" y="-5"/>
      <point x="450" y="24"/>
      <point x="441" y="51" type="curve" smooth="yes"/>
      <point x="438" y="59"/>
      <point x="429" y="65"/>
      <point x="421" y="65" type="curve" smooth="yes"/>
      <point x="407" y="65"/>
      <point x="400" y="54"/>
      <point x="400" y="44" type="curve" smooth="yes"/>
      <point x="400" y="34"/>
      <point x="413" y="11"/>
      <point x="413" y="-30" type="curve" smooth="yes"/>
      <point x="413" y="-69"/>
      <point x="404" y="-96"/>
      <point x="378" y="-138" type="curve"/>
      <point x="228" y="-138" type="line" smooth="yes"/>
      <point x="217" y="-138"/>
      <point x="207" y="-148"/>
      <point x="207" y="-159" type="curve" smooth="yes"/>
      <point x="207" y="-170"/>
      <point x="217" y="-180"/>
      <point x="228" y="-180" type="curve" smooth="yes"/>
      <point x="294" y="-180" type="line"/>
      <point x="277" y="-199"/>
      <point x="268" y="-223"/>
      <point x="268" y="-248" type="curve" smooth="yes"/>
      <point x="268" y="-298"/>
      <point x="299" y="-357"/>
    </contour>
    <contour>
      <point x="403" y="-315" type="curve" smooth="yes"/>
      <point x="339" y="-315"/>
      <point x="310" y="-282"/>
      <point x="310" y="-248" type="curve" smooth="yes"/>
      <point x="310" y="-214"/>
      <point x="339" y="-186"/>
      <point x="382" y="-180" type="curve"/>
      <point x="426" y="-180" type="line"/>
      <point x="468" y="-186"/>
      <point x="496" y="-214"/>
      <point x="496" y="-248" type="curve" smooth="yes"/>
      <point x="496" y="-282"/>
      <point x="468" y="-315"/>
    </contour>
  </outline>
</glyph>
<glyph name="ka_ssa-kannada.below.following" format="1">
  <advance width="546"/>
  <outline>
    <contour>
      <point x="470" y="-373" type="curve" smooth="yes"/>
      <point x="573" y="-373"/>
      <point x="605" y="-309"/>
      <point x="605" y="-255" type="curve" smooth="yes"/>
      <point x="605" y="-226"/>
      <point x="595" y="-200"/>
      <point x="577" y="-179" type="curve"/>
      <point x="645" y="-179" type="line" smooth="yes"/>
      <point x="656" y="-179"/>
      <point x="666" y="-169"/>
      <point x="666" y="-158" type="curve" smooth="yes"/>
      <point x="666" y="-147"/>
      <point x="656" y="-137"/>
      <point x="645" y="-137" type="curve" smooth="yes"/>
      <point x="493" y="-137" type="line"/>
      <point x="515" y="-96"/>
      <point x="522" y="-62"/>
      <point x="522" y="-24" type="curve" smooth="yes"/>
      <point x="522" y="-1"/>
      <point x="517" y="24"/>
      <point x="508" y="51" type="curve" smooth="yes"/>
      <point x="505" y="59"/>
      <point x="498" y="65"/>
      <point x="488" y="65" type="curve" smooth="yes"/>
      <point x="477" y="65"/>
      <point x="467" y="54"/>
      <point x="467" y="44" type="curve" smooth="yes"/>
      <point x="467" y="41"/>
      <point x="469" y="34"/>
      <point x="471" y="28" type="curve" smooth="yes"/>
      <point x="477" y="9"/>
      <point x="480" y="-6"/>
      <point x="480" y="-24" type="curve" smooth="yes"/>
      <point x="480" y="-61"/>
      <point x="471" y="-93"/>
      <point x="445" y="-137" type="curve"/>
      <point x="295" y="-137" type="line" smooth="yes"/>
      <point x="284" y="-137"/>
      <point x="274" y="-147"/>
      <point x="274" y="-158" type="curve" smooth="yes"/>
      <point x="274" y="-169"/>
      <point x="284" y="-179"/>
      <point x="295" y="-179" type="curve" smooth="yes"/>
      <point x="363" y="-179" type="line"/>
      <point x="345" y="-200"/>
      <point x="335" y="-226"/>
      <point x="335" y="-255" type="curve" smooth="yes"/>
      <point x="335" y="-311"/>
      <point x="368" y="-373"/>
    </contour>
    <contour>
      <point x="470" y="-331" type="curve" smooth="yes"/>
      <point x="404" y="-331"/>
      <point x="377" y="-293"/>
      <point x="377" y="-255" type="curve" smooth="yes"/>
      <point x="377.0" y="-211.470588235"/>
      <point x="413" y="-183"/>
      <point x="455" y="-179" type="curve"/>
      <point x="486" y="-179" type="line"/>
      <point x="536" y="-188"/>
      <point x="563" y="-218"/>
      <point x="563" y="-255" type="curve" smooth="yes"/>
      <point x="563" y="-293"/>
      <point x="537" y="-331"/>
    </contour>
    <contour>
      <point x="763" y="-580" type="curve" smooth="yes"/>
      <point x="774" y="-580"/>
      <point x="784" y="-570"/>
      <point x="784" y="-559" type="curve" smooth="yes"/>
      <point x="784" y="-556"/>
      <point x="783" y="-553"/>
      <point x="779" y="-544" type="curve" smooth="yes"/>
      <point x="699" y="-362" type="line" smooth="yes"/>
      <point x="692" y="-346"/>
      <point x="683" y="-340"/>
      <point x="673" y="-340" type="curve" smooth="yes"/>
      <point x="660" y="-340"/>
      <point x="652" y="-351"/>
      <point x="652" y="-361" type="curve" smooth="yes"/>
      <point x="652" y="-365"/>
      <point x="653" y="-369"/>
      <point x="655" y="-372" type="curve" smooth="yes"/>
      <point x="670" y="-395"/>
      <point x="677" y="-412"/>
      <point x="677" y="-437" type="curve" smooth="yes"/>
      <point x="677" y="-475"/>
      <point x="642" y="-500"/>
      <point x="601" y="-500" type="curve" smooth="yes"/>
      <point x="556" y="-500"/>
      <point x="517" y="-475"/>
      <point x="485" y="-431" type="curve" smooth="yes"/>
      <point x="481" y="-425"/>
      <point x="474" y="-422"/>
      <point x="468" y="-422" type="curve" smooth="yes"/>
      <point x="468" y="-422"/>
      <point x="465" y="-422"/>
      <point x="465" y="-422" type="curve" smooth="yes"/>
      <point x="459" y="-422"/>
      <point x="452" y="-425"/>
      <point x="448" y="-430" type="curve" smooth="yes"/>
      <point x="413" y="-475"/>
      <point x="375" y="-502"/>
      <point x="323" y="-502" type="curve" smooth="yes"/>
      <point x="285" y="-502"/>
      <point x="256" y="-477"/>
      <point x="256" y="-443" type="curve" smooth="yes"/>
      <point x="256" y="-419"/>
      <point x="263" y="-401"/>
      <point x="277" y="-385" type="curve" smooth="yes"/>
      <point x="280" y="-381"/>
      <point x="282" y="-376"/>
      <point x="282" y="-371" type="curve" smooth="yes"/>
      <point x="282" y="-360"/>
      <point x="272" y="-350"/>
      <point x="261" y="-350" type="curve" smooth="yes"/>
      <point x="255" y="-350"/>
      <point x="249" y="-353"/>
      <point x="245" y="-357" type="curve" smooth="yes"/>
      <point x="225" y="-381"/>
      <point x="214" y="-407"/>
      <point x="214" y="-443" type="curve" smooth="yes"/>
      <point x="214" y="-498"/>
      <point x="259" y="-544"/>
      <point x="323" y="-544" type="curve" smooth="yes"/>
      <point x="380" y="-544"/>
      <point x="425" y="-520"/>
      <point x="466" y="-475" type="curve"/>
      <point x="504" y="-520"/>
      <point x="551" y="-542"/>
      <point x="601" y="-542" type="curve" smooth="yes"/>
      <point x="650" y="-542"/>
      <point x="689" y="-518"/>
      <point x="707" y="-484" type="curve"/>
      <point x="744" y="-567" type="line" smooth="yes"/>
      <point x="747" y="-575"/>
      <point x="755" y="-580"/>
    </contour>
  </outline>
</glyph>
<glyph name="khu-kannada" format="1">
  <advance width="1084"/>
  <outline>
    <contour>
      <point x="193" y="311" type="curve" smooth="yes"/>
      <point x="161" y="311"/>
      <point x="134" y="334"/>
      <point x="134" y="365" type="curve" smooth="yes"/>
      <point x="134" y="395"/>
      <point x="161" y="424"/>
      <point x="208" y="424" type="curve" smooth="yes"/>
      <point x="225" y="424"/>
      <point x="241" y="422"/>
      <point x="256" y="419" type="curve"/>
      <point x="260" y="407"/>
      <point x="265" y="391"/>
      <point x="265" y="373" type="curve" smooth="yes"/>
      <point x="265" y="335"/>
      <point x="235" y="311"/>
    </contour>
    <contour>
      <point x="208" y="42" type="curve" smooth="yes"/>
      <point x="153" y="42"/>
      <point x="123" y="67"/>
      <point x="123" y="97" type="curve" smooth="yes"/>
      <point x="123" y="124"/>
      <point x="153" y="152"/>
      <point x="197" y="152" type="curve" smooth="yes"/>
      <point x="247" y="152"/>
      <point x="295" y="130"/>
      <point x="339" y="98" type="curve"/>
      <point x="307" y="65"/>
      <point x="263" y="42"/>
    </contour>
    <contour>
      <point x="556" y="0" type="curve" smooth="yes"/>
      <point x="615" y="0"/>
      <point x="666" y="28"/>
      <point x="691" y="87" type="curve"/>
      <point x="739" y="25"/>
      <point x="790" y="0"/>
      <point x="855" y="0" type="curve" smooth="yes"/>
      <point x="961" y="0"/>
      <point x="1017" y="69"/>
      <point x="1017" y="169" type="curve" smooth="yes"/>
      <point x="1017" y="255"/>
      <point x="969" y="357"/>
      <point x="905" y="427" type="curve" smooth="yes"/>
      <point x="901" y="432"/>
      <point x="895" y="435"/>
      <point x="888" y="435" type="curve" smooth="yes"/>
      <point x="875" y="435"/>
      <point x="865" y="425"/>
      <point x="865" y="412" type="curve" smooth="yes"/>
      <point x="865" y="407"/>
      <point x="867" y="401"/>
      <point x="871" y="397" type="curve" smooth="yes"/>
      <point x="927" y="335"/>
      <point x="971" y="245"/>
      <point x="971" y="169" type="curve" smooth="yes"/>
      <point x="971" y="97"/>
      <point x="933" y="46"/>
      <point x="855" y="46" type="curve" smooth="yes"/>
      <point x="793" y="46"/>
      <point x="749" y="77"/>
      <point x="706" y="147" type="curve"/>
      <point x="707" y="156"/>
      <point x="707" y="165"/>
      <point x="707" y="175" type="curve" smooth="yes"/>
      <point x="707" y="281"/>
      <point x="654" y="379"/>
      <point x="584" y="449" type="curve" smooth="yes"/>
      <point x="580" y="453"/>
      <point x="574" y="456"/>
      <point x="568" y="456" type="curve" smooth="yes"/>
      <point x="556" y="456"/>
      <point x="545" y="446"/>
      <point x="545" y="433" type="curve" smooth="yes"/>
      <point x="545" y="427"/>
      <point x="548" y="421"/>
      <point x="552" y="417" type="curve" smooth="yes"/>
      <point x="613" y="357"/>
      <point x="661" y="269"/>
      <point x="661" y="175" type="curve" smooth="yes"/>
      <point x="661" y="92"/>
      <point x="617" y="46"/>
      <point x="556" y="46" type="curve" smooth="yes"/>
      <point x="500" y="46"/>
      <point x="454" y="65"/>
      <point x="403" y="107" type="curve"/>
      <point x="428" y="148"/>
      <point x="442" y="195"/>
      <point x="442" y="238" type="curve" smooth="yes"/>
      <point x="442" y="366"/>
      <point x="347" y="470"/>
      <point x="208" y="470" type="curve" smooth="yes"/>
      <point x="123" y="470"/>
      <point x="88" y="413"/>
      <point x="88" y="365" type="curve" smooth="yes"/>
      <point x="88" y="310"/>
      <point x="133" y="265"/>
      <point x="193" y="265" type="curve" smooth="yes"/>
      <point x="267" y="265"/>
      <point x="311" y="311"/>
      <point x="311" y="373" type="curve" smooth="yes"/>
      <point x="311" y="381"/>
      <point x="310" y="389"/>
      <point x="309" y="397" type="curve"/>
      <point x="363" y="364"/>
      <point x="396" y="305"/>
      <point x="396" y="238" type="curve" smooth="yes"/>
      <point x="396" y="205"/>
      <point x="386" y="168"/>
      <point x="366" y="135" type="curve"/>
      <point x="314" y="173"/>
      <point x="256" y="198"/>
      <point x="197" y="198" type="curve" smooth="yes"/>
      <point x="115" y="198"/>
      <point x="77" y="140"/>
      <point x="77" y="97" type="curve" smooth="yes"/>
      <point x="77" y="51"/>
      <point x="107" y="-4"/>
      <point x="208" y="-4" type="curve" smooth="yes"/>
      <point x="278" y="-4"/>
      <point x="335" y="26"/>
      <point x="374" y="70" type="curve"/>
      <point x="435" y="21"/>
      <point x="491" y="0"/>
    </contour>
  </outline>
</glyph>
<glyph name="knRRU" format="1">
  <advance width="1065"/>
  <outline>
    <contour>
      <point x="836" y="0" type="curve" smooth="yes"/>
      <point x="942" y="0"/>
      <point x="998" y="69"/>
      <point x="998" y="169" type="curve" smooth="yes"/>
      <point x="998" y="255"/>
      <point x="950" y="357"/>
      <point x="886" y="427" type="curve" smooth="yes"/>
      <point x="882" y="432"/>
      <point x="876" y="435"/>
      <point x="869" y="435" type="curve" smooth="yes"/>
      <point x="856" y="435"/>
      <point x="846" y="425"/>
      <point x="846" y="412" type="curve" smooth="yes"/>
      <point x="846" y="407"/>
      <point x="848" y="401"/>
      <point x="852" y="397" type="curve" smooth="yes"/>
      <point x="908" y="335"/>
      <point x="952" y="245"/>
      <point x="952" y="169" type="curve" smooth="yes"/>
      <point x="952" y="97"/>
      <point x="914" y="46"/>
      <point x="836" y="46" type="curve" smooth="yes"/>
      <point x="775" y="46"/>
      <point x="732" y="76"/>
      <point x="690" y="143" type="curve"/>
      <point x="696" y="168"/>
      <point x="700" y="195"/>
      <point x="700" y="225" type="curve" smooth="yes"/>
      <point x="700" y="370"/>
      <point x="624" y="458"/>
      <point x="547" y="458" type="curve" smooth="yes"/>
      <point x="477" y="458"/>
      <point x="436" y="413"/>
      <point x="436" y="351" type="curve" smooth="yes"/>
      <point x="436" y="328"/>
      <point x="443" y="308"/>
      <point x="454" y="292" type="curve"/>
      <point x="317" y="292" type="line"/>
      <point x="328" y="308"/>
      <point x="335" y="328"/>
      <point x="335" y="351" type="curve" smooth="yes"/>
      <point x="335" y="413"/>
      <point x="294" y="458"/>
      <point x="224" y="458" type="curve" smooth="yes"/>
      <point x="147" y="458"/>
      <point x="71" y="370"/>
      <point x="71" y="225" type="curve" smooth="yes"/>
      <point x="71" y="91"/>
      <point x="146" y="0"/>
      <point x="241" y="0" type="curve" smooth="yes"/>
      <point x="304" y="0"/>
      <point x="348" y="25"/>
      <point x="385" y="83" type="curve"/>
      <point x="423" y="25"/>
      <point x="467" y="0"/>
      <point x="530" y="0" type="curve" smooth="yes"/>
      <point x="588" y="0"/>
      <point x="639" y="34"/>
      <point x="669" y="91" type="curve"/>
      <point x="718" y="26"/>
      <point x="770" y="0"/>
    </contour>
    <contour>
      <point x="547" y="292" type="curve" smooth="yes"/>
      <point x="512" y="292"/>
      <point x="482" y="314"/>
      <point x="482" y="351" type="curve" smooth="yes"/>
      <point x="482" y="387"/>
      <point x="507" y="412"/>
      <point x="547" y="412" type="curve" smooth="yes"/>
      <point x="582" y="412"/>
      <point x="613" y="383"/>
      <point x="632" y="339" type="curve"/>
      <point x="610" y="312"/>
      <point x="582" y="292"/>
    </contour>
    <contour>
      <point x="224" y="292" type="curve" smooth="yes"/>
      <point x="190" y="292"/>
      <point x="162" y="311"/>
      <point x="139" y="339" type="curve"/>
      <point x="158" y="383"/>
      <point x="189" y="412"/>
      <point x="224" y="412" type="curve" smooth="yes"/>
      <point x="264" y="412"/>
      <point x="289" y="387"/>
      <point x="289" y="351" type="curve" smooth="yes"/>
      <point x="289" y="314"/>
      <point x="259" y="292"/>
    </contour>
    <contour>
      <point x="530" y="46" type="curve" smooth="yes"/>
      <point x="473" y="46"/>
      <point x="439" y="76"/>
      <point x="408" y="135" type="curve" smooth="yes"/>
      <point x="404" y="142"/>
      <point x="396" y="147"/>
      <point x="388" y="147" type="curve" smooth="yes"/>
      <point x="383" y="147" type="line" smooth="yes"/>
      <point x="375" y="147"/>
      <point x="367" y="142"/>
      <point x="363" y="135" type="curve" smooth="yes"/>
      <point x="332" y="76"/>
      <point x="298" y="46"/>
      <point x="241" y="46" type="curve" smooth="yes"/>
      <point x="166" y="46"/>
      <point x="117" y="127"/>
      <point x="117" y="225" type="curve" smooth="yes"/>
      <point x="117" y="248"/>
      <point x="119" y="269"/>
      <point x="124" y="289" type="curve"/>
      <point x="152.717948718" y="261.307692308"/>
      <point x="186" y="246"/>
      <point x="226" y="246" type="curve" smooth="yes"/>
      <point x="547" y="246" type="line" smooth="yes"/>
      <point x="586" y="246"/>
      <point x="619" y="262"/>
      <point x="647" y="289" type="curve"/>
      <point x="652" y="269"/>
      <point x="654" y="248"/>
      <point x="654" y="225" type="curve" smooth="yes"/>
      <point x="654" y="127"/>
      <point x="605" y="46"/>
    </contour>
  </outline>
</glyph>
<glyph name="ko-kannada" format="1">
  <advance width="1209"/>
  <outline>
    <contour>
      <point x="473" y="508" type="curve" smooth="yes"/>
      <point x="473" y="553"/>
      <point x="501" y="589"/>
      <point x="544" y="589" type="curve" smooth="yes"/>
      <point x="580" y="589"/>
      <point x="607" y="566"/>
      <point x="607" y="532" type="curve" smooth="yes"/>
      <point x="607" y="487"/>
      <point x="569" y="456"/>
      <point x="480" y="456" type="curve"/>
      <point x="477" y="470"/>
      <point x="473" y="489"/>
    </contour>
    <contour>
      <point x="351" y="38" type="curve" smooth="yes"/>
      <point x="249" y="38"/>
      <point x="208" y="92"/>
      <point x="208" y="147" type="curve" smooth="yes"/>
      <point x="208" y="205"/>
      <point x="259" y="249"/>
      <point x="327" y="255" type="curve"/>
      <point x="382" y="255" type="line"/>
      <point x="457" y="245"/>
      <point x="496" y="196"/>
      <point x="496" y="147" type="curve" smooth="yes"/>
      <point x="496" y="93"/>
      <point x="455" y="38"/>
    </contour>
    <contour>
      <point x="1009" y="42" type="curve" smooth="yes"/>
      <point x="968" y="42"/>
      <point x="943" y="72"/>
      <point x="943" y="106" type="curve" smooth="yes"/>
      <point x="943" y="149"/>
      <point x="973" y="183"/>
      <point x="1030" y="183" type="curve" smooth="yes"/>
      <point x="1053" y="183"/>
      <point x="1076" y="178"/>
      <point x="1096" y="172" type="curve"/>
      <point x="1096" y="167" type="line" smooth="yes"/>
      <point x="1096" y="93"/>
      <point x="1062" y="42"/>
    </contour>
    <contour>
      <point x="675" y="0" type="curve" smooth="yes"/>
      <point x="758" y="0"/>
      <point x="799" y="50"/>
      <point x="799" y="125" type="curve" smooth="yes"/>
      <point x="799" y="178"/>
      <point x="774" y="228"/>
      <point x="774" y="288" type="curve" smooth="yes"/>
      <point x="774" y="344"/>
      <point x="814" y="410"/>
      <point x="893" y="410" type="curve" smooth="yes"/>
      <point x="973" y="410"/>
      <point x="1068" y="341"/>
      <point x="1091" y="221" type="curve"/>
      <point x="1071" y="226"/>
      <point x="1050" y="229"/>
      <point x="1030" y="229" type="curve" smooth="yes"/>
      <point x="939" y="229"/>
      <point x="897" y="171"/>
      <point x="897" y="106" type="curve" smooth="yes"/>
      <point x="897" y="48"/>
      <point x="938" y="-4"/>
      <point x="1009" y="-4" type="curve" smooth="yes"/>
      <point x="1082" y="-4"/>
      <point x="1142" y="55"/>
      <point x="1142" y="167" type="curve" smooth="yes"/>
      <point x="1142" y="354"/>
      <point x="1003" y="456"/>
      <point x="893" y="456" type="curve" smooth="yes"/>
      <point x="784" y="456"/>
      <point x="728" y="366"/>
      <point x="728" y="288" type="curve" smooth="yes"/>
      <point x="728" y="228"/>
      <point x="753" y="178"/>
      <point x="753" y="125" type="curve" smooth="yes"/>
      <point x="753" y="78"/>
      <point x="728" y="46"/>
      <point x="675" y="46" type="curve" smooth="yes"/>
      <point x="627" y="46"/>
      <point x="583" y="80"/>
      <point x="542" y="143" type="curve"/>
      <point x="542" y="144"/>
      <point x="542" y="145"/>
      <point x="542" y="147" type="curve" smooth="yes"/>
      <point x="542" y="187"/>
      <point x="525" y="226"/>
      <point x="493" y="255" type="curve"/>
      <point x="607" y="255" type="line" smooth="yes"/>
      <point x="619" y="255"/>
      <point x="630" y="266"/>
      <point x="630" y="278" type="curve" smooth="yes"/>
      <point x="630" y="290"/>
      <point x="619" y="301"/>
      <point x="607" y="301" type="curve" smooth="yes"/>
      <point x="375" y="301" type="line"/>
      <point x="375" y="410" type="line"/>
      <point x="480" y="410" type="line" smooth="yes"/>
      <point x="620" y="410"/>
      <point x="653" y="471"/>
      <point x="653" y="532" type="curve" smooth="yes"/>
      <point x="653" y="590"/>
      <point x="610" y="635"/>
      <point x="544" y="635" type="curve" smooth="yes"/>
      <point x="477" y="635"/>
      <point x="427" y="583"/>
      <point x="427" y="508" type="curve" smooth="yes"/>
      <point x="427" y="490"/>
      <point x="430" y="471"/>
      <point x="433" y="456" type="curve"/>
      <point x="98" y="456" type="line" smooth="yes"/>
      <point x="86" y="456"/>
      <point x="75" y="445"/>
      <point x="75" y="433" type="curve" smooth="yes"/>
      <point x="75" y="421"/>
      <point x="86" y="410"/>
      <point x="98" y="410" type="curve" smooth="yes"/>
      <point x="329" y="410" type="line"/>
      <point x="329" y="301" type="line"/>
      <point x="94" y="301" type="line" smooth="yes"/>
      <point x="82" y="301"/>
      <point x="71" y="290"/>
      <point x="71" y="278" type="curve" smooth="yes"/>
      <point x="71" y="266"/>
      <point x="82" y="255"/>
      <point x="94" y="255" type="curve" smooth="yes"/>
      <point x="210" y="255" type="line"/>
      <point x="179" y="226"/>
      <point x="162" y="188"/>
      <point x="162" y="147" type="curve" smooth="yes"/>
      <point x="162" y="74"/>
      <point x="207" y="-8"/>
      <point x="351" y="-8" type="curve" smooth="yes"/>
      <point x="455" y="-8"/>
      <point x="507" y="33"/>
      <point x="529" y="82" type="curve"/>
      <point x="575" y="26"/>
      <point x="625" y="0"/>
    </contour>
  </outline>
</glyph>
<glyph name="lla-kannada.below.following" format="1">
  <advance width="594"/>
  <outline>
    <contour>
      <point x="326" y="-213" type="curve" smooth="yes"/>
      <point x="307" y="-213"/>
      <point x="289" y="-208"/>
      <point x="274" y="-201" type="curve"/>
      <point x="279" y="-171"/>
      <point x="300" y="-146"/>
      <point x="330" y="-146" type="curve" smooth="yes"/>
      <point x="356" y="-146"/>
      <point x="371" y="-161"/>
      <point x="371" y="-179" type="curve" smooth="yes"/>
      <point x="371" y="-205"/>
      <point x="348" y="-213"/>
    </contour>
    <contour>
      <point x="518" y="-376" type="curve" smooth="yes"/>
      <point x="518" y="-361"/>
      <point x="514" y="-349"/>
      <point x="508" y="-339" type="curve"/>
      <point x="529" y="-329"/>
      <point x="546" y="-318"/>
      <point x="558" y="-306" type="curve" smooth="yes"/>
      <point x="588" y="-276"/>
      <point x="605" y="-239"/>
      <point x="605" y="-182" type="curve" smooth="yes"/>
      <point x="605" y="-128"/>
      <point x="585" y="-46"/>
      <point x="544" y="52" type="curve" smooth="yes"/>
      <point x="541" y="60"/>
      <point x="533" y="65"/>
      <point x="525" y="65" type="curve" smooth="yes"/>
      <point x="514" y="65"/>
      <point x="504" y="55"/>
      <point x="504" y="44" type="curve" smooth="yes"/>
      <point x="504" y="41"/>
      <point x="507" y="33"/>
      <point x="508" y="30" type="curve"/>
      <point x="545" y="-62"/>
      <point x="563" y="-132"/>
      <point x="563" y="-182" type="curve" smooth="yes"/>
      <point x="563" y="-225"/>
      <point x="551" y="-254"/>
      <point x="528" y="-276" type="curve" smooth="yes"/>
      <point x="509" y="-296"/>
      <point x="470" y="-315"/>
      <point x="418" y="-315" type="curve" smooth="yes"/>
      <point x="353" y="-315"/>
      <point x="319" y="-299"/>
      <point x="300" y="-279" type="curve" smooth="yes"/>
      <point x="291" y="-270"/>
      <point x="284" y="-259"/>
      <point x="279" y="-248" type="curve"/>
      <point x="294" y="-252"/>
      <point x="309" y="-255"/>
      <point x="326" y="-255" type="curve" smooth="yes"/>
      <point x="376" y="-255"/>
      <point x="413" y="-229"/>
      <point x="413" y="-179" type="curve" smooth="yes"/>
      <point x="413" y="-143"/>
      <point x="390" y="-104"/>
      <point x="330" y="-104" type="curve" smooth="yes"/>
      <point x="273" y="-104"/>
      <point x="231" y="-153"/>
      <point x="231" y="-215" type="curve" smooth="yes"/>
      <point x="231" y="-251"/>
      <point x="244" y="-283"/>
      <point x="270" y="-309" type="curve" smooth="yes"/>
      <point x="285" y="-323"/>
      <point x="305" y="-337"/>
      <point x="336" y="-347" type="curve"/>
      <point x="332" y="-356"/>
      <point x="329" y="-366"/>
      <point x="329" y="-377" type="curve" smooth="yes"/>
      <point x="329" y="-413"/>
      <point x="353" y="-449"/>
      <point x="421" y="-449" type="curve" smooth="yes"/>
      <point x="490" y="-449"/>
      <point x="518" y="-413"/>
    </contour>
    <contour>
      <point x="421" y="-407" type="curve" smooth="yes"/>
      <point x="393" y="-407"/>
      <point x="371" y="-397"/>
      <point x="371" y="-377" type="curve" smooth="yes"/>
      <point x="371" y="-368"/>
      <point x="375" y="-361"/>
      <point x="379" y="-355" type="curve"/>
      <point x="391" y="-356"/>
      <point x="404" y="-357"/>
      <point x="418" y="-357" type="curve" smooth="yes"/>
      <point x="435" y="-357"/>
      <point x="452" y="-355"/>
      <point x="466" y="-352" type="curve"/>
      <point x="472" y="-358"/>
      <point x="476" y="-365"/>
      <point x="476" y="-376" type="curve" smooth="yes"/>
      <point x="476" y="-397"/>
      <point x="450" y="-407"/>
    </contour>
  </outline>
</glyph>
<glyph name="lli-kannada" format="1">
  <advance width="717"/>
  <outline>
    <contour>
      <point x="441" y="469" type="curve" smooth="yes"/>
      <point x="400" y="469"/>
      <point x="376" y="497"/>
      <point x="376" y="527" type="curve" smooth="yes"/>
      <point x="376" y="555"/>
      <point x="399" y="588"/>
      <point x="443" y="588" type="curve" smooth="yes"/>
      <point x="480" y="588"/>
      <point x="510" y="573"/>
      <point x="538" y="546" type="curve" smooth="yes"/>
      <point x="541" y="543"/>
      <point x="543" y="541"/>
      <point x="545" y="538" type="curve"/>
      <point x="515" y="493"/>
      <point x="482" y="469"/>
    </contour>
    <contour>
      <point x="192" y="317" type="curve" smooth="yes"/>
      <point x="163" y="317"/>
      <point x="136" y="323"/>
      <point x="112" y="333" type="curve"/>
      <point x="112" y="379"/>
      <point x="148" y="425"/>
      <point x="198" y="425" type="curve" smooth="yes"/>
      <point x="237" y="425"/>
      <point x="263" y="402"/>
      <point x="263" y="371" type="curve" smooth="yes"/>
      <point x="263" y="338"/>
      <point x="234" y="317"/>
    </contour>
    <contour>
      <point x="485" y="84" type="curve" smooth="yes"/>
      <point x="485" y="108"/>
      <point x="479" y="133"/>
      <point x="459" y="152" type="curve"/>
      <point x="521" y="167"/>
      <point x="567" y="193"/>
      <point x="597" y="223" type="curve" smooth="yes"/>
      <point x="638" y="263"/>
      <point x="657" y="313"/>
      <point x="657" y="373" type="curve" smooth="yes"/>
      <point x="657" y="467"/>
      <point x="608" y="540"/>
      <point x="576" y="572" type="curve" smooth="yes"/>
      <point x="530" y="618"/>
      <point x="492" y="634"/>
      <point x="443" y="634" type="curve" smooth="yes"/>
      <point x="367" y="634"/>
      <point x="330" y="575"/>
      <point x="330" y="527" type="curve" smooth="yes"/>
      <point x="330" y="475"/>
      <point x="368" y="423"/>
      <point x="441" y="423" type="curve" smooth="yes"/>
      <point x="491" y="423"/>
      <point x="535" y="447"/>
      <point x="574" y="499" type="curve"/>
      <point x="599" y="458"/>
      <point x="611" y="412"/>
      <point x="611" y="373" type="curve" smooth="yes"/>
      <point x="611" y="327"/>
      <point x="596" y="287"/>
      <point x="565" y="255" type="curve" smooth="yes"/>
      <point x="527" y="217"/>
      <point x="455" y="187"/>
      <point x="360" y="187" type="curve" smooth="yes"/>
      <point x="227" y="187"/>
      <point x="175" y="208"/>
      <point x="137" y="245" type="curve"/>
      <point x="128" y="255"/>
      <point x="121" y="268"/>
      <point x="118" y="282" type="curve"/>
      <point x="141" y="275"/>
      <point x="165" y="271"/>
      <point x="192" y="271" type="curve" smooth="yes"/>
      <point x="270" y="271"/>
      <point x="309" y="316"/>
      <point x="309" y="371" type="curve" smooth="yes"/>
      <point x="309" y="424"/>
      <point x="269" y="471"/>
      <point x="198" y="471" type="curve" smooth="yes"/>
      <point x="124" y="471"/>
      <point x="66" y="407"/>
      <point x="66" y="329" type="curve" smooth="yes"/>
      <point x="66" y="286"/>
      <point x="78" y="239"/>
      <point x="105" y="213" type="curve" smooth="yes"/>
      <point x="134" y="183"/>
      <point x="171" y="160"/>
      <point x="244" y="149" type="curve"/>
      <point x="227" y="130"/>
      <point x="220" y="107"/>
      <point x="220" y="85" type="curve" smooth="yes"/>
      <point x="220" y="38"/>
      <point x="257" y="-16"/>
      <point x="352" y="-16" type="curve" smooth="yes"/>
      <point x="451" y="-16"/>
      <point x="485" y="38"/>
    </contour>
    <contour>
      <point x="352" y="139" type="curve" smooth="yes"/>
      <point x="356" y="139" type="line" smooth="yes"/>
      <point x="412" y="139"/>
      <point x="439" y="115"/>
      <point x="439" y="84" type="curve" smooth="yes"/>
      <point x="439" y="54"/>
      <point x="405" y="30"/>
      <point x="352" y="30" type="curve" smooth="yes"/>
      <point x="301" y="30"/>
      <point x="266" y="54"/>
      <point x="266" y="85" type="curve" smooth="yes"/>
      <point x="266" y="116"/>
      <point x="298" y="138"/>
    </contour>
  </outline>
</glyph>
<glyph name="m-kannada" format="1">
  <advance width="1289"/>
  <outline>
    <contour>
      <point x="1139" y="269" type="curve" smooth="yes"/>
      <point x="1101" y="269"/>
      <point x="1068" y="300"/>
      <point x="1068" y="345" type="curve" smooth="yes"/>
      <point x="1068" y="365"/>
      <point x="1071" y="387"/>
      <point x="1081" y="410" type="curve"/>
      <point x="1100" y="410" type="line" smooth="yes"/>
      <point x="1168" y="410"/>
      <point x="1202" y="372"/>
      <point x="1202" y="333" type="curve" smooth="yes"/>
      <point x="1202" y="293"/>
      <point x="1177" y="269"/>
    </contour>
    <contour>
      <point x="795" y="0" type="curve" smooth="yes"/>
      <point x="901" y="0"/>
      <point x="957" y="69"/>
      <point x="957" y="169" type="curve" smooth="yes"/>
      <point x="957" y="248"/>
      <point x="916" y="341"/>
      <point x="860" y="410" type="curve"/>
      <point x="1031" y="410" type="line"/>
      <point x="1024" y="387"/>
      <point x="1022" y="365"/>
      <point x="1022" y="345" type="curve" smooth="yes"/>
      <point x="1022" y="270"/>
      <point x="1077" y="223"/>
      <point x="1139" y="223" type="curve" smooth="yes"/>
      <point x="1203" y="223"/>
      <point x="1248" y="265"/>
      <point x="1248" y="333" type="curve" smooth="yes"/>
      <point x="1248" y="389"/>
      <point x="1210" y="453"/>
      <point x="1108" y="456" type="curve"/>
      <point x="1129" y="482"/>
      <point x="1160" y="508"/>
      <point x="1204" y="532" type="curve" smooth="yes"/>
      <point x="1212" y="536"/>
      <point x="1216" y="544"/>
      <point x="1216" y="552" type="curve" smooth="yes"/>
      <point x="1216" y="566"/>
      <point x="1204" y="575"/>
      <point x="1193" y="575" type="curve" smooth="yes"/>
      <point x="1189" y="575"/>
      <point x="1185" y="574"/>
      <point x="1182" y="572" type="curve"/>
      <point x="1115" y="536"/>
      <point x="1075" y="495"/>
      <point x="1051" y="456" type="curve"/>
      <point x="751" y="456" type="line" smooth="yes"/>
      <point x="739" y="456"/>
      <point x="728" y="445"/>
      <point x="728" y="433" type="curve" smooth="yes"/>
      <point x="728" y="421"/>
      <point x="739" y="410"/>
      <point x="751" y="410" type="curve" smooth="yes"/>
      <point x="797" y="410" type="line"/>
      <point x="804" y="404"/>
      <point x="809" y="399"/>
      <point x="811" y="397" type="curve" smooth="yes"/>
      <point x="867" y="335"/>
      <point x="911" y="245"/>
      <point x="911" y="169" type="curve" smooth="yes"/>
      <point x="911" y="97"/>
      <point x="873" y="46"/>
      <point x="795" y="46" type="curve" smooth="yes"/>
      <point x="739" y="46"/>
      <point x="698" y="71"/>
      <point x="659" y="127" type="curve"/>
      <point x="660" y="135"/>
      <point x="661" y="145"/>
      <point x="661" y="154" type="curve" smooth="yes"/>
      <point x="661" y="234"/>
      <point x="614" y="330"/>
      <point x="502" y="411" type="curve"/>
      <point x="574" y="415"/>
      <point x="617" y="445"/>
      <point x="651" y="499" type="curve" smooth="yes"/>
      <point x="653" y="503"/>
      <point x="654" y="507"/>
      <point x="654" y="511" type="curve" smooth="yes"/>
      <point x="654" y="523"/>
      <point x="645" y="534"/>
      <point x="631" y="534" type="curve" smooth="yes"/>
      <point x="623" y="534"/>
      <point x="616" y="530"/>
      <point x="611" y="523" type="curve" smooth="yes"/>
      <point x="583" y="478"/>
      <point x="546" y="456"/>
      <point x="483" y="456" type="curve" smooth="yes"/>
      <point x="118" y="456" type="line" smooth="yes"/>
      <point x="106" y="456"/>
      <point x="95" y="445"/>
      <point x="95" y="433" type="curve" smooth="yes"/>
      <point x="95" y="421"/>
      <point x="106" y="410"/>
      <point x="118" y="410" type="curve" smooth="yes"/>
      <point x="418" y="410" type="line"/>
      <point x="553" y="334"/>
      <point x="615" y="236"/>
      <point x="615" y="154" type="curve" smooth="yes"/>
      <point x="615" y="89"/>
      <point x="572" y="46"/>
      <point x="518" y="46" type="curve" smooth="yes"/>
      <point x="458" y="46"/>
      <point x="421" y="80"/>
      <point x="385" y="136" type="curve" smooth="yes"/>
      <point x="381" y="142"/>
      <point x="373" y="147"/>
      <point x="366" y="147" type="curve" smooth="yes"/>
      <point x="361" y="147" type="line" smooth="yes"/>
      <point x="353" y="147"/>
      <point x="345" y="142"/>
      <point x="341" y="135" type="curve" smooth="yes"/>
      <point x="310" y="75"/>
      <point x="271" y="46"/>
      <point x="204" y="46" type="curve" smooth="yes"/>
      <point x="152" y="46"/>
      <point x="116" y="76"/>
      <point x="116" y="118" type="curve" smooth="yes"/>
      <point x="116" y="156"/>
      <point x="145" y="186"/>
      <point x="192" y="193" type="curve" smooth="yes"/>
      <point x="204" y="195"/>
      <point x="212" y="205"/>
      <point x="212" y="216" type="curve" smooth="yes"/>
      <point x="212" y="228"/>
      <point x="205" y="238"/>
      <point x="190" y="238" type="curve" smooth="yes"/>
      <point x="128" y="238"/>
      <point x="70" y="186"/>
      <point x="70" y="118" type="curve" smooth="yes"/>
      <point x="70" y="54"/>
      <point x="120" y="0"/>
      <point x="204" y="0" type="curve" smooth="yes"/>
      <point x="278" y="0"/>
      <point x="326" y="27"/>
      <point x="365" y="86" type="curve"/>
      <point x="407" y="29"/>
      <point x="452" y="0"/>
      <point x="518" y="0" type="curve" smooth="yes"/>
      <point x="571" y="0"/>
      <point x="618" y="27"/>
      <point x="642" y="74" type="curve"/>
      <point x="687" y="22"/>
      <point x="735" y="0"/>
    </contour>
  </outline>
</glyph>
<glyph name="nga-kannada.below.following" format="1">
  <advance width="531"/>
  <outline>
    <contour>
      <point x="647" y="-290" type="curve" smooth="yes"/>
      <point x="647" y="-278"/>
      <point x="645" y="-268"/>
      <point x="642" y="-256" type="curve" smooth="yes"/>
      <point x="639" y="-247"/>
      <point x="631" y="-241"/>
      <point x="622" y="-241" type="curve" smooth="yes"/>
      <point x="610" y="-241"/>
      <point x="601" y="-251"/>
      <point x="601" y="-262" type="curve" smooth="yes"/>
      <point x="601" y="-271"/>
      <point x="605" y="-278"/>
      <point x="605" y="-290" type="curve" smooth="yes"/>
      <point x="605" y="-316"/>
      <point x="583" y="-335"/>
      <point x="549" y="-335" type="curve" smooth="yes"/>
      <point x="516" y="-335"/>
      <point x="484" y="-321"/>
      <point x="453" y="-290" type="curve" smooth="yes"/>
      <point x="449" y="-287"/>
      <point x="443" y="-284"/>
      <point x="438" y="-284" type="curve" smooth="yes"/>
      <point x="434" y="-284" type="line" smooth="yes"/>
      <point x="429" y="-284"/>
      <point x="424" y="-287"/>
      <point x="420" y="-290" type="curve" smooth="yes"/>
      <point x="387" y="-322"/>
      <point x="356" y="-335"/>
      <point x="322" y="-335" type="curve" smooth="yes"/>
      <point x="291" y="-335"/>
      <point x="268" y="-322"/>
      <point x="268" y="-298" type="curve" smooth="yes"/>
      <point x="268" y="-278"/>
      <point x="285" y="-261"/>
      <point x="307" y="-250" type="curve" smooth="yes"/>
      <point x="337" y="-234"/>
      <point x="355" y="-217"/>
      <point x="365" y="-200" type="curve"/>
      <point x="406" y="-149"/>
      <point x="441" y="-124"/>
      <point x="483" y="-124" type="curve" smooth="yes"/>
      <point x="519" y="-124"/>
      <point x="551" y="-148"/>
      <point x="583" y="-179" type="curve" smooth="yes"/>
      <point x="587" y="-183"/>
      <point x="593" y="-185"/>
      <point x="598" y="-185" type="curve" smooth="yes"/>
      <point x="611" y="-185"/>
      <point x="619" y="-176"/>
      <point x="619" y="-164" type="curve" smooth="yes"/>
      <point x="619" y="-159"/>
      <point x="617" y="-153"/>
      <point x="613" y="-149" type="curve" smooth="yes"/>
      <point x="571" y="-108"/>
      <point x="529" y="-82"/>
      <point x="483" y="-82" type="curve" smooth="yes"/>
      <point x="442" y="-82"/>
      <point x="404" y="-99"/>
      <point x="364" y="-139" type="curve"/>
      <point x="351" y="-116"/>
      <point x="323" y="-100"/>
      <point x="290" y="-100" type="curve" smooth="yes"/>
      <point x="262" y="-100"/>
      <point x="241" y="-105"/>
      <point x="219" y="-116" type="curve" smooth="yes"/>
      <point x="212" y="-120"/>
      <point x="208" y="-128"/>
      <point x="208" y="-136" type="curve" smooth="yes"/>
      <point x="208" y="-147"/>
      <point x="219" y="-156"/>
      <point x="230" y="-156" type="curve" smooth="yes"/>
      <point x="233" y="-156"/>
      <point x="239" y="-154"/>
      <point x="247" y="-150" type="curve" smooth="yes"/>
      <point x="258" y="-145"/>
      <point x="270" y="-142"/>
      <point x="290" y="-142" type="curve" smooth="yes"/>
      <point x="309" y="-142"/>
      <point x="331" y="-152"/>
      <point x="331" y="-171" type="curve" smooth="yes"/>
      <point x="331" y="-187"/>
      <point x="312" y="-199"/>
      <point x="287" y="-212" type="curve" smooth="yes"/>
      <point x="249" y="-233"/>
      <point x="226" y="-264"/>
      <point x="226" y="-298" type="curve" smooth="yes"/>
      <point x="226" y="-340"/>
      <point x="257" y="-377"/>
      <point x="322" y="-377" type="curve" smooth="yes"/>
      <point x="362" y="-377"/>
      <point x="396" y="-364"/>
      <point x="435" y="-331" type="curve"/>
      <point x="472" y="-364"/>
      <point x="510" y="-377"/>
      <point x="549" y="-377" type="curve" smooth="yes"/>
      <point x="615" y="-377"/>
      <point x="647" y="-336"/>
    </contour>
    <contour>
      <point x="473" y="-239" type="curve" smooth="yes"/>
      <point x="489" y="-239"/>
      <point x="505" y="-226"/>
      <point x="505" y="-206" type="curve" smooth="yes"/>
      <point x="505" y="-189"/>
      <point x="490" y="-174"/>
      <point x="473" y="-174" type="curve" smooth="yes"/>
      <point x="456" y="-174"/>
      <point x="441" y="-189"/>
      <point x="441" y="-206" type="curve" smooth="yes"/>
      <point x="441" y="-226"/>
      <point x="456" y="-239"/>
    </contour>
  </outline>
</glyph>
<glyph name="ngu-kannada" format="1">
  <advance width="1064"/>
  <outline>
    <contour>
      <point x="997" y="169" type="curve" smooth="yes"/>
      <point x="997" y="255"/>
      <point x="949" y="357"/>
      <point x="885" y="427" type="curve" smooth="yes"/>
      <point x="881" y="432"/>
      <point x="875" y="435"/>
      <point x="868" y="435" type="curve" smooth="yes"/>
      <point x="855" y="435"/>
      <point x="845" y="425"/>
      <point x="845" y="412" type="curve" smooth="yes"/>
      <point x="845" y="407"/>
      <point x="847" y="401"/>
      <point x="851" y="397" type="curve" smooth="yes"/>
      <point x="907" y="335"/>
      <point x="951" y="245"/>
      <point x="951" y="169" type="curve" smooth="yes"/>
      <point x="951" y="97"/>
      <point x="913" y="46"/>
      <point x="835" y="46" type="curve" smooth="yes"/>
      <point x="772" y="46"/>
      <point x="730" y="79"/>
      <point x="689" y="143" type="curve" smooth="yes"/>
      <point x="686" y="147"/>
      <point x="684" y="150"/>
      <point x="682" y="153" type="curve"/>
      <point x="676" y="193"/>
      <point x="658" y="227"/>
      <point x="631" y="252" type="curve" smooth="yes"/>
      <point x="627" y="256"/>
      <point x="621" y="258"/>
      <point x="615" y="258" type="curve" smooth="yes"/>
      <point x="602" y="258"/>
      <point x="592" y="249"/>
      <point x="592" y="235" type="curve" smooth="yes"/>
      <point x="592" y="229"/>
      <point x="594" y="223"/>
      <point x="599" y="218" type="curve" smooth="yes"/>
      <point x="623" y="196"/>
      <point x="637" y="167"/>
      <point x="637" y="131" type="curve" smooth="yes"/>
      <point x="637" y="85"/>
      <point x="602" y="47"/>
      <point x="545" y="47" type="curve" smooth="yes"/>
      <point x="480" y="47"/>
      <point x="440" y="80"/>
      <point x="403" y="137" type="curve"/>
      <point x="400" y="143"/>
      <point x="391" y="148"/>
      <point x="384" y="148" type="curve" smooth="yes"/>
      <point x="379" y="148" type="line" smooth="yes"/>
      <point x="372" y="148"/>
      <point x="363" y="143"/>
      <point x="359" y="137" type="curve" smooth="yes"/>
      <point x="320" y="74"/>
      <point x="281" y="47"/>
      <point x="222" y="47" type="curve" smooth="yes"/>
      <point x="165" y="47"/>
      <point x="133" y="82"/>
      <point x="133" y="126" type="curve" smooth="yes"/>
      <point x="133" y="168"/>
      <point x="162" y="203"/>
      <point x="203" y="236" type="curve" smooth="yes"/>
      <point x="252" y="275"/>
      <point x="276" y="307"/>
      <point x="286" y="338" type="curve" smooth="yes"/>
      <point x="320" y="438"/>
      <point x="379" y="478"/>
      <point x="443" y="478" type="curve" smooth="yes"/>
      <point x="504" y="478"/>
      <point x="553" y="451"/>
      <point x="600" y="380" type="curve" smooth="yes"/>
      <point x="604" y="374"/>
      <point x="612" y="370"/>
      <point x="619" y="370" type="curve" smooth="yes"/>
      <point x="631" y="370"/>
      <point x="642" y="380"/>
      <point x="642" y="393" type="curve" smooth="yes"/>
      <point x="642" y="397"/>
      <point x="641" y="402"/>
      <point x="638" y="406" type="curve" smooth="yes"/>
      <point x="581" y="493"/>
      <point x="518" y="524"/>
      <point x="443" y="524" type="curve" smooth="yes"/>
      <point x="382" y="524"/>
      <point x="321" y="498"/>
      <point x="276" y="426" type="curve"/>
      <point x="259" y="453"/>
      <point x="227" y="472"/>
      <point x="183" y="472" type="curve" smooth="yes"/>
      <point x="140" y="472"/>
      <point x="105" y="452"/>
      <point x="75" y="418" type="curve" smooth="yes"/>
      <point x="71" y="414"/>
      <point x="69" y="408"/>
      <point x="69" y="403" type="curve" smooth="yes"/>
      <point x="69" y="390"/>
      <point x="81" y="380"/>
      <point x="92" y="380" type="curve" smooth="yes"/>
      <point x="99" y="380"/>
      <point x="105" y="383"/>
      <point x="109" y="388" type="curve" smooth="yes"/>
      <point x="129" y="410"/>
      <point x="154" y="426"/>
      <point x="183" y="426" type="curve" smooth="yes"/>
      <point x="219" y="426"/>
      <point x="245" y="403"/>
      <point x="245" y="372" type="curve" smooth="yes"/>
      <point x="245" y="338"/>
      <point x="223" y="311"/>
      <point x="175" y="272" type="curve" smooth="yes"/>
      <point x="120" y="227"/>
      <point x="87" y="180"/>
      <point x="87" y="126" type="curve" smooth="yes"/>
      <point x="87" y="60"/>
      <point x="133" y="1"/>
      <point x="222" y="1" type="curve" smooth="yes"/>
      <point x="289" y="1"/>
      <point x="337" y="26"/>
      <point x="382" y="88" type="curve"/>
      <point x="425" y="31"/>
      <point x="474" y="1"/>
      <point x="545" y="1" type="curve" smooth="yes"/>
      <point x="611" y="1"/>
      <point x="656" y="36"/>
      <point x="674" y="83" type="curve"/>
      <point x="721" y="24"/>
      <point x="772" y="0"/>
      <point x="835" y="0" type="curve" smooth="yes"/>
      <point x="941" y="0"/>
      <point x="997" y="69"/>
    </contour>
    <contour>
      <point x="428" y="364" type="curve" smooth="yes"/>
      <point x="400" y="364"/>
      <point x="377" y="336"/>
      <point x="377" y="314" type="curve" smooth="yes"/>
      <point x="377" y="285"/>
      <point x="401" y="262"/>
      <point x="428" y="262" type="curve" smooth="yes"/>
      <point x="459" y="262"/>
      <point x="480" y="286"/>
      <point x="480" y="313" type="curve" smooth="yes"/>
      <point x="480" y="336"/>
      <point x="459" y="364"/>
    </contour>
  </outline>
</glyph>
<glyph name="nna-kannada.base" format="1">
  <advance width="749"/>
  <outline>
    <contour>
      <point x="111" y="456" type="line" smooth="yes"/>
      <point x="99" y="456"/>
      <point x="88" y="445"/>
      <point x="88" y="433" type="curve" smooth="yes"/>
      <point x="88" y="421"/>
      <point x="99" y="410"/>
      <point x="111" y="410" type="curve" smooth="yes"/>
      <point x="558" y="410" type="line" smooth="yes"/>
      <point x="570" y="410"/>
      <point x="581" y="421"/>
      <point x="581" y="433" type="curve" smooth="yes"/>
      <point x="581" y="445"/>
      <point x="570" y="456"/>
      <point x="558" y="456" type="curve" smooth="yes"/>
    </contour>
    <contour>
      <point x="535" y="-5" type="curve" smooth="yes"/>
      <point x="622" y="-5"/>
      <point x="685" y="46"/>
      <point x="685" y="171" type="curve" smooth="yes"/>
      <point x="685" y="303"/>
      <point x="613" y="358"/>
      <point x="523" y="358" type="curve" smooth="yes"/>
      <point x="463" y="358"/>
      <point x="414" y="326"/>
      <point x="377" y="279" type="curve"/>
      <point x="342" y="325"/>
      <point x="290" y="359"/>
      <point x="218" y="359" type="curve" smooth="yes"/>
      <point x="125" y="359"/>
      <point x="91" y="307"/>
      <point x="91" y="257" type="curve" smooth="yes"/>
      <point x="91" y="228"/>
      <point x="106" y="199"/>
      <point x="134" y="179" type="curve"/>
      <point x="99" y="161"/>
      <point x="79" y="132"/>
      <point x="79" y="97" type="curve" smooth="yes"/>
      <point x="79" y="42"/>
      <point x="125" y="-1"/>
      <point x="226" y="-1" type="curve" smooth="yes"/>
      <point x="247" y="-1"/>
      <point x="266" y="2"/>
      <point x="286" y="7" type="curve" smooth="yes"/>
      <point x="296" y="9"/>
      <point x="304" y="19"/>
      <point x="304" y="29" type="curve" smooth="yes"/>
      <point x="304" y="41"/>
      <point x="294" y="51"/>
      <point x="282" y="51" type="curve" smooth="yes"/>
      <point x="274" y="51"/>
      <point x="246" y="45"/>
      <point x="226" y="45" type="curve" smooth="yes"/>
      <point x="173" y="45"/>
      <point x="125" y="60"/>
      <point x="125" y="97" type="curve" smooth="yes"/>
      <point x="125" y="134"/>
      <point x="171" y="150"/>
      <point x="214" y="150" type="curve" smooth="yes"/>
      <point x="242" y="150" type="line" smooth="yes"/>
      <point x="254" y="150"/>
      <point x="265" y="161"/>
      <point x="265" y="173" type="curve" smooth="yes"/>
      <point x="265" y="185"/>
      <point x="254" y="196"/>
      <point x="242" y="196" type="curve" smooth="yes"/>
      <point x="232" y="196" type="line" smooth="yes"/>
      <point x="182" y="196"/>
      <point x="137" y="221"/>
      <point x="137" y="257" type="curve" smooth="yes"/>
      <point x="137" y="289"/>
      <point x="167" y="313"/>
      <point x="218" y="313" type="curve" smooth="yes"/>
      <point x="284" y="313"/>
      <point x="328" y="274"/>
      <point x="356" y="230" type="curve" smooth="yes"/>
      <point x="360" y="224"/>
      <point x="368" y="219"/>
      <point x="375" y="219" type="curve" smooth="yes"/>
      <point x="379" y="219" type="line" smooth="yes"/>
      <point x="386" y="219"/>
      <point x="394" y="224"/>
      <point x="398" y="229" type="curve" smooth="yes"/>
      <point x="429" y="275"/>
      <point x="469" y="312"/>
      <point x="523" y="312" type="curve" smooth="yes"/>
      <point x="590" y="312"/>
      <point x="639" y="267"/>
      <point x="639" y="174" type="curve" smooth="yes"/>
      <point x="639" y="170"/>
      <point x="639" y="165"/>
      <point x="639" y="161" type="curve"/>
      <point x="612" y="180"/>
      <point x="581" y="192"/>
      <point x="536" y="192" type="curve" smooth="yes"/>
      <point x="453" y="192"/>
      <point x="420" y="141"/>
      <point x="420" y="92" type="curve" smooth="yes"/>
      <point x="420" y="40"/>
      <point x="466" y="-5"/>
    </contour>
    <contour>
      <point x="535" y="41" type="curve" smooth="yes"/>
      <point x="498" y="41"/>
      <point x="466" y="60"/>
      <point x="466" y="92" type="curve" smooth="yes"/>
      <point x="466" y="121"/>
      <point x="491" y="146"/>
      <point x="536" y="146" type="curve" smooth="yes"/>
      <point x="579" y="146"/>
      <point x="607" y="131"/>
      <point x="630" y="110" type="curve"/>
      <point x="615" y="64"/>
      <point x="582" y="41"/>
    </contour>
  </outline>
</glyph>
<glyph name="nna-kannada.below" format="1">
  <advance width="0"/>
  <outline>
    <contour>
      <point x="29" y="-377" type="curve" smooth="yes"/>
      <point x="89" y="-377"/>
      <point x="133" y="-335"/>
      <point x="133" y="-250" type="curve" smooth="yes"/>
      <point x="133" y="-153"/>
      <point x="81" y="-110"/>
      <point x="16" y="-110" type="curve" smooth="yes"/>
      <point x="-17" y="-110"/>
      <point x="-48" y="-125"/>
      <point x="-76" y="-151" type="curve"/>
      <point x="-103" y="-126"/>
      <point x="-129" y="-107"/>
      <point x="-178" y="-107" type="curve" smooth="yes"/>
      <point x="-237" y="-107"/>
      <point x="-268" y="-147"/>
      <point x="-268" y="-187" type="curve" smooth="yes"/>
      <point x="-268" y="-204"/>
      <point x="-262" y="-225"/>
      <point x="-244" y="-241" type="curve"/>
      <point x="-268" y="-257"/>
      <point x="-275" y="-281"/>
      <point x="-275" y="-301" type="curve" smooth="yes"/>
      <point x="-275" y="-337"/>
      <point x="-254" y="-375"/>
      <point x="-173" y="-375" type="curve" smooth="yes"/>
      <point x="-163" y="-375"/>
      <point x="-153" y="-366"/>
      <point x="-153" y="-354" type="curve" smooth="yes"/>
      <point x="-153" y="-344"/>
      <point x="-163" y="-335"/>
      <point x="-173" y="-334" type="curve" smooth="yes"/>
      <point x="-210" y="-332"/>
      <point x="-233" y="-323"/>
      <point x="-233" y="-301" type="curve" smooth="yes"/>
      <point x="-233" y="-283"/>
      <point x="-213" y="-267"/>
      <point x="-176" y="-265" type="curve" smooth="yes"/>
      <point x="-165" y="-264"/>
      <point x="-156" y="-255"/>
      <point x="-156" y="-243" type="curve" smooth="yes"/>
      <point x="-156" y="-232"/>
      <point x="-166" y="-223"/>
      <point x="-177" y="-222" type="curve" smooth="yes"/>
      <point x="-211" y="-219"/>
      <point x="-226" y="-202"/>
      <point x="-226" y="-187" type="curve" smooth="yes"/>
      <point x="-226" y="-165"/>
      <point x="-205" y="-149"/>
      <point x="-178" y="-149" type="curve" smooth="yes"/>
      <point x="-134" y="-149"/>
      <point x="-116" y="-171"/>
      <point x="-92" y="-195" type="curve" smooth="yes"/>
      <point x="-88" y="-198"/>
      <point x="-82" y="-201"/>
      <point x="-77" y="-201" type="curve" smooth="yes"/>
      <point x="-75" y="-201" type="line" smooth="yes"/>
      <point x="-70" y="-201"/>
      <point x="-63" y="-198"/>
      <point x="-59" y="-194" type="curve" smooth="yes"/>
      <point x="-37" y="-169"/>
      <point x="-13" y="-152"/>
      <point x="16" y="-152" type="curve" smooth="yes"/>
      <point x="58" y="-152"/>
      <point x="87" y="-183"/>
      <point x="91" y="-238" type="curve"/>
      <point x="71" y="-230"/>
      <point x="51" y="-225"/>
      <point x="29" y="-225" type="curve" smooth="yes"/>
      <point x="-23" y="-225"/>
      <point x="-56" y="-263"/>
      <point x="-56" y="-302" type="curve" smooth="yes"/>
      <point x="-56" y="-343"/>
      <point x="-25" y="-377"/>
    </contour>
    <contour>
      <point x="29" y="-335" type="curve" smooth="yes"/>
      <point x="5" y="-335"/>
      <point x="-14" y="-323"/>
      <point x="-14" y="-302" type="curve" smooth="yes"/>
      <point x="-14" y="-283"/>
      <point x="5" y="-267"/>
      <point x="29" y="-267" type="curve" smooth="yes"/>
      <point x="50" y="-267"/>
      <point x="69" y="-273"/>
      <point x="88" y="-282" type="curve"/>
      <point x="80" y="-315"/>
      <point x="60" y="-335"/>
    </contour>
  </outline>
</glyph>
<glyph name="ooMatra-kannada" format="1">
  <advance width="949"/>
  <outline>
    <contour>
      <point x="-188" y="410" type="line" smooth="yes"/>
      <point x="-47" y="410"/>
      <point x="-14" y="471"/>
      <point x="-14" y="532" type="curve" smooth="yes"/>
      <point x="-14" y="590"/>
      <point x="-57" y="635"/>
      <point x="-123" y="635" type="curve" smooth="yes"/>
      <point x="-190" y="635"/>
      <point x="-240" y="583"/>
      <point x="-240" y="508" type="curve" smooth="yes"/>
      <point x="-240" y="490"/>
      <point x="-237" y="471"/>
      <point x="-234" y="456" type="curve"/>
      <point x="-269" y="456" type="line" smooth="yes"/>
      <point x="-281" y="456"/>
      <point x="-292" y="445"/>
      <point x="-292" y="433" type="curve" smooth="yes"/>
      <point x="-292" y="421"/>
      <point x="-281" y="410"/>
      <point x="-269" y="410" type="curve" smooth="yes"/>
    </contour>
    <contour>
      <point x="-194" y="508" type="curve" smooth="yes"/>
      <point x="-194" y="553"/>
      <point x="-166" y="589"/>
      <point x="-123" y="589" type="curve" smooth="yes"/>
      <point x="-87" y="589"/>
      <point x="-60" y="566"/>
      <point x="-60" y="532" type="curve" smooth="yes"/>
      <point x="-60" y="487"/>
      <point x="-98" y="456"/>
      <point x="-187" y="456" type="curve"/>
      <point x="-190" y="470"/>
      <point x="-194" y="489"/>
    </contour>
    <contour>
      <point x="775" y="299" type="curve" smooth="yes"/>
      <point x="744" y="299"/>
      <point x="712" y="313"/>
      <point x="687" y="335" type="curve"/>
      <point x="701" y="389"/>
      <point x="730" y="425"/>
      <point x="775" y="425" type="curve" smooth="yes"/>
      <point x="815" y="425"/>
      <point x="841" y="396"/>
      <point x="841" y="362" type="curve" smooth="yes"/>
      <point x="841" y="325"/>
      <point x="815" y="299"/>
    </contour>
    <contour>
      <point x="858" y="23" type="curve" smooth="yes"/>
      <point x="858" y="33"/>
      <point x="851" y="42"/>
      <point x="842" y="45" type="curve" smooth="yes"/>
      <point x="741" y="74"/>
      <point x="678" y="155"/>
      <point x="678" y="256" type="curve" smooth="yes"/>
      <point x="678" y="266"/>
      <point x="678" y="275"/>
      <point x="679" y="284" type="curve"/>
      <point x="708" y="265"/>
      <point x="742" y="253"/>
      <point x="775" y="253" type="curve" smooth="yes"/>
      <point x="843" y="253"/>
      <point x="887" y="299"/>
      <point x="887" y="362" type="curve" smooth="yes"/>
      <point x="887" y="420"/>
      <point x="845" y="471"/>
      <point x="775" y="471" type="curve" smooth="yes"/>
      <point x="693" y="471"/>
      <point x="632" y="394"/>
      <point x="632" y="256" type="curve" smooth="yes"/>
      <point x="632" y="130"/>
      <point x="711" y="47"/>
      <point x="796" y="13" type="curve" smooth="yes"/>
      <point x="825" y="1"/>
      <point x="831" y="0"/>
      <point x="835" y="0" type="curve" smooth="yes"/>
      <point x="847" y="0"/>
      <point x="858" y="10"/>
    </contour>
    <contour>
      <point x="407" y="42" type="curve" smooth="yes"/>
      <point x="366" y="42"/>
      <point x="341" y="72"/>
      <point x="341" y="106" type="curve" smooth="yes"/>
      <point x="341" y="149"/>
      <point x="371" y="183"/>
      <point x="428" y="183" type="curve" smooth="yes"/>
      <point x="451" y="183"/>
      <point x="474" y="178"/>
      <point x="494" y="172" type="curve"/>
      <point x="494" y="167" type="line" smooth="yes"/>
      <point x="494" y="93"/>
      <point x="460" y="42"/>
    </contour>
    <contour>
      <point x="407" y="-4" type="curve" smooth="yes"/>
      <point x="480" y="-4"/>
      <point x="540" y="55"/>
      <point x="540" y="167" type="curve" smooth="yes"/>
      <point x="540" y="354"/>
      <point x="401" y="456"/>
      <point x="291" y="456" type="curve" smooth="yes"/>
      <point x="182" y="456"/>
      <point x="126" y="366"/>
      <point x="126" y="288" type="curve" smooth="yes"/>
      <point x="126" y="228"/>
      <point x="151" y="178"/>
      <point x="151" y="125" type="curve" smooth="yes"/>
      <point x="151" y="78"/>
      <point x="126" y="46"/>
      <point x="73" y="46" type="curve" smooth="yes"/>
      <point x="25" y="46"/>
      <point x="-20" y="81"/>
      <point x="-61" y="144" type="curve" smooth="yes"/>
      <point x="-65" y="150"/>
      <point x="-68" y="154"/>
      <point x="-72" y="159" type="curve"/>
      <point x="-75" y="162"/>
      <point x="-89" y="153"/>
      <point x="-93" y="150" type="curve"/>
      <point x="-99" y="146"/>
      <point x="-103" y="138"/>
      <point x="-103" y="131" type="curve" smooth="yes"/>
      <point x="-103" y="127"/>
      <point x="-102" y="122"/>
      <point x="-99" y="118" type="curve" smooth="yes"/>
      <point x="-46" y="37"/>
      <point x="13" y="0"/>
      <point x="73" y="0" type="curve" smooth="yes"/>
      <point x="156" y="0"/>
      <point x="197" y="50"/>
      <point x="197" y="125" type="curve" smooth="yes"/>
      <point x="197" y="178"/>
      <point x="172" y="228"/>
      <point x="172" y="288" type="curve" smooth="yes"/>
      <point x="172" y="344"/>
      <point x="212" y="410"/>
      <point x="291" y="410" type="curve" smooth="yes"/>
      <point x="371" y="410"/>
      <point x="466" y="341"/>
      <point x="489" y="221" type="curve"/>
      <point x="469" y="226"/>
      <point x="448" y="229"/>
      <point x="428" y="229" type="curve" smooth="yes"/>
      <point x="337" y="229"/>
      <point x="295" y="171"/>
      <point x="295" y="106" type="curve" smooth="yes"/>
      <point x="295" y="48"/>
      <point x="336" y="-4"/>
    </contour>
  </outline>
</glyph>
<glyph name="paa-kannada" format="1">
  <advance width="1089"/>
  <outline>
    <contour>
      <point x="383" y="292" type="curve" smooth="yes"/>
      <point x="341" y="292"/>
      <point x="314" y="320"/>
      <point x="314" y="352" type="curve" smooth="yes"/>
      <point x="314" y="371"/>
      <point x="321" y="392"/>
      <point x="340" y="410" type="curve"/>
      <point x="428" y="410" type="line"/>
      <point x="446" y="391"/>
      <point x="452" y="371"/>
      <point x="452" y="353" type="curve" smooth="yes"/>
      <point x="452" y="319"/>
      <point x="427" y="292"/>
    </contour>
    <contour>
      <point x="889" y="-4" type="curve" smooth="yes"/>
      <point x="962" y="-4"/>
      <point x="1022" y="55"/>
      <point x="1022" y="167" type="curve" smooth="yes"/>
      <point x="1022" y="353"/>
      <point x="907" y="456"/>
      <point x="748" y="456" type="curve" smooth="yes"/>
      <point x="106" y="456" type="line" smooth="yes"/>
      <point x="94" y="456"/>
      <point x="83" y="445"/>
      <point x="83" y="433" type="curve" smooth="yes"/>
      <point x="83" y="421"/>
      <point x="94" y="410"/>
      <point x="106" y="410" type="curve" smooth="yes"/>
      <point x="283" y="410" type="line"/>
      <point x="272" y="390"/>
      <point x="268" y="370"/>
      <point x="268" y="352" type="curve" smooth="yes"/>
      <point x="268" y="298"/>
      <point x="309" y="246"/>
      <point x="383" y="246" type="curve" smooth="yes"/>
      <point x="459" y="246"/>
      <point x="498" y="297"/>
      <point x="498" y="353" type="curve" smooth="yes"/>
      <point x="498" y="371"/>
      <point x="494" y="391"/>
      <point x="484" y="410" type="curve"/>
      <point x="748" y="410" type="line" smooth="yes"/>
      <point x="864" y="410"/>
      <point x="952" y="342"/>
      <point x="972" y="221" type="curve"/>
      <point x="952" y="226"/>
      <point x="930" y="229"/>
      <point x="910" y="229" type="curve" smooth="yes"/>
      <point x="819" y="229"/>
      <point x="777" y="171"/>
      <point x="777" y="106" type="curve" smooth="yes"/>
      <point x="777" y="48"/>
      <point x="818" y="-4"/>
    </contour>
    <contour>
      <point x="889" y="42" type="curve" smooth="yes"/>
      <point x="848" y="42"/>
      <point x="823" y="72"/>
      <point x="823" y="106" type="curve" smooth="yes"/>
      <point x="823" y="149"/>
      <point x="853" y="183"/>
      <point x="910" y="183" type="curve" smooth="yes"/>
      <point x="933" y="183"/>
      <point x="956" y="178"/>
      <point x="976" y="172" type="curve"/>
      <point x="976" y="167" type="line" smooth="yes"/>
      <point x="976" y="93"/>
      <point x="942" y="42"/>
    </contour>
    <contour>
      <point x="547" y="0" type="curve" smooth="yes"/>
      <point x="633" y="0"/>
      <point x="685" y="58"/>
      <point x="685" y="141" type="curve" smooth="yes"/>
      <point x="685" y="180"/>
      <point x="674" y="217"/>
      <point x="661" y="246" type="curve" smooth="yes"/>
      <point x="657" y="254"/>
      <point x="649" y="259"/>
      <point x="640" y="259" type="curve" smooth="yes"/>
      <point x="625" y="259"/>
      <point x="617" y="248"/>
      <point x="617" y="236" type="curve" smooth="yes"/>
      <point x="617" y="232"/>
      <point x="618" y="229"/>
      <point x="622" y="220" type="curve" smooth="yes"/>
      <point x="630" y="203"/>
      <point x="639" y="172"/>
      <point x="639" y="141" type="curve" smooth="yes"/>
      <point x="639" y="86"/>
      <point x="605" y="46"/>
      <point x="547" y="46" type="curve" smooth="yes"/>
      <point x="482" y="46"/>
      <point x="442" y="79"/>
      <point x="405" y="136" type="curve"/>
      <point x="401" y="143"/>
      <point x="394" y="147"/>
      <point x="386" y="147" type="curve" smooth="yes"/>
      <point x="381" y="147" type="line" smooth="yes"/>
      <point x="374" y="147"/>
      <point x="366" y="143"/>
      <point x="362" y="137" type="curve" smooth="yes"/>
      <point x="321" y="76"/>
      <point x="283" y="44"/>
      <point x="222" y="44" type="curve" smooth="yes"/>
      <point x="164" y="44"/>
      <point x="126" y="75"/>
      <point x="126" y="118" type="curve" smooth="yes"/>
      <point x="126" y="156"/>
      <point x="155" y="186"/>
      <point x="202" y="193" type="curve" smooth="yes"/>
      <point x="214" y="195"/>
      <point x="222" y="205"/>
      <point x="222" y="216" type="curve" smooth="yes"/>
      <point x="222" y="229"/>
      <point x="213" y="238"/>
      <point x="199" y="238" type="curve" smooth="yes"/>
      <point x="137" y="238"/>
      <point x="80" y="188"/>
      <point x="80" y="118" type="curve" smooth="yes"/>
      <point x="80" y="55"/>
      <point x="128" y="-2"/>
      <point x="222" y="-2" type="curve" smooth="yes"/>
      <point x="289" y="-2"/>
      <point x="336" y="27"/>
      <point x="383" y="88" type="curve"/>
      <point x="426" y="31"/>
      <point x="475" y="0"/>
    </contour>
  </outline>
</glyph>
<glyph name="phe-kannada" format="1">
  <advance width="736"/>
  <outline>
    <contour>
      <point x="514" y="508" type="curve" smooth="yes"/>
      <point x="514" y="553"/>
      <point x="542" y="589"/>
      <point x="585" y="589" type="curve" smooth="yes"/>
      <point x="621" y="589"/>
      <point x="648" y="566"/>
      <point x="648" y="532" type="curve" smooth="yes"/>
      <point x="648" y="487"/>
      <point x="610" y="456"/>
      <point x="521" y="456" type="curve"/>
      <point x="518" y="470"/>
      <point x="514" y="489"/>
    </contour>
    <contour>
      <point x="383" y="246" type="curve" smooth="yes"/>
      <point x="459" y="246"/>
      <point x="498" y="297"/>
      <point x="498" y="353" type="curve" smooth="yes"/>
      <point x="498" y="371"/>
      <point x="494" y="391"/>
      <point x="484" y="410" type="curve"/>
      <point x="521" y="410" type="line" smooth="yes"/>
      <point x="661" y="410"/>
      <point x="694" y="471"/>
      <point x="694" y="532" type="curve" smooth="yes"/>
      <point x="694" y="590"/>
      <point x="651" y="635"/>
      <point x="585" y="635" type="curve" smooth="yes"/>
      <point x="518" y="635"/>
      <point x="468" y="583"/>
      <point x="468" y="508" type="curve" smooth="yes"/>
      <point x="468" y="490"/>
      <point x="471" y="471"/>
      <point x="474" y="456" type="curve"/>
      <point x="106" y="456" type="line" smooth="yes"/>
      <point x="94" y="456"/>
      <point x="83" y="445"/>
      <point x="83" y="433" type="curve" smooth="yes"/>
      <point x="83" y="421"/>
      <point x="94" y="410"/>
      <point x="106" y="410" type="curve" smooth="yes"/>
      <point x="283" y="410" type="line"/>
      <point x="272" y="390"/>
      <point x="268" y="370"/>
      <point x="268" y="352" type="curve" smooth="yes"/>
      <point x="268" y="298"/>
      <point x="309" y="246"/>
    </contour>
    <contour>
      <point x="383" y="292" type="curve" smooth="yes"/>
      <point x="341" y="292"/>
      <point x="314" y="320"/>
      <point x="314" y="352" type="curve" smooth="yes"/>
      <point x="314" y="371"/>
      <point x="321" y="392"/>
      <point x="340" y="410" type="curve"/>
      <point x="428" y="410" type="line"/>
      <point x="446" y="391"/>
      <point x="452" y="371"/>
      <point x="452" y="353" type="curve" smooth="yes"/>
      <point x="452" y="319"/>
      <point x="427" y="292"/>
    </contour>
    <contour>
      <point x="547" y="0" type="curve" smooth="yes"/>
      <point x="633" y="0"/>
      <point x="685" y="58"/>
      <point x="685" y="141" type="curve" smooth="yes"/>
      <point x="685" y="180"/>
      <point x="674" y="217"/>
      <point x="661" y="246" type="curve" smooth="yes"/>
      <point x="657" y="254"/>
      <point x="649" y="259"/>
      <point x="640" y="259" type="curve" smooth="yes"/>
      <point x="625" y="259"/>
      <point x="617" y="248"/>
      <point x="617" y="236" type="curve" smooth="yes"/>
      <point x="617" y="232"/>
      <point x="618" y="229"/>
      <point x="622" y="220" type="curve" smooth="yes"/>
      <point x="630" y="203"/>
      <point x="639" y="172"/>
      <point x="639" y="141" type="curve" smooth="yes"/>
      <point x="639" y="86"/>
      <point x="605" y="46"/>
      <point x="547" y="46" type="curve" smooth="yes"/>
      <point x="482" y="46"/>
      <point x="442" y="79"/>
      <point x="405" y="136" type="curve" smooth="yes"/>
      <point x="401" y="143"/>
      <point x="394" y="147"/>
      <point x="386" y="147" type="curve" smooth="yes"/>
      <point x="381" y="147" type="line" smooth="yes"/>
      <point x="374" y="147"/>
      <point x="366" y="143"/>
      <point x="362" y="137" type="curve" smooth="yes"/>
      <point x="321" y="76"/>
      <point x="283" y="44"/>
      <point x="222" y="44" type="curve" smooth="yes"/>
      <point x="164" y="44"/>
      <point x="126" y="75"/>
      <point x="126" y="118" type="curve" smooth="yes"/>
      <point x="126" y="156"/>
      <point x="155" y="186"/>
      <point x="202" y="193" type="curve" smooth="yes"/>
      <point x="214" y="195"/>
      <point x="222" y="205"/>
      <point x="222" y="216" type="curve" smooth="yes"/>
      <point x="222" y="229"/>
      <point x="213" y="238"/>
      <point x="199" y="238" type="curve" smooth="yes"/>
      <point x="137" y="238"/>
      <point x="80" y="188"/>
      <point x="80" y="118" type="curve" smooth="yes"/>
      <point x="80" y="55"/>
      <point x="128" y="-2"/>
      <point x="222" y="-2" type="curve" smooth="yes"/>
      <point x="289" y="-2"/>
      <point x="336" y="27"/>
      <point x="383" y="88" type="curve"/>
      <point x="426" y="31"/>
      <point x="475" y="0"/>
    </contour>
    <contour>
      <point x="397" y="-93" type="line" smooth="yes"/>
      <point x="397" y="-81"/>
      <point x="386" y="-70"/>
      <point x="374" y="-70" type="curve" smooth="yes"/>
      <point x="362" y="-70"/>
      <point x="351" y="-81"/>
      <point x="351" y="-93" type="curve" smooth="yes"/>
      <point x="351" y="-196" type="line" smooth="yes"/>
      <point x="351" y="-208"/>
      <point x="362" y="-219"/>
      <point x="374" y="-219" type="curve" smooth="yes"/>
      <point x="386" y="-219"/>
      <point x="397" y="-208"/>
      <point x="397" y="-196" type="curve" smooth="yes"/>
    </contour>
  </outline>
</glyph>
<glyph name="pu-kannada" format="1">
  <advance width="972"/>
  <outline>
    <contour>
      <point x="383" y="246" type="curve" smooth="yes"/>
      <point x="459" y="246"/>
      <point x="498" y="297"/>
      <point x="498" y="353" type="curve" smooth="yes"/>
      <point x="498" y="371"/>
      <point x="494" y="391"/>
      <point x="484" y="410" type="curve"/>
      <point x="521" y="410" type="line" smooth="yes"/>
      <point x="604" y="410"/>
      <point x="652" y="440"/>
      <point x="689" y="499" type="curve" smooth="yes"/>
      <point x="691" y="503"/>
      <point x="692" y="507"/>
      <point x="692" y="511" type="curve" smooth="yes"/>
      <point x="692" y="524"/>
      <point x="682" y="534"/>
      <point x="669" y="534" type="curve" smooth="yes"/>
      <point x="661" y="534"/>
      <point x="654" y="530"/>
      <point x="649" y="523" type="curve" smooth="yes"/>
      <point x="621" y="478"/>
      <point x="584" y="456"/>
      <point x="521" y="456" type="curve" smooth="yes"/>
      <point x="106" y="456" type="line" smooth="yes"/>
      <point x="94" y="456"/>
      <point x="83" y="445"/>
      <point x="83" y="433" type="curve" smooth="yes"/>
      <point x="83" y="421"/>
      <point x="94" y="410"/>
      <point x="106" y="410" type="curve" smooth="yes"/>
      <point x="283" y="410" type="line"/>
      <point x="272" y="390"/>
      <point x="268" y="370"/>
      <point x="268" y="352" type="curve" smooth="yes"/>
      <point x="268" y="298"/>
      <point x="309" y="246"/>
    </contour>
    <contour>
      <point x="383" y="292" type="curve" smooth="yes"/>
      <point x="341" y="292"/>
      <point x="314" y="320"/>
      <point x="314" y="352" type="curve" smooth="yes"/>
      <point x="314" y="371"/>
      <point x="321" y="392"/>
      <point x="340" y="410" type="curve"/>
      <point x="428" y="410" type="line"/>
      <point x="446" y="391"/>
      <point x="452" y="371"/>
      <point x="452" y="353" type="curve" smooth="yes"/>
      <point x="452" y="319"/>
      <point x="427" y="292"/>
    </contour>
    <contour>
      <point x="905" y="140" type="curve" smooth="yes"/>
      <point x="905" y="250"/>
      <point x="863" y="345"/>
      <point x="790" y="427" type="curve" smooth="yes"/>
      <point x="786" y="432"/>
      <point x="780" y="435"/>
      <point x="773" y="435" type="curve" smooth="yes"/>
      <point x="760" y="435"/>
      <point x="750" y="425"/>
      <point x="750" y="412" type="curve" smooth="yes"/>
      <point x="750" y="407"/>
      <point x="752" y="401"/>
      <point x="756" y="397" type="curve" smooth="yes"/>
      <point x="821" y="323"/>
      <point x="859" y="238"/>
      <point x="859" y="140" type="curve" smooth="yes"/>
      <point x="859" y="-7"/>
      <point x="787" y="-94"/>
      <point x="669" y="-94" type="curve" smooth="yes"/>
      <point x="593" y="-94"/>
      <point x="534" y="-61"/>
      <point x="483" y="10" type="curve"/>
      <point x="502" y="3"/>
      <point x="523" y="0"/>
      <point x="547" y="0" type="curve" smooth="yes"/>
      <point x="633" y="0"/>
      <point x="685" y="58"/>
      <point x="685" y="141" type="curve" smooth="yes"/>
      <point x="685" y="180"/>
      <point x="674" y="217"/>
      <point x="661" y="246" type="curve" smooth="yes"/>
      <point x="657" y="254"/>
      <point x="649" y="259"/>
      <point x="640" y="259" type="curve" smooth="yes"/>
      <point x="626" y="259"/>
      <point x="617" y="248"/>
      <point x="617" y="236" type="curve" smooth="yes"/>
      <point x="617" y="232"/>
      <point x="618" y="229"/>
      <point x="622" y="220" type="curve" smooth="yes"/>
      <point x="630" y="203"/>
      <point x="639" y="172"/>
      <point x="639" y="141" type="curve" smooth="yes"/>
      <point x="639" y="86"/>
      <point x="605" y="46"/>
      <point x="547" y="46" type="curve" smooth="yes"/>
      <point x="482" y="46"/>
      <point x="442" y="79"/>
      <point x="405" y="136" type="curve"/>
      <point x="401" y="143"/>
      <point x="394" y="147"/>
      <point x="386" y="147" type="curve" smooth="yes"/>
      <point x="381" y="147" type="line" smooth="yes"/>
      <point x="374" y="147"/>
      <point x="366" y="143"/>
      <point x="362" y="137" type="curve" smooth="yes"/>
      <point x="321" y="76"/>
      <point x="283" y="44"/>
      <point x="222" y="44" type="curve" smooth="yes"/>
      <point x="164" y="44"/>
      <point x="126" y="75"/>
      <point x="126" y="118" type="curve" smooth="yes"/>
      <point x="126" y="156"/>
      <point x="155" y="186"/>
      <point x="202" y="193" type="curve" smooth="yes"/>
      <point x="214" y="195"/>
      <point x="222" y="205"/>
      <point x="222" y="216" type="curve" smooth="yes"/>
      <point x="222" y="228"/>
      <point x="214" y="238"/>
      <point x="201" y="238" type="curve" smooth="yes"/>
      <point x="137" y="238"/>
      <point x="80" y="188"/>
      <point x="80" y="118" type="curve" smooth="yes"/>
      <point x="80" y="55"/>
      <point x="128" y="-2"/>
      <point x="222" y="-2" type="curve" smooth="yes"/>
      <point x="289" y="-2"/>
      <point x="336" y="27"/>
      <point x="383" y="88" type="curve"/>
      <point x="384" y="87"/>
      <point x="385" y="86"/>
      <point x="386" y="85" type="curve"/>
      <point x="387" y="82"/>
      <point x="389" y="77"/>
      <point x="390" y="75" type="curve" smooth="yes"/>
      <point x="467" y="-79"/>
      <point x="551" y="-140"/>
      <point x="669" y="-140" type="curve" smooth="yes"/>
      <point x="811" y="-140"/>
      <point x="905" y="-43"/>
    </contour>
  </outline>
</glyph>
<glyph name="rrVocalic-kannada.following" format="1">
  <advance width="930"/>
  <outline>
    <contour>
      <point x="770" y="-171" type="curve" smooth="yes"/>
      <point x="738" y="-171"/>
      <point x="719" y="-151"/>
      <point x="718" y="-126" type="curve" smooth="yes"/>
      <point x="718" y="-96"/>
      <point x="743" y="-69"/>
      <point x="786" y="-69" type="curve" smooth="yes"/>
      <point x="802" y="-69"/>
      <point x="819" y="-70"/>
      <point x="834" y="-74" type="curve"/>
      <point x="834" y="-82"/>
      <point x="834" y="-82"/>
      <point x="834" y="-82" type="curve"/>
      <point x="834" y="-134"/>
      <point x="809" y="-171"/>
    </contour>
    <contour>
      <point x="310" y="-242" type="curve" smooth="yes"/>
      <point x="281" y="-242"/>
      <point x="265" y="-233"/>
      <point x="251" y="-224" type="curve"/>
      <point x="251" y="-220" type="line" smooth="yes"/>
      <point x="251" y="-179"/>
      <point x="275" y="-143"/>
      <point x="313" y="-143" type="curve" smooth="yes"/>
      <point x="346" y="-143"/>
      <point x="362" y="-165"/>
      <point x="362" y="-189" type="curve" smooth="yes"/>
      <point x="362" y="-222"/>
      <point x="337" y="-242"/>
    </contour>
    <contour>
      <point x="547" y="-359" type="curve" smooth="yes"/>
      <point x="583" y="-323"/>
      <point x="603" y="-269"/>
      <point x="603" y="-197" type="curve" smooth="yes"/>
      <point x="603" y="-139"/>
      <point x="589" y="-58"/>
      <point x="562" y="28" type="curve"/>
      <point x="679" y="28" type="line" smooth="yes"/>
      <point x="750" y="28"/>
      <point x="798" y="7"/>
      <point x="820" y="-29" type="curve"/>
      <point x="808" y="-28"/>
      <point x="797" y="-27"/>
      <point x="786" y="-27" type="curve" smooth="yes"/>
      <point x="713" y="-27"/>
      <point x="676" y="-76"/>
      <point x="676" y="-128" type="curve" smooth="yes"/>
      <point x="677" y="-171"/>
      <point x="710" y="-213"/>
      <point x="770" y="-213" type="curve" smooth="yes"/>
      <point x="827" y="-213"/>
      <point x="876" y="-168"/>
      <point x="876" y="-82" type="curve" smooth="yes"/>
      <point x="876" y="2"/>
      <point x="821" y="70"/>
      <point x="679" y="70" type="curve" smooth="yes"/>
      <point x="533" y="70" type="line" smooth="yes"/>
      <point x="522" y="70"/>
      <point x="512" y="60"/>
      <point x="512" y="49" type="curve" smooth="yes"/>
      <point x="512" y="45"/>
      <point x="514" y="38"/>
      <point x="517" y="30" type="curve" smooth="yes"/>
      <point x="543" y="-50"/>
      <point x="561" y="-138"/>
      <point x="561" y="-197" type="curve" smooth="yes"/>
      <point x="561" y="-255"/>
      <point x="547" y="-299"/>
      <point x="517" y="-329" type="curve" smooth="yes"/>
      <point x="491" y="-356"/>
      <point x="454" y="-370"/>
      <point x="407" y="-370" type="curve" smooth="yes"/>
      <point x="364" y="-370"/>
      <point x="321" y="-357"/>
      <point x="295" y="-330" type="curve" smooth="yes"/>
      <point x="279" y="-314"/>
      <point x="267" y="-296"/>
      <point x="260" y="-276" type="curve"/>
      <point x="273" y="-281"/>
      <point x="289" y="-284"/>
      <point x="310" y="-284" type="curve" smooth="yes"/>
      <point x="358" y="-284"/>
      <point x="404" y="-250"/>
      <point x="404" y="-189" type="curve" smooth="yes"/>
      <point x="404" y="-145"/>
      <point x="376" y="-101"/>
      <point x="313" y="-101" type="curve" smooth="yes"/>
      <point x="255" y="-101"/>
      <point x="209" y="-151"/>
      <point x="209" y="-220" type="curve" smooth="yes"/>
      <point x="209" y="-277"/>
      <point x="227" y="-322"/>
      <point x="265" y="-360" type="curve" smooth="yes"/>
      <point x="299" y="-393"/>
      <point x="352" y="-412"/>
      <point x="407" y="-412" type="curve" smooth="yes"/>
      <point x="466" y="-412"/>
      <point x="513" y="-392"/>
    </contour>
  </outline>
</glyph>
<glyph name="ru-kannada" format="1">
  <advance width="936"/>
  <outline>
    <contour>
      <point x="146" y="223" type="curve" smooth="yes"/>
      <point x="146" y="322"/>
      <point x="230" y="410"/>
      <point x="339" y="410" type="curve" smooth="yes"/>
      <point x="450" y="410"/>
      <point x="526" y="320"/>
      <point x="526" y="223" type="curve" smooth="yes"/>
      <point x="526" y="120"/>
      <point x="453" y="42"/>
      <point x="337" y="42" type="curve" smooth="yes"/>
      <point x="223" y="42"/>
      <point x="146" y="119"/>
    </contour>
    <contour>
      <point x="707" y="0" type="curve" smooth="yes"/>
      <point x="813" y="0"/>
      <point x="869" y="69"/>
      <point x="869" y="169" type="curve" smooth="yes"/>
      <point x="869" y="255"/>
      <point x="821" y="357"/>
      <point x="757" y="427" type="curve" smooth="yes"/>
      <point x="753" y="432"/>
      <point x="747" y="435"/>
      <point x="740" y="435" type="curve" smooth="yes"/>
      <point x="727" y="435"/>
      <point x="717" y="425"/>
      <point x="717" y="412" type="curve" smooth="yes"/>
      <point x="717" y="407"/>
      <point x="719" y="401"/>
      <point x="723" y="397" type="curve" smooth="yes"/>
      <point x="779" y="335"/>
      <point x="823" y="245"/>
      <point x="823" y="169" type="curve" smooth="yes"/>
      <point x="823" y="97"/>
      <point x="785" y="46"/>
      <point x="707" y="46" type="curve" smooth="yes"/>
      <point x="646" y="46"/>
      <point x="602" y="76"/>
      <point x="560" y="144" type="curve"/>
      <point x="568" y="169"/>
      <point x="572" y="195"/>
      <point x="572" y="223" type="curve" smooth="yes"/>
      <point x="572" y="297"/>
      <point x="537" y="367"/>
      <point x="479" y="410" type="curve"/>
      <point x="552" y="414"/>
      <point x="596" y="444"/>
      <point x="630" y="499" type="curve" smooth="yes"/>
      <point x="632" y="503"/>
      <point x="633" y="507"/>
      <point x="633" y="511" type="curve" smooth="yes"/>
      <point x="633" y="524"/>
      <point x="623" y="534"/>
      <point x="610" y="534" type="curve" smooth="yes"/>
      <point x="602" y="534"/>
      <point x="595" y="530"/>
      <point x="590" y="523" type="curve" smooth="yes"/>
      <point x="562" y="478"/>
      <point x="525" y="456"/>
      <point x="462" y="456" type="curve" smooth="yes"/>
      <point x="94" y="456" type="line" smooth="yes"/>
      <point x="82" y="456"/>
      <point x="71" y="445"/>
      <point x="71" y="433" type="curve" smooth="yes"/>
      <point x="71" y="421"/>
      <point x="82" y="410"/>
      <point x="94" y="410" type="curve" smooth="yes"/>
      <point x="197" y="410" type="line"/>
      <point x="138" y="367"/>
      <point x="100" y="297"/>
      <point x="100" y="223" type="curve" smooth="yes"/>
      <point x="100" y="93"/>
      <point x="193" y="-4"/>
      <point x="337" y="-4" type="curve" smooth="yes"/>
      <point x="428" y="-4"/>
      <point x="498" y="35"/>
      <point x="536" y="96" type="curve"/>
      <point x="586" y="28"/>
      <point x="639" y="0"/>
    </contour>
  </outline>
</glyph>
<glyph name="shau-kannada" format="1">
  <advance width="960"/>
  <outline>
    <contour>
      <point x="294" y="0" type="curve" smooth="yes"/>
      <point x="405" y="0"/>
      <point x="478" y="42"/>
      <point x="506" y="70" type="curve" smooth="yes"/>
      <point x="538" y="102"/>
      <point x="561" y="144"/>
      <point x="561" y="197" type="curve" smooth="yes"/>
      <point x="561" y="266"/>
      <point x="525" y="349"/>
      <point x="441" y="410" type="curve"/>
      <point x="541" y="415"/>
      <point x="604" y="472"/>
      <point x="610" y="581" type="curve"/>
      <point x="616" y="581" type="line" smooth="yes"/>
      <point x="730" y="581"/>
      <point x="817" y="532"/>
      <point x="839" y="424" type="curve"/>
      <point x="819" y="428"/>
      <point x="798" y="431"/>
      <point x="778" y="431" type="curve" smooth="yes"/>
      <point x="687" y="431"/>
      <point x="645" y="373"/>
      <point x="645" y="308" type="curve" smooth="yes"/>
      <point x="645" y="250"/>
      <point x="688" y="201"/>
      <point x="757" y="201" type="curve" smooth="yes"/>
      <point x="830" y="201"/>
      <point x="890" y="259"/>
      <point x="890" y="367" type="curve" smooth="yes"/>
      <point x="890" y="545"/>
      <point x="776" y="627"/>
      <point x="616" y="627" type="curve" smooth="yes"/>
      <point x="392" y="627" type="line" smooth="yes"/>
      <point x="380" y="627"/>
      <point x="369" y="616"/>
      <point x="369" y="604" type="curve" smooth="yes"/>
      <point x="369" y="592"/>
      <point x="380" y="581"/>
      <point x="392" y="581" type="curve" smooth="yes"/>
      <point x="564" y="581" type="line"/>
      <point x="558" y="499"/>
      <point x="507" y="456"/>
      <point x="428" y="456" type="curve" smooth="yes"/>
      <point x="89" y="456" type="line" smooth="yes"/>
      <point x="77" y="456"/>
      <point x="66" y="445"/>
      <point x="66" y="433" type="curve" smooth="yes"/>
      <point x="66" y="421"/>
      <point x="77" y="410"/>
      <point x="89" y="410" type="curve" smooth="yes"/>
      <point x="197" y="410" type="line"/>
      <point x="181" y="396"/>
      <point x="168" y="377"/>
      <point x="158" y="354" type="curve" smooth="yes"/>
      <point x="157" y="351"/>
      <point x="156" y="348"/>
      <point x="156" y="345" type="curve" smooth="yes"/>
      <point x="156" y="333"/>
      <point x="167" y="322"/>
      <point x="179" y="322" type="curve" smooth="yes"/>
      <point x="188" y="322"/>
      <point x="196" y="327"/>
      <point x="200" y="336" type="curve" smooth="yes"/>
      <point x="216" y="371"/>
      <point x="242" y="396"/>
      <point x="274" y="396" type="curve" smooth="yes"/>
      <point x="308" y="396"/>
      <point x="339" y="370"/>
      <point x="339" y="331" type="curve" smooth="yes"/>
      <point x="339" y="287"/>
      <point x="311" y="255"/>
      <point x="253" y="249" type="curve" smooth="yes"/>
      <point x="157" y="239"/>
      <point x="128" y="221"/>
      <point x="109" y="202" type="curve" smooth="yes"/>
      <point x="90" y="183"/>
      <point x="79" y="158"/>
      <point x="79" y="126" type="curve" smooth="yes"/>
      <point x="79" y="73"/>
      <point x="112" y="0"/>
    </contour>
    <contour>
      <point x="294" y="46" type="curve" smooth="yes"/>
      <point x="178" y="46"/>
      <point x="125" y="85"/>
      <point x="125" y="126" type="curve" smooth="yes"/>
      <point x="125" y="144"/>
      <point x="130" y="159"/>
      <point x="141" y="170" type="curve" smooth="yes"/>
      <point x="156" y="185"/>
      <point x="183" y="195"/>
      <point x="259" y="203" type="curve" smooth="yes"/>
      <point x="347" y="213"/>
      <point x="385" y="265"/>
      <point x="385" y="331" type="curve" smooth="yes"/>
      <point x="385" y="362"/>
      <point x="373" y="389"/>
      <point x="355" y="408" type="curve"/>
      <point x="464" y="356"/>
      <point x="515" y="270"/>
      <point x="515" y="197" type="curve" smooth="yes"/>
      <point x="515" y="158"/>
      <point x="498" y="126"/>
      <point x="474" y="102" type="curve" smooth="yes"/>
      <point x="450" y="78"/>
      <point x="387" y="46"/>
    </contour>
    <contour>
      <point x="757" y="247" type="curve" smooth="yes"/>
      <point x="718" y="247"/>
      <point x="691" y="274"/>
      <point x="691" y="308" type="curve" smooth="yes"/>
      <point x="691" y="351"/>
      <point x="721" y="385"/>
      <point x="778" y="385" type="curve" smooth="yes"/>
      <point x="801" y="385"/>
      <point x="824" y="380"/>
      <point x="844" y="374" type="curve"/>
      <point x="844" y="367"/>
      <point x="844" y="367"/>
      <point x="844" y="367" type="curve"/>
      <point x="844" y="297"/>
      <point x="810" y="247"/>
    </contour>
  </outline>
</glyph>
<glyph name="so-kannada" format="1">
  <advance width="1295"/>
  <outline>
    <contour>
      <point x="468" y="508" type="curve" smooth="yes"/>
      <point x="468" y="553"/>
      <point x="496" y="589"/>
      <point x="539" y="589" type="curve" smooth="yes"/>
      <point x="575" y="589"/>
      <point x="602" y="566"/>
      <point x="602" y="532" type="curve" smooth="yes"/>
      <point x="602" y="487"/>
      <point x="564" y="456"/>
      <point x="475" y="456" type="curve"/>
      <point x="472" y="470"/>
      <point x="468" y="489"/>
    </contour>
    <contour>
      <point x="353" y="246" type="curve" smooth="yes"/>
      <point x="429" y="246"/>
      <point x="468" y="297"/>
      <point x="468" y="353" type="curve" smooth="yes"/>
      <point x="468" y="371"/>
      <point x="464" y="391"/>
      <point x="454" y="410" type="curve"/>
      <point x="474" y="410" type="line" smooth="yes"/>
      <point x="615" y="410"/>
      <point x="648" y="471"/>
      <point x="648" y="532" type="curve" smooth="yes"/>
      <point x="648" y="590"/>
      <point x="605" y="635"/>
      <point x="539" y="635" type="curve" smooth="yes"/>
      <point x="472" y="635"/>
      <point x="422" y="583"/>
      <point x="422" y="508" type="curve" smooth="yes"/>
      <point x="422" y="490"/>
      <point x="425" y="471"/>
      <point x="428" y="456" type="curve"/>
      <point x="93" y="456" type="line" smooth="yes"/>
      <point x="81" y="456"/>
      <point x="70" y="445"/>
      <point x="70" y="433" type="curve" smooth="yes"/>
      <point x="70" y="421"/>
      <point x="81" y="410"/>
      <point x="93" y="410" type="curve" smooth="yes"/>
      <point x="253" y="410" type="line"/>
      <point x="242" y="390"/>
      <point x="238" y="370"/>
      <point x="238" y="352" type="curve" smooth="yes"/>
      <point x="238" y="298"/>
      <point x="279" y="246"/>
    </contour>
    <contour>
      <point x="353" y="292" type="curve" smooth="yes"/>
      <point x="311" y="292"/>
      <point x="284" y="320"/>
      <point x="284" y="352" type="curve" smooth="yes"/>
      <point x="284" y="371"/>
      <point x="291" y="392"/>
      <point x="310" y="410" type="curve"/>
      <point x="398" y="410" type="line"/>
      <point x="416" y="391"/>
      <point x="422" y="371"/>
      <point x="422" y="353" type="curve" smooth="yes"/>
      <point x="422" y="319"/>
      <point x="397" y="292"/>
    </contour>
    <contour>
      <point x="1095" y="42" type="curve" smooth="yes"/>
      <point x="1054" y="42"/>
      <point x="1029" y="72"/>
      <point x="1029" y="106" type="curve" smooth="yes"/>
      <point x="1029" y="149"/>
      <point x="1059" y="183"/>
      <point x="1116" y="183" type="curve" smooth="yes"/>
      <point x="1139" y="183"/>
      <point x="1162" y="178"/>
      <point x="1182" y="172" type="curve"/>
      <point x="1182" y="167" type="line" smooth="yes"/>
      <point x="1182" y="93"/>
      <point x="1148" y="42"/>
    </contour>
    <contour>
      <point x="141" y="13" type="curve" smooth="yes"/>
      <point x="141" y="74"/>
      <point x="153" y="118"/>
      <point x="176" y="141" type="curve" smooth="yes"/>
      <point x="188" y="153"/>
      <point x="207" y="162"/>
      <point x="229" y="162" type="curve" smooth="yes"/>
      <point x="261" y="162"/>
      <point x="296" y="144"/>
      <point x="328" y="100" type="curve" smooth="yes"/>
      <point x="373" y="40"/>
      <point x="409" y="0"/>
      <point x="476" y="0" type="curve" smooth="yes"/>
      <point x="533" y="0"/>
      <point x="584" y="28"/>
      <point x="604" y="96" type="curve"/>
      <point x="653" y="30"/>
      <point x="707" y="0"/>
      <point x="761" y="0" type="curve" smooth="yes"/>
      <point x="844" y="0"/>
      <point x="885" y="50"/>
      <point x="885" y="125" type="curve" smooth="yes"/>
      <point x="885" y="178"/>
      <point x="860" y="228"/>
      <point x="860" y="288" type="curve" smooth="yes"/>
      <point x="860" y="344"/>
      <point x="900" y="410"/>
      <point x="979" y="410" type="curve" smooth="yes"/>
      <point x="1059" y="410"/>
      <point x="1154" y="341"/>
      <point x="1177" y="221" type="curve"/>
      <point x="1157" y="226"/>
      <point x="1136" y="229"/>
      <point x="1116" y="229" type="curve" smooth="yes"/>
      <point x="1025" y="229"/>
      <point x="983" y="171"/>
      <point x="983" y="106" type="curve" smooth="yes"/>
      <point x="983" y="48"/>
      <point x="1024" y="-4"/>
      <point x="1095" y="-4" type="curve" smooth="yes"/>
      <point x="1168" y="-4"/>
      <point x="1228" y="55"/>
      <point x="1228" y="167" type="curve" smooth="yes"/>
      <point x="1228" y="354"/>
      <point x="1089" y="456"/>
      <point x="979" y="456" type="curve" smooth="yes"/>
      <point x="870" y="456"/>
      <point x="814" y="366"/>
      <point x="814" y="288" type="curve" smooth="yes"/>
      <point x="814" y="228"/>
      <point x="839" y="178"/>
      <point x="839" y="125" type="curve" smooth="yes"/>
      <point x="839" y="78"/>
      <point x="814" y="46"/>
      <point x="761" y="46" type="curve" smooth="yes"/>
      <point x="717" y="46"/>
      <point x="669" y="75"/>
      <point x="614" y="162" type="curve"/>
      <point x="614" y="168" type="line" smooth="yes"/>
      <point x="614" y="198"/>
      <point x="608" y="239"/>
      <point x="598" y="270" type="curve" smooth="yes"/>
      <point x="595" y="280"/>
      <point x="586" y="286"/>
      <point x="576" y="286" type="curve" smooth="yes"/>
      <point x="564" y="286"/>
      <point x="553" y="275"/>
      <point x="553" y="263" type="curve" smooth="yes"/>
      <point x="553" y="260"/>
      <point x="554" y="256"/>
      <point x="556" y="249" type="curve" smooth="yes"/>
      <point x="562" y="228"/>
      <point x="568" y="194"/>
      <point x="568" y="168" type="curve" smooth="yes"/>
      <point x="568" y="87"/>
      <point x="530" y="46"/>
      <point x="476" y="46" type="curve" smooth="yes"/>
      <point x="423" y="46"/>
      <point x="399" y="82"/>
      <point x="366" y="128" type="curve" smooth="yes"/>
      <point x="322" y="188"/>
      <point x="271" y="208"/>
      <point x="229" y="208" type="curve" smooth="yes"/>
      <point x="193" y="208"/>
      <point x="164" y="193"/>
      <point x="144" y="173" type="curve" smooth="yes"/>
      <point x="115" y="144"/>
      <point x="95" y="92"/>
      <point x="95" y="13" type="curve" smooth="yes"/>
      <point x="95" y="1"/>
      <point x="106" y="-10"/>
      <point x="118" y="-10" type="curve" smooth="yes"/>
      <point x="130" y="-10"/>
      <point x="141" y="1"/>
    </contour>
  </outline>
</glyph>
<glyph name="ss-kannada" format="1">
  <advance width="980"/>
  <outline>
    <contour>
      <point x="830" y="223" type="curve" smooth="yes"/>
      <point x="894" y="223"/>
      <point x="939" y="265"/>
      <point x="939" y="333" type="curve" smooth="yes"/>
      <point x="939" y="389"/>
      <point x="901" y="453"/>
      <point x="799" y="456" type="curve"/>
      <point x="820" y="482"/>
      <point x="851" y="508"/>
      <point x="895" y="532" type="curve" smooth="yes"/>
      <point x="903" y="536"/>
      <point x="907" y="544"/>
      <point x="907" y="552" type="curve" smooth="yes"/>
      <point x="907" y="566"/>
      <point x="895" y="575"/>
      <point x="884" y="575" type="curve" smooth="yes"/>
      <point x="880" y="575"/>
      <point x="876" y="574"/>
      <point x="873" y="572" type="curve" smooth="yes"/>
      <point x="806" y="536"/>
      <point x="766" y="495"/>
      <point x="742" y="456" type="curve"/>
      <point x="106" y="456" type="line" smooth="yes"/>
      <point x="94" y="456"/>
      <point x="83" y="445"/>
      <point x="83" y="433" type="curve" smooth="yes"/>
      <point x="83" y="421"/>
      <point x="94" y="410"/>
      <point x="106" y="410" type="curve" smooth="yes"/>
      <point x="283" y="410" type="line"/>
      <point x="272" y="390"/>
      <point x="268" y="370"/>
      <point x="268" y="352" type="curve" smooth="yes"/>
      <point x="268" y="298"/>
      <point x="309" y="246"/>
      <point x="383" y="246" type="curve" smooth="yes"/>
      <point x="459" y="246"/>
      <point x="498" y="297"/>
      <point x="498" y="353" type="curve" smooth="yes"/>
      <point x="498" y="371"/>
      <point x="494" y="391"/>
      <point x="484" y="410" type="curve"/>
      <point x="722" y="410" type="line"/>
      <point x="715" y="387"/>
      <point x="713" y="365"/>
      <point x="713" y="345" type="curve" smooth="yes"/>
      <point x="713" y="270"/>
      <point x="768" y="223"/>
    </contour>
    <contour>
      <point x="383" y="292" type="curve" smooth="yes"/>
      <point x="341" y="292"/>
      <point x="314" y="320"/>
      <point x="314" y="352" type="curve" smooth="yes"/>
      <point x="314" y="371"/>
      <point x="321" y="392"/>
      <point x="340" y="410" type="curve"/>
      <point x="428" y="410" type="line"/>
      <point x="446" y="391"/>
      <point x="452" y="371"/>
      <point x="452" y="353" type="curve" smooth="yes"/>
      <point x="452" y="319"/>
      <point x="427" y="292"/>
    </contour>
    <contour>
      <point x="830" y="269" type="curve" smooth="yes"/>
      <point x="792" y="269"/>
      <point x="759" y="300"/>
      <point x="759" y="345" type="curve" smooth="yes"/>
      <point x="759" y="365"/>
      <point x="762" y="387"/>
      <point x="772" y="410" type="curve"/>
      <point x="791" y="410" type="line" smooth="yes"/>
      <point x="859" y="410"/>
      <point x="893" y="372"/>
      <point x="893" y="333" type="curve" smooth="yes"/>
      <point x="893" y="293"/>
      <point x="868" y="269"/>
    </contour>
    <contour>
      <point x="661" y="-56" type="curve" smooth="yes"/>
      <point x="674" y="-56"/>
      <point x="684.0" y="-44.853626717"/>
      <point x="684" y="-33" type="curve" smooth="yes"/>
      <point x="684" y="-29"/>
      <point x="683" y="-24"/>
      <point x="680" y="-20" type="curve"/>
      <point x="644" y="35" type="line"/>
      <point x="670" y="60"/>
      <point x="685" y="97"/>
      <point x="685" y="141" type="curve" smooth="yes"/>
      <point x="685" y="180"/>
      <point x="674" y="217"/>
      <point x="661" y="246" type="curve" smooth="yes"/>
      <point x="657" y="254"/>
      <point x="649" y="259"/>
      <point x="640" y="259" type="curve" smooth="yes"/>
      <point x="625" y="259"/>
      <point x="617" y="248"/>
      <point x="617" y="236" type="curve" smooth="yes"/>
      <point x="617" y="232"/>
      <point x="618" y="229"/>
      <point x="622" y="220" type="curve" smooth="yes"/>
      <point x="630" y="203"/>
      <point x="639" y="172"/>
      <point x="639" y="141" type="curve" smooth="yes"/>
      <point x="639" y="115"/>
      <point x="631" y="92"/>
      <point x="617" y="75" type="curve"/>
      <point x="532" y="203" type="line" smooth="yes"/>
      <point x="528" y="209"/>
      <point x="520" y="213"/>
      <point x="513" y="213" type="curve" smooth="yes"/>
      <point x="500" y="213"/>
      <point x="490" y="202"/>
      <point x="490" y="190" type="curve" smooth="yes"/>
      <point x="490" y="186"/>
      <point x="491" y="181"/>
      <point x="494" y="177" type="curve"/>
      <point x="578" y="50" type="line"/>
      <point x="569" y="48"/>
      <point x="558" y="46"/>
      <point x="547" y="46" type="curve" smooth="yes"/>
      <point x="482" y="46"/>
      <point x="442" y="79"/>
      <point x="405" y="136" type="curve" smooth="yes"/>
      <point x="401" y="143"/>
      <point x="394" y="147"/>
      <point x="386" y="147" type="curve" smooth="yes"/>
      <point x="381" y="147" type="line" smooth="yes"/>
      <point x="374" y="147"/>
      <point x="366" y="143"/>
      <point x="362" y="137" type="curve" smooth="yes"/>
      <point x="321" y="76"/>
      <point x="283" y="44"/>
      <point x="222" y="44" type="curve" smooth="yes"/>
      <point x="164" y="44"/>
      <point x="126" y="75"/>
      <point x="126" y="118" type="curve" smooth="yes"/>
      <point x="126" y="156"/>
      <point x="155" y="186"/>
      <point x="202" y="193" type="curve" smooth="yes"/>
      <point x="214" y="195"/>
      <point x="222" y="205"/>
      <point x="222" y="216" type="curve" smooth="yes"/>
      <point x="222" y="229"/>
      <point x="213" y="238"/>
      <point x="199" y="238" type="curve" smooth="yes"/>
      <point x="137" y="238"/>
      <point x="80" y="188"/>
      <point x="80" y="118" type="curve" smooth="yes"/>
      <point x="80" y="55"/>
      <point x="128" y="-2"/>
      <point x="222" y="-2" type="curve" smooth="yes"/>
      <point x="289" y="-2"/>
      <point x="336" y="27"/>
      <point x="383" y="88" type="curve"/>
      <point x="426" y="31"/>
      <point x="475" y="0"/>
      <point x="547" y="0" type="curve" smooth="yes"/>
      <point x="568" y="0"/>
      <point x="588" y="4"/>
      <point x="605" y="10" type="curve"/>
      <point x="642" y="-46" type="line" smooth="yes"/>
      <point x="646" y="-52"/>
      <point x="654" y="-56"/>
    </contour>
  </outline>
</glyph>
<glyph name="th-kannada" format="1">
  <advance width="992"/>
  <outline>
    <contour>
      <point x="519" y="46" type="curve" smooth="yes"/>
      <point x="459" y="46"/>
      <point x="427" y="75"/>
      <point x="395" y="135" type="curve" smooth="yes"/>
      <point x="391" y="142"/>
      <point x="383" y="147"/>
      <point x="375" y="147" type="curve" smooth="yes"/>
      <point x="370" y="147" type="line" smooth="yes"/>
      <point x="362" y="147"/>
      <point x="353" y="141"/>
      <point x="350" y="135" type="curve" smooth="yes"/>
      <point x="320" y="77"/>
      <point x="287" y="46"/>
      <point x="231" y="46" type="curve" smooth="yes"/>
      <point x="170" y="46"/>
      <point x="129" y="93"/>
      <point x="129" y="168" type="curve" smooth="yes"/>
      <point x="129" y="262"/>
      <point x="211" y="358"/>
      <point x="323" y="410" type="curve"/>
      <point x="421" y="410" type="line"/>
      <point x="536" y="358"/>
      <point x="622" y="261"/>
      <point x="622" y="168" type="curve" smooth="yes"/>
      <point x="622" y="93"/>
      <point x="580" y="46"/>
    </contour>
    <contour>
      <point x="668" y="168" type="curve" smooth="yes"/>
      <point x="668" y="254"/>
      <point x="608" y="346"/>
      <point x="514" y="410" type="curve"/>
      <point x="734" y="410" type="line"/>
      <point x="727" y="387"/>
      <point x="725" y="365"/>
      <point x="725" y="345" type="curve" smooth="yes"/>
      <point x="725" y="270"/>
      <point x="780" y="223"/>
      <point x="842" y="223" type="curve" smooth="yes"/>
      <point x="906" y="223"/>
      <point x="951" y="265"/>
      <point x="951" y="333" type="curve" smooth="yes"/>
      <point x="951" y="389"/>
      <point x="913" y="453"/>
      <point x="811" y="456" type="curve"/>
      <point x="832" y="482"/>
      <point x="863" y="508"/>
      <point x="907" y="532" type="curve" smooth="yes"/>
      <point x="915" y="536"/>
      <point x="919" y="544"/>
      <point x="919" y="552" type="curve" smooth="yes"/>
      <point x="919" y="566"/>
      <point x="907" y="575"/>
      <point x="896" y="575" type="curve" smooth="yes"/>
      <point x="892" y="575"/>
      <point x="888" y="574"/>
      <point x="885" y="572" type="curve" smooth="yes"/>
      <point x="818" y="536"/>
      <point x="778" y="495"/>
      <point x="754" y="456" type="curve"/>
      <point x="111" y="456" type="line" smooth="yes"/>
      <point x="99" y="456"/>
      <point x="88" y="445"/>
      <point x="88" y="433" type="curve" smooth="yes"/>
      <point x="88" y="421"/>
      <point x="99" y="410"/>
      <point x="111" y="410" type="curve" smooth="yes"/>
      <point x="231" y="410" type="line"/>
      <point x="141" y="346"/>
      <point x="83" y="254"/>
      <point x="83" y="168" type="curve" smooth="yes"/>
      <point x="83" y="59"/>
      <point x="146" y="0"/>
      <point x="231" y="0" type="curve" smooth="yes"/>
      <point x="294" y="0"/>
      <point x="337" y="27"/>
      <point x="373" y="83" type="curve"/>
      <point x="410" y="25"/>
      <point x="452" y="0"/>
      <point x="519" y="0" type="curve" smooth="yes"/>
      <point x="602" y="0"/>
      <point x="668" y="59"/>
    </contour>
    <contour>
      <point x="842" y="269" type="curve" smooth="yes"/>
      <point x="804" y="269"/>
      <point x="771" y="300"/>
      <point x="771" y="345" type="curve" smooth="yes"/>
      <point x="771" y="365"/>
      <point x="774" y="387"/>
      <point x="784" y="410" type="curve"/>
      <point x="803" y="410" type="line" smooth="yes"/>
      <point x="871" y="410"/>
      <point x="905" y="372"/>
      <point x="905" y="333" type="curve" smooth="yes"/>
      <point x="905" y="293"/>
      <point x="880" y="269"/>
    </contour>
    <contour>
      <point x="373" y="319" type="curve" smooth="yes"/>
      <point x="345" y="319"/>
      <point x="322" y="291"/>
      <point x="322" y="269" type="curve" smooth="yes"/>
      <point x="322" y="240"/>
      <point x="346" y="217"/>
      <point x="373" y="217" type="curve" smooth="yes"/>
      <point x="404" y="217"/>
      <point x="425" y="241"/>
      <point x="425" y="268" type="curve" smooth="yes"/>
      <point x="425" y="291"/>
      <point x="404" y="319"/>
    </contour>
    <contour>
      <point x="396" y="-93" type="line" smooth="yes"/>
      <point x="396" y="-81"/>
      <point x="385" y="-70"/>
      <point x="373" y="-70" type="curve" smooth="yes"/>
      <point x="361" y="-70"/>
      <point x="350" y="-81"/>
      <point x="350" y="-93" type="curve" smooth="yes"/>
      <point x="350" y="-196" type="line" smooth="yes"/>
      <point x="350" y="-208"/>
      <point x="361" y="-219"/>
      <point x="373" y="-219" type="curve" smooth="yes"/>
      <point x="385" y="-219"/>
      <point x="396" y="-208"/>
      <point x="396" y="-196" type="curve" smooth="yes"/>
    </contour>
  </outline>
</glyph>
<glyph name="tt-kannada" format="1">
  <advance width="1040"/>
  <outline>
    <contour>
      <point x="890" y="269" type="curve" smooth="yes"/>
      <point x="852" y="269"/>
      <point x="819" y="300"/>
      <point x="819" y="345" type="curve" smooth="yes"/>
      <point x="819" y="365"/>
      <point x="822" y="387"/>
      <point x="832" y="410" type="curve"/>
      <point x="851" y="410" type="line" smooth="yes"/>
      <point x="919" y="410"/>
      <point x="953" y="372"/>
      <point x="953" y="333" type="curve" smooth="yes"/>
      <point x="953" y="293"/>
      <point x="928" y="269"/>
    </contour>
    <contour>
      <point x="225" y="200" type="curve" smooth="yes"/>
      <point x="194" y="200"/>
      <point x="161" y="215"/>
      <point x="140" y="247" type="curve"/>
      <point x="156" y="284"/>
      <point x="185" y="312"/>
      <point x="223" y="312" type="curve" smooth="yes"/>
      <point x="258" y="312"/>
      <point x="287" y="290"/>
      <point x="287" y="256" type="curve" smooth="yes"/>
      <point x="287" y="222"/>
      <point x="263" y="200"/>
    </contour>
    <contour>
      <point x="692" y="137" type="curve" smooth="yes"/>
      <point x="692" y="182"/>
      <point x="679" y="215"/>
      <point x="646" y="248" type="curve" smooth="yes"/>
      <point x="636" y="259"/>
      <point x="620" y="269"/>
      <point x="603" y="278" type="curve"/>
      <point x="650" y="304"/>
      <point x="662" y="344"/>
      <point x="662" y="382" type="curve" smooth="yes"/>
      <point x="662" y="392"/>
      <point x="660" y="401"/>
      <point x="657" y="410" type="curve"/>
      <point x="782" y="410" type="line"/>
      <point x="775" y="387"/>
      <point x="773" y="365"/>
      <point x="773" y="345" type="curve" smooth="yes"/>
      <point x="773" y="270"/>
      <point x="828" y="223"/>
      <point x="890" y="223" type="curve" smooth="yes"/>
      <point x="954" y="223"/>
      <point x="999" y="265"/>
      <point x="999" y="333" type="curve" smooth="yes"/>
      <point x="999" y="389"/>
      <point x="961" y="453"/>
      <point x="859" y="456" type="curve"/>
      <point x="880" y="482"/>
      <point x="911" y="508"/>
      <point x="955" y="532" type="curve" smooth="yes"/>
      <point x="963" y="536"/>
      <point x="967" y="544"/>
      <point x="967" y="552" type="curve" smooth="yes"/>
      <point x="967" y="566"/>
      <point x="955" y="575"/>
      <point x="944" y="575" type="curve" smooth="yes"/>
      <point x="940" y="575"/>
      <point x="936" y="574"/>
      <point x="933" y="572" type="curve" smooth="yes"/>
      <point x="866" y="536"/>
      <point x="826" y="495"/>
      <point x="802" y="456" type="curve"/>
      <point x="481" y="456" type="line" smooth="yes"/>
      <point x="469" y="456"/>
      <point x="458" y="445"/>
      <point x="458" y="433" type="curve" smooth="yes"/>
      <point x="458" y="421"/>
      <point x="469" y="410"/>
      <point x="481" y="410" type="curve" smooth="yes"/>
      <point x="608" y="410" type="line"/>
      <point x="612" y="402"/>
      <point x="616" y="392"/>
      <point x="616" y="382" type="curve" smooth="yes"/>
      <point x="616" y="345"/>
      <point x="590" y="311"/>
      <point x="527" y="303" type="curve" smooth="yes"/>
      <point x="509" y="301"/>
      <point x="499" y="293"/>
      <point x="499" y="279" type="curve" smooth="yes"/>
      <point x="499" y="267"/>
      <point x="510" y="256"/>
      <point x="522" y="256" type="curve" smooth="yes"/>
      <point x="552" y="256"/>
      <point x="594" y="235"/>
      <point x="614" y="216" type="curve" smooth="yes"/>
      <point x="637" y="193"/>
      <point x="646" y="168"/>
      <point x="646" y="137" type="curve" smooth="yes"/>
      <point x="646" y="82"/>
      <point x="611" y="46"/>
      <point x="553" y="46" type="curve" smooth="yes"/>
      <point x="489" y="46"/>
      <point x="446" y="81"/>
      <point x="413" y="136" type="curve" smooth="yes"/>
      <point x="409" y="142"/>
      <point x="400" y="147"/>
      <point x="393" y="147" type="curve" smooth="yes"/>
      <point x="388" y="147" type="line" smooth="yes"/>
      <point x="380" y="147"/>
      <point x="371" y="141"/>
      <point x="367" y="134" type="curve" smooth="yes"/>
      <point x="340" y="80"/>
      <point x="300" y="46"/>
      <point x="238" y="46" type="curve" smooth="yes"/>
      <point x="171" y="46"/>
      <point x="125" y="98"/>
      <point x="125" y="174" type="curve" smooth="yes"/>
      <point x="125" y="180"/>
      <point x="125" y="187"/>
      <point x="126" y="193" type="curve"/>
      <point x="155" y="166"/>
      <point x="190" y="154"/>
      <point x="225" y="154" type="curve" smooth="yes"/>
      <point x="293" y="154"/>
      <point x="333" y="196"/>
      <point x="333" y="256" type="curve" smooth="yes"/>
      <point x="333" y="314"/>
      <point x="288" y="358"/>
      <point x="223" y="358" type="curve" smooth="yes"/>
      <point x="221" y="358"/>
      <point x="219" y="358"/>
      <point x="217" y="358" type="curve"/>
      <point x="180" y="369"/>
      <point x="171" y="392"/>
      <point x="171" y="413" type="curve" smooth="yes"/>
      <point x="171" y="437"/>
      <point x="193" y="458"/>
      <point x="231" y="466" type="curve" smooth="yes"/>
      <point x="242" y="468"/>
      <point x="249" y="479"/>
      <point x="249" y="490" type="curve" smooth="yes"/>
      <point x="249" y="502"/>
      <point x="240" y="511"/>
      <point x="228" y="511" type="curve" smooth="yes"/>
      <point x="176" y="511"/>
      <point x="125" y="463"/>
      <point x="125" y="415" type="curve" smooth="yes"/>
      <point x="125" y="390"/>
      <point x="131" y="359"/>
      <point x="157" y="337" type="curve"/>
      <point x="111" y="306"/>
      <point x="79" y="244"/>
      <point x="79" y="174" type="curve" smooth="yes"/>
      <point x="79" y="68"/>
      <point x="147" y="0"/>
      <point x="238" y="0" type="curve" smooth="yes"/>
      <point x="306" y="0"/>
      <point x="356" y="31"/>
      <point x="392" y="84" type="curve"/>
      <point x="432" y="30"/>
      <point x="482" y="0"/>
      <point x="553" y="0" type="curve" smooth="yes"/>
      <point x="641" y="0"/>
      <point x="692" y="54"/>
    </contour>
  </outline>
</glyph>
<glyph name="ttha-kannada.below.following" format="1">
  <advance width="471"/>
  <outline>
    <contour>
      <point x="372" y="-92" type="curve" smooth="yes"/>
      <point x="264" y="-92"/>
      <point x="215" y="-177"/>
      <point x="215" y="-242" type="curve" smooth="yes"/>
      <point x="215" y="-310"/>
      <point x="263" y="-387"/>
      <point x="374" y="-387" type="curve" smooth="yes"/>
      <point x="479" y="-387"/>
      <point x="530" y="-309"/>
      <point x="530" y="-242" type="curve" smooth="yes"/>
      <point x="530" y="-176"/>
      <point x="480" y="-92"/>
    </contour>
    <contour>
      <point x="372" y="-134" type="curve" smooth="yes"/>
      <point x="450" y="-134"/>
      <point x="488" y="-194"/>
      <point x="488" y="-242" type="curve" smooth="yes"/>
      <point x="488" y="-291"/>
      <point x="449" y="-345"/>
      <point x="374" y="-345" type="curve" smooth="yes"/>
      <point x="295" y="-345"/>
      <point x="257" y="-292"/>
      <point x="257" y="-242" type="curve" smooth="yes"/>
      <point x="257" y="-195"/>
      <point x="294" y="-134"/>
    </contour>
    <contour>
      <point x="372" y="-270" type="curve" smooth="yes"/>
      <point x="387" y="-270"/>
      <point x="403" y="-258"/>
      <point x="403" y="-239" type="curve" smooth="yes"/>
      <point x="403" y="-220"/>
      <point x="387" y="-208"/>
      <point x="372" y="-208" type="curve" smooth="yes"/>
      <point x="353" y="-208"/>
      <point x="341" y="-220"/>
      <point x="341" y="-239" type="curve" smooth="yes"/>
      <point x="341" y="-258"/>
      <point x="353" y="-270"/>
    </contour>
  </outline>
</glyph>
<glyph name="tthi-kannada" format="1">
  <advance width="642"/>
  <outline>
    <contour>
      <point x="329" y="-10" type="curve" smooth="yes"/>
      <point x="483" y="-10"/>
      <point x="575" y="94"/>
      <point x="575" y="220" type="curve" smooth="yes"/>
      <point x="575" y="237"/>
      <point x="573" y="255"/>
      <point x="569" y="271" type="curve"/>
      <point x="569" y="277" type="line" smooth="yes"/>
      <point x="569" y="383"/>
      <point x="533" y="470"/>
      <point x="486" y="515" type="curve" smooth="yes"/>
      <point x="442" y="555"/>
      <point x="374" y="589"/>
      <point x="287" y="589" type="curve" smooth="yes"/>
      <point x="136" y="589"/>
      <point x="84" y="513"/>
      <point x="84" y="452" type="curve" smooth="yes"/>
      <point x="84" y="420"/>
      <point x="94" y="388"/>
      <point x="130" y="357" type="curve"/>
      <point x="99" y="317"/>
      <point x="82" y="269"/>
      <point x="82" y="220" type="curve" smooth="yes"/>
      <point x="82" y="92"/>
      <point x="177" y="-10"/>
    </contour>
    <contour>
      <point x="330" y="452" type="curve" smooth="yes"/>
      <point x="262" y="452"/>
      <point x="204" y="428"/>
      <point x="161" y="390" type="curve"/>
      <point x="138" y="411"/>
      <point x="130" y="431"/>
      <point x="130" y="452" type="curve" smooth="yes"/>
      <point x="130" y="499"/>
      <point x="186" y="543"/>
      <point x="287" y="543" type="curve" smooth="yes"/>
      <point x="360" y="543"/>
      <point x="418" y="515"/>
      <point x="454" y="481" type="curve" smooth="yes"/>
      <point x="478" y="458"/>
      <point x="497" y="422"/>
      <point x="509" y="379" type="curve"/>
      <point x="467" y="423"/>
      <point x="405" y="452"/>
    </contour>
    <contour>
      <point x="128" y="220" type="curve" smooth="yes"/>
      <point x="128" y="317"/>
      <point x="213" y="406"/>
      <point x="330" y="406" type="curve" smooth="yes"/>
      <point x="449" y="406"/>
      <point x="529" y="315"/>
      <point x="529" y="220" type="curve" smooth="yes"/>
      <point x="529" y="118"/>
      <point x="453" y="36"/>
      <point x="329" y="36" type="curve" smooth="yes"/>
      <point x="207" y="36"/>
      <point x="128" y="116"/>
    </contour>
    <contour>
      <point x="327" y="279" type="curve" smooth="yes"/>
      <point x="299" y="279"/>
      <point x="276" y="251"/>
      <point x="276" y="229" type="curve" smooth="yes"/>
      <point x="276" y="200"/>
      <point x="300" y="177"/>
      <point x="327" y="177" type="curve" smooth="yes"/>
      <point x="358" y="177"/>
      <point x="379" y="201"/>
      <point x="379" y="228" type="curve" smooth="yes"/>
      <point x="379" y="251"/>
      <point x="358" y="279"/>
    </contour>
  </outline>
</glyph>
<glyph name="ttho-kannada" format="1">
  <advance width="1260"/>
  <outline>
    <contour>
      <point x="469" y="508" type="curve" smooth="yes"/>
      <point x="469" y="553"/>
      <point x="497" y="589"/>
      <point x="540" y="589" type="curve" smooth="yes"/>
      <point x="576" y="589"/>
      <point x="603" y="566"/>
      <point x="603" y="532" type="curve" smooth="yes"/>
      <point x="603" y="487"/>
      <point x="565" y="456"/>
      <point x="476" y="456" type="curve"/>
      <point x="473" y="470"/>
      <point x="469" y="489"/>
    </contour>
    <contour>
      <point x="147" y="220" type="curve" smooth="yes"/>
      <point x="147" y="317"/>
      <point x="230" y="410"/>
      <point x="348" y="410" type="curve" smooth="yes"/>
      <point x="468" y="410"/>
      <point x="548" y="315"/>
      <point x="548" y="220" type="curve" smooth="yes"/>
      <point x="548" y="118"/>
      <point x="472" y="36"/>
      <point x="348" y="36" type="curve" smooth="yes"/>
      <point x="226" y="36"/>
      <point x="147" y="116"/>
    </contour>
    <contour>
      <point x="346" y="279" type="curve" smooth="yes"/>
      <point x="318" y="279"/>
      <point x="295" y="251"/>
      <point x="295" y="229" type="curve" smooth="yes"/>
      <point x="295" y="200"/>
      <point x="319" y="177"/>
      <point x="346" y="177" type="curve" smooth="yes"/>
      <point x="377" y="177"/>
      <point x="398" y="201"/>
      <point x="398" y="228" type="curve" smooth="yes"/>
      <point x="398" y="251"/>
      <point x="377" y="279"/>
    </contour>
    <contour>
      <point x="1060" y="42" type="curve" smooth="yes"/>
      <point x="1019" y="42"/>
      <point x="994" y="72"/>
      <point x="994" y="106" type="curve" smooth="yes"/>
      <point x="994" y="149"/>
      <point x="1024" y="183"/>
      <point x="1081" y="183" type="curve" smooth="yes"/>
      <point x="1104" y="183"/>
      <point x="1127" y="178"/>
      <point x="1147" y="172" type="curve"/>
      <point x="1147" y="167" type="line" smooth="yes"/>
      <point x="1147" y="93"/>
      <point x="1113" y="42"/>
    </contour>
    <contour>
      <point x="726" y="0" type="curve" smooth="yes"/>
      <point x="809" y="0"/>
      <point x="850" y="50"/>
      <point x="850" y="125" type="curve" smooth="yes"/>
      <point x="850" y="178"/>
      <point x="825" y="228"/>
      <point x="825" y="288" type="curve" smooth="yes"/>
      <point x="825" y="344"/>
      <point x="865" y="410"/>
      <point x="944" y="410" type="curve" smooth="yes"/>
      <point x="1024" y="410"/>
      <point x="1119" y="341"/>
      <point x="1142" y="221" type="curve"/>
      <point x="1122" y="226"/>
      <point x="1101" y="229"/>
      <point x="1081" y="229" type="curve" smooth="yes"/>
      <point x="990" y="229"/>
      <point x="948" y="171"/>
      <point x="948" y="106" type="curve" smooth="yes"/>
      <point x="948" y="48"/>
      <point x="989" y="-4"/>
      <point x="1060" y="-4" type="curve" smooth="yes"/>
      <point x="1133" y="-4"/>
      <point x="1193" y="55"/>
      <point x="1193" y="167" type="curve" smooth="yes"/>
      <point x="1193" y="354"/>
      <point x="1054" y="456"/>
      <point x="944" y="456" type="curve" smooth="yes"/>
      <point x="835" y="456"/>
      <point x="779" y="366"/>
      <point x="779" y="288" type="curve" smooth="yes"/>
      <point x="779" y="228"/>
      <point x="804" y="178"/>
      <point x="804" y="125" type="curve" smooth="yes"/>
      <point x="804" y="78"/>
      <point x="779" y="46"/>
      <point x="726" y="46" type="curve" smooth="yes"/>
      <point x="669.529411765" y="46.0"/>
      <point x="625" y="91"/>
      <point x="585" y="154" type="curve"/>
      <point x="591" y="175"/>
      <point x="594" y="197"/>
      <point x="594" y="220" type="curve" smooth="yes"/>
      <point x="594" y="292"/>
      <point x="557" y="365"/>
      <point x="493" y="410" type="curve"/>
      <point x="619" y="415"/>
      <point x="649" y="474"/>
      <point x="649" y="532" type="curve" smooth="yes"/>
      <point x="649" y="590"/>
      <point x="606" y="635"/>
      <point x="540" y="635" type="curve" smooth="yes"/>
      <point x="473" y="635"/>
      <point x="423" y="583"/>
      <point x="423" y="508" type="curve" smooth="yes"/>
      <point x="423" y="490"/>
      <point x="426" y="471"/>
      <point x="429" y="456" type="curve"/>
      <point x="103" y="456" type="line" smooth="yes"/>
      <point x="91" y="456"/>
      <point x="80" y="445"/>
      <point x="80" y="433" type="curve" smooth="yes"/>
      <point x="80" y="421"/>
      <point x="91" y="410"/>
      <point x="103" y="410" type="curve" smooth="yes"/>
      <point x="202" y="410" type="line"/>
      <point x="139" y="365"/>
      <point x="101" y="293"/>
      <point x="101" y="220" type="curve" smooth="yes"/>
      <point x="101" y="92"/>
      <point x="196" y="-10"/>
      <point x="348" y="-10" type="curve" smooth="yes"/>
      <point x="450" y="-10"/>
      <point x="525" y="36"/>
      <point x="564" y="103" type="curve"/>
      <point x="614" y="33"/>
      <point x="670" y="0"/>
    </contour>
  </outline>
</glyph>
<glyph name="two-kannada" format="1">
  <advance width="544"/>
  <outline>
    <contour>
      <point x="70" y="0" type="curve" smooth="yes"/>
      <point x="194" y="0" type="line" smooth="yes"/>
      <point x="368" y="0"/>
      <point x="477" y="103"/>
      <point x="477" y="249" type="curve" smooth="yes"/>
      <point x="477" y="403"/>
      <point x="377" y="471"/>
      <point x="287" y="471" type="curve" smooth="yes"/>
      <point x="204" y="471"/>
      <point x="161" y="414"/>
      <point x="161" y="353" type="curve" smooth="yes"/>
      <point x="161" y="289"/>
      <point x="212" y="243"/>
      <point x="287" y="243" type="curve" smooth="yes"/>
      <point x="343" y="243"/>
      <point x="388" y="266"/>
      <point x="423" y="312" type="curve"/>
      <point x="428" y="293"/>
      <point x="431" y="272"/>
      <point x="431" y="249" type="curve" smooth="yes"/>
      <point x="431" y="127"/>
      <point x="336" y="46"/>
      <point x="194" y="46" type="curve" smooth="yes"/>
      <point x="70" y="46" type="line" smooth="yes"/>
      <point x="58" y="46"/>
      <point x="47" y="35"/>
      <point x="47" y="23" type="curve" smooth="yes"/>
      <point x="47" y="11"/>
      <point x="58" y="0"/>
    </contour>
    <contour>
      <point x="287" y="289" type="curve" smooth="yes"/>
      <point x="244" y="289"/>
      <point x="207" y="313"/>
      <point x="207" y="353" type="curve" smooth="yes"/>
      <point x="207" y="392"/>
      <point x="236" y="425"/>
      <point x="287" y="425" type="curve" smooth="yes"/>
      <point x="330" y="425"/>
      <point x="373" y="403"/>
      <point x="401" y="361" type="curve"/>
      <point x="374" y="315"/>
      <point x="337" y="289"/>
    </contour>
  </outline>
</glyph>
<glyph name="va-kannada.base" format="1">
  <advance width="702"/>
  <outline>
    <contour>
      <point x="518" y="0" type="curve" smooth="yes"/>
      <point x="596" y="0"/>
      <point x="661" y="59"/>
      <point x="661" y="154" type="curve" smooth="yes"/>
      <point x="661" y="235"/>
      <point x="614" y="330"/>
      <point x="501" y="412" type="curve"/>
      <point x="509" y="415"/>
      <point x="516" y="424"/>
      <point x="516" y="433" type="curve" smooth="yes"/>
      <point x="516" y="445"/>
      <point x="505" y="456"/>
      <point x="493" y="456" type="curve" smooth="yes"/>
      <point x="118" y="456" type="line" smooth="yes"/>
      <point x="106" y="456"/>
      <point x="95" y="445"/>
      <point x="95" y="433" type="curve" smooth="yes"/>
      <point x="95" y="421"/>
      <point x="106" y="410"/>
      <point x="118" y="410" type="curve" smooth="yes"/>
      <point x="418" y="410" type="line"/>
      <point x="553" y="334"/>
      <point x="615" y="236"/>
      <point x="615" y="154" type="curve" smooth="yes"/>
      <point x="615" y="89"/>
      <point x="572" y="46"/>
      <point x="518" y="46" type="curve" smooth="yes"/>
      <point x="458" y="46"/>
      <point x="421" y="80"/>
      <point x="385" y="136" type="curve" smooth="yes"/>
      <point x="381" y="142"/>
      <point x="373" y="147"/>
      <point x="366" y="147" type="curve" smooth="yes"/>
      <point x="361" y="147" type="line" smooth="yes"/>
      <point x="353" y="147"/>
      <point x="345" y="142"/>
      <point x="341" y="135" type="curve" smooth="yes"/>
      <point x="310" y="75"/>
      <point x="271" y="46"/>
      <point x="204" y="46" type="curve" smooth="yes"/>
      <point x="152" y="46"/>
      <point x="116" y="76"/>
      <point x="116" y="118" type="curve" smooth="yes"/>
      <point x="116" y="156"/>
      <point x="145" y="186"/>
      <point x="192" y="193" type="curve" smooth="yes"/>
      <point x="204" y="195"/>
      <point x="212" y="205"/>
      <point x="212" y="216" type="curve" smooth="yes"/>
      <point x="212" y="228"/>
      <point x="204" y="238"/>
      <point x="192" y="238" type="curve" smooth="yes"/>
      <point x="125" y="238"/>
      <point x="70" y="186"/>
      <point x="70" y="118" type="curve" smooth="yes"/>
      <point x="70" y="54"/>
      <point x="120" y="0"/>
      <point x="204" y="0" type="curve" smooth="yes"/>
      <point x="278" y="0"/>
      <point x="326" y="27"/>
      <point x="365" y="86" type="curve"/>
      <point x="407" y="29"/>
      <point x="452" y="0"/>
    </contour>
  </outline>
</glyph>
<glyph name="zero-kannada" format="1">
  <advance width="577"/>
  <outline>
    <contour>
      <point x="290" y="471" type="curve" smooth="yes"/>
      <point x="159" y="471"/>
      <point x="67" y="373"/>
      <point x="67" y="231" type="curve" smooth="yes"/>
      <point x="67" y="101"/>
      <point x="162" y="-7"/>
      <point x="290" y="-7" type="curve" smooth="yes"/>
      <point x="429" y="-7"/>
      <point x="510" y="100"/>
      <point x="510" y="233" type="curve" smooth="yes"/>
      <point x="510" y="373"/>
      <point x="411" y="471"/>
    </contour>
    <contour>
      <point x="290" y="425" type="curve" smooth="yes"/>
      <point x="387" y="425"/>
      <point x="464" y="343"/>
      <point x="464" y="233" type="curve" smooth="yes"/>
      <point x="464" y="128"/>
      <point x="403" y="39"/>
      <point x="290" y="39" type="curve" smooth="yes"/>
      <point x="186" y="39"/>
      <point x="113" y="127"/>
      <point x="113" y="231" type="curve" smooth="yes"/>
      <point x="113" y="343"/>
      <point x="185" y="425"/>
    </contour>
  </outline>
</glyph>
